<svg id="background3" xmlns="http://www.w3.org/2000/svg" xmlns:xlink="http://www.w3.org/1999/xlink" viewBox="0 0 1920 341"><defs><style>.cls-1{fill:url(#linear-gradient);}</style><linearGradient id="linear-gradient" x1="727.81" y1="1064" x2="727.81" y2="723" gradientTransform="matrix(-1, 0, 0, 1, 1688, 0)" gradientUnits="userSpaceOnUse"><stop offset="0" stop-color="#f4bf8c"/><stop offset="0.13" stop-color="#ecb885"/><stop offset="0.32" stop-color="#d7a373"/><stop offset="0.55" stop-color="#b58255"/><stop offset="0.81" stop-color="#86542d"/><stop offset="1" stop-color="#5f2f0b"/></linearGradient></defs><title>bg-layer3</title><path class="cls-1" d="M1754.66,867.19c-7.09-3.39-14.53-7.7-22.29-6.4s-13.2,7.68-18.84,13c-16.63,15.71-38.37,24.4-61.17,28.1l.27-.94-.1-.11v-2.76l.65-.56.77-1.1-.43.1-.86.82-.48.27-.15-.51.67-4.47.43-1,.22-2.08,1.58-2.68-.1-.72,1.5-1.28,0-.31-.3-.06-1.16.71-.15.26-1.24,2.72-.3.1L1653,888l.74-4,.75-2.07,1.74-1.94-.3-.13v-.46l.4-1.14,1.65-1.43.62.16.67.41.18.18.06-.06.41-.22,1.36.42.64-.2-.61-.7-.84-.15-.24-.34-1.29-.41-.44-.08-.11-.19,0,0-.13,0,1.15-1.15,0,.16-1,1,1.2-.95h.12l.48-.72v-.24l-.2-.17.2-.08,2.3-1.46,2.59-.46.17.39v.24l.1.32.38-.23.19-.47.28.24.72,1-.32-1.17.31-.5,1.72.45,1.22.54.69.92.2.09.24.33-.44.07,1,1.44v-1.69l-.41-.55,0-.31.26.06,1.4.07,2.27,1.16,1.16,1.45.19.39.07.67-.85.3-1.12-.21-1.27.08-.69.38-.28-.75-.2-.08-.09.2-.38.17.34.32.35,0-.39.75-.3-.21-.55-.24-.19.11.2.13,0,.48h-1.37l.58.47.11.17-.2.08-1.91.6-1.55.17-1.06.27-2.62,1.17-.09.2,3.89-1.22,1.44-.21,1.25-.44.64.19,1.44-.25.18-.19.07.19.49-.08h.06l.14,0-.1.14,0,0,.17.75,1,.24.2-.07-.06-.16-.61-.44-.14.17,0-.15.18-.07v0l.24-.52.71-.48-.54-.24-.08-.2.35-.6.9-.37h.35l.67.36-.73,0-.32.13v.23l1.36-.14.88.22,1.81-.25,0,.42-.1.3.22.72.43.16.27.24v.47l.41.17.24-.1.29,0-.13-.28-.54-.11,0-.2.22-.06h.25v-.35l-.27-.3h-.23l-.25.3-.17-.16.4-.28-.13-.32-.07-.31.24,0,1.45.48.93-.38.23-.37,1.36-1.53.3.09.46,0v-.24l-.46-.3.46-.17-.22-.37,1.12-.18.72.15-.2.37.07.2.15,0,1.29-.57.14.2v.48l.44-.44,1.21-.76-.17-.23-.46,0-.78-.35.77-.37.17-.23-.88,0-.54-.46-.71.06-.14.17,0-.16.17-.05-.22-.47-.48-.26v2l-.46.17-.29.25-.19-.25-1,.43-.33.27v-.4l.15-.76-.44.55-.51-.14-.12-.17-.82,1.19v.47l.08.21.16-.1.23-.38.58-.2.08.38-2.41,1-1.07-.13,0,.32.24.32,0,0V877l0,.15-.14-.12.05-.05-.57-.61-.43-.1.24-.4,1.17.33.24-.16-.27-.71-.31-.06-1.31.56-.21.25-.36.17-2-2.69,0-.53-.63-.17H1675l-2.53-.71-.19-.47-.49.24-1.12-.24-.26-.14.64-.17-.19-.16h-.58l-.83-.12-.34-.33-.33.11-2.37,0-.41-.17v-.39l.89-.35.09.06.81-.39.21-.3,1.22-.46,2.72.52,2-.31.13.18-.09.26,0-.09-.09.09.08.13-.15.38H1673v.24l.57.07,1.1-.55.76.14-.91.51.41.18.27-.09.71-.49.62.22.53-.44.83.44.16.22.07-.32-.33-.6,0-.25.32-.15.61-.07.17-.17-.2-.11-1.56.38-.24-.07-.2-.38-.25-.91h-.48l-.19-.4,2.63-1.92h1.47l2-.31,1.28-1,3-1.72h.11l1.21.13,1.08-.64.18-.23.84-.51.93.43.77.51.38.78.14-.15.07.2.49.17.12.3.12-.3.24-.15.23.17v.59l.47.17.17-.2.07.2.23.23v.17l.24-.11,1,.19.19-.08-.11-.16-.54-.11-.06,0,.76-.33.42-.08-.35-.37-.67-.47.45,0-.07-.3-.38-.17.31-.64-.34.16-.34.05-.14.17,0-.14.15-.07-.15-.24h-1.07l.71-.48-.15-.14.14-.05.07.19.69-.75,1.05-.22.12-.22-.16-.14.14,0,.07.41h.1l2.06.54.67.43.48.48,2.1.24.29-.1.51.12.49.24.18-.49,1,.42,0,.21-.45-.14v.11l-.14.78,1-.23.07-.18.67-.48.07-.5-.18-.64.29,0,1.15.46.17.23.37,1.46.14-1.39.43-.55.55-.14.68.29,0-.32.11-.31.47.62.33.34.13-.28.38-.2.23,0,.85-.49,2.17-.57-1-.37-1.1,0-1,.32-.34,0-.19-.44-.07-.54-.41.17-.47-.32.78,0,.91.16-1.45-.61.4-.17.08-.2-1.61-.3-.37-.42-.17-.14.14-.05.07.19h.13l.58-.34-.45-.26-.91-.31-.75,0-.29-.07-.08-.67-.78-.05-.5.15.07-.49-.14-.17-1.08,0,0-.21.33-.1-.33-.15-.65-.43-1,.13-1.15-.47,0-.28-.19-.17h-.48v.48l-.26.11-.59-.11-.61-.6-.23,0-.32.32-.2-.37-.44-.39.37-.46,0-.17h-.33l-.37.69-.59.26L1695,853l-.17-.17-.42-.07-.43-.43-.12.19,0,.21-.63,0-.46.37-.57-.37-.7.28-.25.31-.69-.05.47-.42.2-.11-.15-.13-1-.22-.38.18h-.33l.13-.27.17-.43h-.44l-.37-.85-.75-.57,0-1.09.09-.31,1.22.69h0v.07l0,.14-.14-.11,0,0-.51.1.47.55.3.17.33.06-.13-1.18.67-.5.26-.14-.63-.18,0-.3.3-.1h.52l.1.2.08.44.67.19,1-.13.17-.17,0-.41.58-.36.13-.17-.21-.1-.71-.14-.65.14-.6-.56-.05-.34-.35.22-.25.26-.26.13.08-.42.32-.35,0-.31-.31,0-.44.41h-.32l.11-.27-.06-.41-.91-.07-.18-.16-.24-.14-1.94.42-.15.16,0-.14.17-.07-.55,0-.61.07-.21.18-.53-.38.2-.08.54.28-.11-.47-1,.1-.4.44-.4-.41-.17-.38-.39.19.2.16-.2.13-.15.17,0-.14.19-.07v-.78l-.6,0-.54-.68-2.24-.5-.17.2-.07-.2-2.45-.86-.09-.09-1.1-.12-.33-.1-1.74-.06.14-.34-.33-.08-.38.28-.14.15,0-.14.18-.07-.26-.34-1,.12-.23.18-.14.27L1671,842l-.4.07-.13-.3-.11.32-.06.34-.18-.27-.33-.36-.52-.08-1.55,0-.27-.28-.2-.1-.41.11-.86-.82-1.38-.1-.3.15h-.54l-.17-.35,0-.2-.19.17-.17.28-.34-.06-.75-.61-.41.27-.17.32-.08-.33-.4-.27-.57-.07v.47l-.25.11-.43-.27-.72.48h-.6l-.42.15-.32.46-.87.47.12.28h1.62l.42.54-.25.16-1-.24-1,.25.72.24.74.12.44,0-.35.13-.05,0-.24.28-.3.48-.17.95-1.05.61-.26,0-1.06-.57h-1.69l-.08.08-.17.61-.63-.21-.19.1-.77.24-1.64,0-.32-.36-.19.36-.25,0-.46-.58-.19.24-1.27-.32-.3-.58-.4.44,0,.06-.11.16-.15-.19-.52,0-.11.15-.53-.24-.79,0,.71.59v.22H1645l-.61.38v.06l0,.14-.13-.08-.75.42-.13.14-.34-.34-.4.42-1.53.61,0,.19.44.1.21.07-.21.16-.65,0-.48.2-.32-.22-1,.23-.2-.08.13-.15.56-.48-1.12-.48h-.47l.13-.33-1-.36-.09.23h0v.06l0,.15-.14-.11.06-.06-.78-.28-.43.23-.61-.23-.42.1-.09-.09-.34.4-.32.23-.16.15-.75-.45,0-.34-2.15.58-.91-.15-.08-.2-.09-.44-.15.47-.43.15-.26-.1.1.4.3.17-.32.1-.1.3.27.15,1.09.3,0,.16-.57.18-1,.17-.62.88,0,.06,0,.14-.14-.11,0,0-1.49.17-.23.45.47.5.16-.2.21.64-.37-.2-1,.24-.39.17.45.3h.48l.2.1-.3.13v.3l.28.32-.44.09-.55.41-.42.08-.3.22-.44-.61-.1-.32-.13.29-.61.45-.45,0-.56-.36-.34.1-.66.31-.53-.56-.22-.13-.19.3-.08-.32-.22,0-1,.56-1.73.26,0,.3,0,.31-.3.07-.78,0-.72.8-.35,0h-.16l-.68-.07-.48.27-1,.24-.14.16,0-.14.16-.06-.2-.38-.47-.36-.51.71-.49-.16-.78-.36-.34-.37-.88.44-.61-.1-.58,0-.19.4.73.25-1.79.34-.23.26-.14.58-.3.13h-1l-.4,1-.24.17-.19.1.12.14.95,0,.1.19-.07.21-1,.55-1,.95v0l0,.15-.14-.1,0,0-.76.17-.57-.05-.47-.13-.52.4-.36-.16-.24-.3-.4.29-.17.38-.64-.43h-1l.07.27,0,0v.08l0,.14-.14-.12.06-.05-.8-.29.24-.38-.27-.2-.41,0-.65.14H1596l.53-.71-.53.17-.75.12-.15.07-.2.35-.82-.15-.2-.09-1,1.06.16.34-.64-.19-1.86.95-.08.38-.29.62-2.39,1.34.47.05.31.39.31.08.64-.24-.12-.21.77-.1.55.1.68-.19-.44.88V865l.33-.09.85-.52.26-.26L1592,864l-.25.1v-.31l1,.07.2.08.16-.2.08.2.49.23.45-.31.51-.16,1.22.09.65-.09.23,0-.1.24-.41.66h-.63l-.48.72.19.47.72,0,.28.24-.32,0-.13.24.21.18,1-.32.77.11.39-.54.51,0,1.1-.82.49.2,0,0v.07l0,.15-.14-.12,0,0-.31.1.1.33.17.22.71-.93,1.22,0,.66.31,1.15.17.1.23.47,0,.27-.13,1.12.15.08.19.16.23.1-.33.28-.11.17.36-.11.33,1-.41.22.38,0,.58-.41.41-.24-.28-.05-.33-.3-.09,0,.46-.35,0,.08.18.31.09v.15l-.45.27-.67-.47h-.11l-.34-.38-.13.67-.13.32.4.19,0,.37-.44,0-.14.62.34-.14h.44l-.47.71.49.48-.11.54-.14.17,0-.16.18-.06-.38-.19-.9.44-.73-.47-.7-.2,0-.58-.11-.19-.31-.36-.45,0-.12.32-.13-.27-.22-.23-.16.5-.32-.56.24-.14.22,0-.39-.27-.32-.1.25-.14.7-.24-1-.3-.55.3v.07l0,.14-.14-.1.07-.07-.8-.84-.22-.05-.17.34-.09-.33-.35-.15-.46,0-.14.13.2.09.35,0,.15.27-.23.18-.44,0-.26-.09,0,.31-.09.31-1.5.43,1.22.11.07.2-.08.19-.34-.13-.17.4-1.25.53.11.19,1.23.4-.59.32h-.36l1,.37.56-.13,0-.31.13-.47.17-.17.35.48.26-.36.13.24.58-.2-.72.57h-.09l-.06.48,0,0v.07l0,.15-.14-.12,0,0-.4.19,0,.24.23.27,2.34.57-.1-.26,0,0,.07.29.07,0,.14,0-.11.15-.06-.06v0l-.2,1-.07.19,1.2-.47.17-.51.47-.17.09.44,5.57,1.67.41,0-4.72-1.56-.16-.17.23-.14,1.66.11,1.49.39.1.1,1.61.44.82-.3.36-.07,1.4-.85.41.28v.35l.8,1.22.15.13-.25.24-.37.06.78.27,1.2.17.09.07.13,0,7,.25.69.19.14.25-.41,0-.51.35.26.23.25.41v.56l.46-.54.81-.56-.07-.32.14-.24v.69l.24.21.61,0,.51-1,0,0h.07l.14,0-.11.14,0,0,.17.51.85-1,.11.19.13.51.84-.84-.31-.11-.08-.2.63.23v1.17l.41-.39v-.83l.87-.46h.36l.71-.06.11,0,.3-.09,1.59-.14-1.26.95-.19.24,1.7-.84,1.22-.36,2.84.7,4.29,2.15,3.61,2.92.59,1.41-.51.33-.69-.08-.25.17.12.28,2.47,1.29,1.06,3,1.64,8.51.23,3-.24.66,0,.37,0,.57.28,1.16-.17,1,.29.34h.14l.35.05a178.86,178.86,0,0,1-29.21,1.43c-34.07-1.06-67.33-9.93-100.95-15.57-8.4-1.4-17-2.61-25.36-.82-10.81,2.32-19.92,9.43-30.08,13.77-38.35,16.43-81.27-8.2-123-9.19-21.36-.51-48.86,2.11-57.78-17.29-12.68,21.65-40.16,40.1-61.84,27.44-11.37-6.65-17.4-20.05-28.53-27.11-8.48-5.36-18.89-6.44-28.87-7.36-75.57-7-77.26-15.6-111.67-10.41-40.73,6.17-42.37,20.89-75.91,19.23a114.91,114.91,0,0,1-13.48-1.49,114.91,114.91,0,0,1-13.48,1.49c-25.92,1.28-32.79-7.22-53.38-14l1.52-7.94,1.07-3,2.43-1.28.12-.29-.24-.17-.68.09-.51-.32.59-1.43,3.56-2.91,4.24-2.14,2.82-.72,1.21.36,1.68.84-.18-.23-1.25-1-.2-.07.3-.14-.1-.14.16-.12.3.09-.36.17-.1.21,2.68.24h.34l.88.45v.83l.41.39V843.3l.61-.23-.07.2-.3.13.82.82.13-.5.11-.2.84,1,.17-.51,0,0-.11-.14.21,0,0,0,.51,1,.6,0,.24-.21,0-.15V844l.13.24-.07.31.8.56.48.54,0-.56.24-.39.25-.25-.49-.35-.41.06.14-.26.67-.2,6.89-.24,1.41-.21,1.21-.41,1.48.15,1-.27,1,.06,5.52-1.67.07-.44.47.17.17.51,1.2.48-.08-.2-.21-1.06-.06.06-.1-.15.14,0h.07l2.31-.56.22-.28,0-.24-.38-.19,0,.05-.14.1,0-.15v0l-.06-.49h-.08l-.71-.56.57.19.12-.23.26.35.35-.48.16.17.13.48,0,.3.56.13,1-.35-.35,0-.59-.32,1.22-.39.12-.2-1.24-.53-.17-.4-.34.14-.08-.2.08-.2,1.19-.11-1.49-.41-.08-.31,0-.32-.26.08-.44.07-.21-.2.13-.26.35,0,.2-.08-.14-.14-.45,0L942,835l-.07.32-.18-.33-.22,0-.78.84.07.07-.15.1,0-.14v-.06l-.57-.3-1,.29.68.24.26.14-.31.1-.39.28.21,0,.25.16-.33.54-.14-.5-.24.23-.13.28-.1-.31-.45,0-.32.37-.09.19,0,.58-.69.21-.71.47-.89-.44-.39.18-.1-.49.49-.48-.47-.7h.44l.34.14-.14-.61-.44,0,0-.38.38-.17-.13-.33-.12-.66-.34.38h-.12l-.66.45-.44-.27v-.14l.31-.1.08-.18-.35,0,0-.46-.3.09,0,.33-.24.3-.41-.43,0-.56.23-.4,1,.42-.11-.34.17-.35.28.11.08.31.16-.21.1-.2,3.06-.44.67-.31,1.2,0,.71,1,.16-.23.11-.34-.31-.09,0,0-.14.1,0-.15V833l.5-.2,1.08.84h.51l.4.55.76-.11.92.31.22-.18-.13-.24-.33,0,.29-.24.7,0,.2-.47-.48-.72h-.62l-.4-.66-.1-.24.21,0,.66.09,1.2-.09.51.16.45.32.47-.24.09-.2.15.2.2-.08,1-.06,0,.31-.24-.11-.41.15.26.26.83.51.31.09,0-.36-.44-.86.68.17.54-.1.76.11-.11.21.62.23.32-.09.31-.38.45,0-2.35-1.34-.29-.62-.08-.37-1.84-1-.64.19.15-.34-1-1.05-.19.09-.81.16-.2-.36-.16-.07-.75-.13-.52-.17.52.73-.62,0-.66-.14-.41,0-.25.21.23.37-.77.3.06.06-.16.1,0-.14v-.08l0,0,.09-.27h-1l-.64.43-.17-.38-.38-.29-.24.31-.35.15-.53-.4-.47.13L938,828l-.77-.15.05,0-.14.1,0-.15v0l-1-.93-1-.57,0-.21.08-.19,1,0,.13-.14-.2-.09-.24-.17-.4-1-1,0-.3-.13-.13-.58-.24-.26-1.76-.34.71-.25-.18-.4-.57,0-.61.1-.87-.45-.34.38-.76.37-.51.14-.5-.69-.45.34-.22.38.17.07,0,.14-.14-.17-1-.24-.47-.26-.66.06h-.16l-.35,0-.73-.8-.76,0-.3-.07v-.31l0-.3-1.72-.24-1-.57-.22-.06-.08.32-.19-.3-.22.13-.51.58-.66-.33-.34-.08-.56.34h-.43l-.61-.47-.13-.29-.11.32-.43.62-.29-.23-.41-.08-.56-.4-.44-.08.29-.34,0-.3-.28-.12.18-.11H915l.46-.3-.39-.17-1-.24-.35.21.2-.65.15.2.49-.49-.25-.46-1.46-.17,0,0-.14.1,0-.14v-.06l-.62-.88-1-.17-.55-.18,0-.16,1.08-.3.27-.15-.1-.3-.31-.09.28-.18.1-.4-.25.1-.43-.14-.14-.48-.1.44-.07.2-.9.15-2.14-.58v.34l-.75.47-.14-.17-.33-.23-.34-.4-.07.09-.44-.1-.6.23-.42-.23-.77.28.06.06-.14.11,0-.14v-.07l-.08-.23-1,.36.13.33h-.46l-1.12.48.57.48.13.15-.2.08-1-.23-.31.23-.47-.21-.65,0-.2-.15.2-.09.44-.08,0-.22-1.53-.6-.38-.42-.33.34-.14-.14-.75-.42-.12.08,0-.14,0-.06-.61-.37h-.23v-.21l.71-.61-.78,0-.52.25-.11-.16-.53,0-.13.18-.12-.16,0-.06-.38-.44-.3.58-1.26.33-.18-.24-.47.57-.23,0-.2-.34-.31.34-.24,0h-1.39l-.75-.23-.2-.11-.62.23-.17-.63-.09-.08H886l-1.06.57-.26,0-1-.63-.16-.93-.29-.5-.25-.27,0,0-.34-.15.44,0,.73-.13.71-.24-.93-.24-1,.24-.25-.17.42-.54h1.59l.13-.28-.85-.46-.31-.47-.43-.14-.58,0-.72-.5-.43.28-.25-.11v-.48l-.56.07-.39.28-.08.33-.18-.33-.4-.27-.75.61-.34.07-.17-.29-.17-.17-.07.21-.16.34H877l-.3-.14-1.36.09-.85.83-.42-.12-.19.1-.26.28-1.53,0-.52.1-.33.34-.19.27-.05-.35-.12-.31-.11.3-.4-.06-.42.7-.14-.26-.22-.19-1-.12-.24.36.17.07,0,.14-.15-.17-.38-.28-.31.09.14.33-1.73.06-.32.1-1.1.12-.08.09-2.43.88-.07.2-.17-.2-2.21.49-.55.69h-.58l-.39-.19-.18.37-.38.41-.39-.43-1-.1-.1.45-.61-.06-.54,0,.15.07,0,.14-.15-.17-1.91-.41-.26.14-.17.16-.89.07-.06.41.12.26h-.33l-.42-.4-.32,0,0,.31.31.36.07.39-.24-.12-.27-.25-.33-.22-.05.34-.59.55-.65-.14-.69.15-.2.09.11.17.58.34,0,.43.18.15.94.13.66-.17.09-.44.08-.2h.53l.29.08,0,.31-.64.17.27.15.66.48-.12,1.17.32-.07.29-.15.46-.56-.51-.09,0,0-.15.1,0-.14V817l1.21-.69.08.31v1.08l-.75.55-.37.84-.42,0,.15.41.13.25-.33,0-.37-.18-1,.22-.14.13.18.1.47.41-.68.06-.24-.3-.69-.28-.56.35-.45-.35-.62,0-.06-.21-.11-.19-.43.43-.43.05-.17.17-1.12.08-.58-.25-.37-.69-.31,0,0,.15.35.46-.44.38-.18.37-.32-.33h-.24l-.59.58-.58.11-.26-.1v-.48l-.48,0-.19.15,0,.29-1.15.45-1-.13-.64.43-.33.15.33.09,0,.21-1.07,0-.14.17.07.48-.48-.15-.78.05-.08.67-.27.06-.74,0-.91.31-.44.26.57.34h.13l.07-.18.14,0-.17.14-.37.41-1.59.3.09.2.38.17-1.43.59.91-.15.76,0-.45.33-.41-.17-.07.52-.19.44-.34,0-1-.32-1.08,0-1,.37,2.14.55.85.5H832l.38.19.13.28.33-.34.45-.59.11.29,0,.33.67-.3.55.14.43.56.12,1.36.37-1.43.17-.23,1.14-.47.29.06-.18.64.07.48.65.47.07.2,1,.21-.14-.77v-.11l-.44.14,0-.21,1-.4.19.47.46-.24.5-.12.3.1,2.07-.22.48-.49.65-.42,2-.53.13.23,1,.21.7.76.07-.19.15,0-.17.15.71.48h-1l-.17.24.16.07,0,.14-.14-.17-.35-.06-.33-.15.31.64-.38.17-.07.29.44,0-.66.47-.36.36.44.09,1.43-.23h0l-.78.6-.55.11-.12.16.2.08,1.21-.24.24-.24.08-.2.16.2.47-.17v-.6l.23-.17.24.16.13.3.11-.3.48-.17.07-.2.17.2h.25l.38-.78.75-.5.92-.41.81.48.18.25,1.07.61,1.16-.13h.11l2.9,1.69,1.24,1,1.93.3h1.45l2.56,1.87-.18.4h-.48l-.24.88-.2.38-.24.07-1.52-.37-.18.1.15.17.6.06.31.15v.25l-.33.58.07.31.16-.21.82-.43.51.43.61-.2.68.47.27.08.41-.17-.89-.51.73-.13,1.08.54.55-.07v-.24h-.35l-.28-.75.12-.19,2.06.32,2.75-.53,1.23.45.22.32.82.38.08-.07.91.35v.4l-.41.17-2.4,0-.33-.11-.35.32-.84.13-.58,0-.2.16.66.17-.26.14-1.13.24-.51-.24-.19.47-2.55.72-.23,0-.65.15,0,.53-.23.38L864,843.55l-.36-.15-.21-.27-1.33-.56-.3.07-.28.71.24.16,1.17-.33.24.39-.41.11-.59.61.05.06-.14.1,0-.15v-.07l0,0,.24-.31.06-.33-1.09.13-2.43-1,.08-.38.59.2.23.38.17.1.07-.2v-.48l-.82-1.19-.13.17-.51.15-.44-.56.14.76v.4l-.34-.27-1-.41-.17.24-.29-.24-.47-.17,0-2-.48.26-.21.47.15.07,0,.14-.14-.16-.71,0-.54.45h-.89l.17.23.78.38-.79.34-.46,0-.18.23,1.22.77.45.42v-.47l.15-.21,1.3.57.14,0,.07-.2-.19-.37.72-.14,1.13.17-.22.37.46.18-.46.3v.36l.25,0,.3-.1,1.37,1.53.23.37.92.39,1.45-.49h.25l-.07.31-.12.31.39.29-.17.15-.27-.29h-.22l-.49.3v.35h.25l.22,0,0,.22-.54.11-.14.28.3,0,.24.1.41-.17,0-.47.28-.24.43-.15.22-.75-.11-.3,0-.43,1.83.27.89-.24,1.38.16v-.24l-.33-.13h-.74l.68-.35h.36l.9.37.36.59-.09.21-.54.25.71.48.24.52-.59.44-.07.16.21.07.94-.24.17-.75-.05,0-.09-.14.14,0h.07l0,0,.5.09.08-.2.16.2,1.43.24.64-.18,1.23.43,1.43.2,3.87,1.22-.08-.2-2.61-1.17-1-.27-1.55-.17-1.9-.58-.19-.1.12-.16.57-.47-1.36,0,0-.48.2-.13-.18-.12-.56.26-.3.21-.39-.75.35,0,.34-.33-.37-.18-.08-.19-.2.09-.28.75-.7-.38-1.26-.09-1.09.22-.85-.32.07-.65.18-.4,1.17-1.43,2.24-1.15,1.39-.07.25-.07,0,.33-.41.54v1.67l1-1.43-.44-.07.24-.33.2-.08.68-.91,1.22-.54,1.7-.44.3.5-.33,1.14.73-.93.28-.24.2.47.37.22.1-.31v-.23l.17-.41,2.58.47,2.27,1.45.2.08-.2.16v.72l.48.71h.11l1.24,1-.12.18-.44.07-1.27.41-.24.36-.83.14-.61.69.64.2,1.35-.42.41.22,1,1,.44.08,1.8,1.38,1.77,2,.75,2.07.73,4-.16.25-.3-.11-1.2-2.71-.16-.27-1.15-.69-.31.05v.3l1.49,1.29-.1.71,1.56,2.68.21,2.08.41,1,.07.45a145.31,145.31,0,0,0-16.79-3.5c-24.68-3.71-32.52-.38-62.87,4.41l-5.19-24-.21-.36L798,823.28l-7.57-12.4v-3.53l2.34-2.9,6.48-4.78,4.1-1.29,1.87-.07.16-.36-1.55-1.83-.08-1L806.1,792l3.73-3.17L824,781.12l3.61.1,2,.64-1.56-1.29-.15-.9,2.71-1.75-2,.31-.54.32-.36,0,0-.34.29-.31,4.52-3.52,2.08.14,1.11-.38.75-1.92.28-.29.26.48.06.4.46.29.2-.31,0-.81.72-.75.6,0,3.7,5.3-.64-2.63,0-1.31,2.77-.17,1.29-.83,1.39-.25,1.51.25.74-1.17,1.49-.64,1,.66.35-.2.6-.71,1.86,0,.37-.17-.34-.2-.83,0L854,769l.43-.2,5.3.71,1.84,1.19,1.66,3.29.87,2.72.27.5.17-.58,0-1.24,0,.05-.39-2.43-1.49-1.83.51-.61.74,0-.51-.57-.76-.36.1-.62-.12-.61-.5-.06.38-.46,1.79-1,.75.07,3.22,1.22,0-.17-.84-1.75,2.38.11.88-.7-.55-1,.15-.47,5.48,0,1.37.17,4.43-.19,3-2,2.34-1-4.51,1.49-.68.34,0-1,.71-1.59-1.74.3-.48.81-1,.45-.25.77-.23.42-1,.07-.91.54-3.12-1,1.24-.24.49-.52-.36-.54-.46-.33.57-.44,2.58,0V760l-1.15-.14-.27-.5-.22-2.25-.76-.29.3-.69,1.48-1.18-.17-.72-1.41.62L874.48,756l-.35,0-.17-.46.07-.71-.92,0-.17.71.37,1-.33.77-3.9-1.32L868,756l.41-1.08,1.12-.35,3.08-1.43.54-.63,1.63.09.49-.06.77-2.2.51-1.09,3.57.16.34-.36.14-.71,1-.7.53-1v-.81l1.27-1,2.47-.79,3.73-1.69,6,.73.39-1-1-1.19-.13-1.35-.25-.29-.88.78-.71.06-.14-.71.82-1.6-.08-.37-.33.1-.13.16-1.12,1h-1.8l-.08-.51-.41-.33-.47.66-.27.54-.58-1.24-.29-.28-.18.34-.1.81-.64,0-.47-.07-.88.23-2.7-.68-.47.32-2.17.34-1.21.05,0-.46-.48-.75,1-1.59.58-.44.12.76.72.19,1.48-.9-.36-.81.41-1.39-.45-.34,3.15-2.14-.67-1.46-.69-.44-.46-.07-.64-1.68-.27-1.84L882,727l.1.61-.51,1.52-.91-.74h-.37l0,.48-.27.57-1.7.85-.57.07-.41.63-.27-.16.37-.78-.42-1-1.11,1.39,0,.23L874,732l-1.11.15-.45,1.27.06-.06,0,.4-.65.55-.37-.07-1.94-.12-.71-.15,0-.34.68.25,0-2.15-3,.75-.32,0-.09-1,.53-.93,1.56-.1-2.68-.88-3.07,1.71-1.71-1.2-1.16-.23-4.23.24-1.3.36,0,.05-1.27-.86L851,728l-1,.31-1.77-3.83-.6-.44.09.75-.2.51-.44-.31-.61-.14.17,1.23,1.59,1.28.21.34-.51,0-2.86.68-.15.14-1.07-.1-.57-.85-.62-.06-1,1.71.33.35-.71,1L841,731l.14,2.45-.55.45v-.71l-.68-1.49-.38-2.51-.64-.24-.61,1.85-.89,1.12-1.74-.36v-.3l1.9-1.33.23-.27.22-1-.86.31-.92.16,1.71-1.08.24.48.15-.14-.23-2.68-1.18-.17-.14.68-.11.34-1.35-.56-2,.51-1.31-.24-.08.53-.28.42-.4-.42-.1-.56-.41,0-.44,1.2-1.05-.2-.2-1-.18-.57-.36.49-1,1.71-.31.23-.1-.38.38-1.17-.83-.85-1.1.26-.14.85-.48-.64-.48-.88-.73-.07.2.64.07.38-1.13.55-.45.66L821,727l-1.22.07-.88,1.23-3-1.84-.14-.47-.39.4-.5.83.52,1.19-.93.36-.33.88.27.86-1-.1-.27-.49-.24.46,0,1-.15.37-.28-.21-1-2.16-1.2,1.66-1.75.1-.26.4-.69-.68.43-.25.33-.48.79-.45.21-1.62-.24-.27-.27.2-.1.81-.42.61-.67-.57-.84-1-.8-.57-.37,0-.07.35.41.89-1-.44-.49-.36-.29.61,0-.05,1.58,2.26.52.3.06.45-1.55.91-1-.54-.75.32,0,.06.95,1.5-1.17.13-1.48.91h0l-.84,2.44-1.27-.4.1.61-.71,1.11-1,0-1.36,1.47-.74-1,.8-.57.59.09.4-1.75,1.55-.76.56-2.54.3-.77-.92-.21-.6.11-.18-.32.45-1.73.88-.77,1.11.31-.37-1.06-2.09-.71-.11,1-.59,1.66,0,.92-.58,2.34-.3.31-1.55-1.3-.79-.36-.65.77-1.72.84-.67-2.1.29-1.31-1.52-.19-.72.08-.34.5.93.79-2.89-.81-.47.41-2.07-.49h-.39l-.25-.45.4-1.36.55-.61.7-.24,1.12-1.83,0-.32.31-1.6-.08-.37-.33.2-.86,1.63L783,728.36l-3.35-1.47-.3-.44-.45-.46-1.55-.11-.39.06,0,.28-.09,1.57.24,1,.65.4-1.33-.13-.63.29-.47.45-.75-.62-.81-.16-.51-.18-.07-1.92,2-3.87-1.94,2.47-.92,1.56-1.36.51-.33-.78-.36-.44-.39,0-.14.29.32.52,0,.57-.51-.21-.64-.53.14,1.29-.89-.34-.85.43-.31.24-.48.71-.57-1.12,1.57-1.09.06,0,.11-1.44-.12-.37-.3.25-1.12.29L763.76,727l1.8-.14.11.73-.52,0-1.59-.1-.65.37-1.95.74-.56-.67.61-.11,1-.37-.75-.52-.91-.2-2.82.62-.47.94.28.44-.42.58-.3-.63-1.7-2.07-1.23.71-.39.29-.2-.36-.83-.66-1.65.32-1.68.67-.7.79,4.68,1,.33.64h.41l.55.15-.38.4-.26.54.74,0-.27.61-.33.37h-.46l-1.11.88-.45-.06-3-.9.64.72-.53.72-.81-.1-.49-.81-1.32.06-.54-.84-.65.13-.85.61-.24,1.9-.44-.41.31-2.71,0-.76-1.25,1.41-.94,0-1.64-2.28-.44-.31-.44,1.6h-.71l-.4,1.12-3.3,1.11-1.26.81.21.82-.31.38-1-.28-.36,0L733.3,737l.6-.38,1,0,0,.8-1.53.31-.19,1-.61-.28-.55.42-.3.43-.4-.45-.12-1.83-.57-1.05-.43-.41-.05,1.24-1.8.13-.5-.74-1-.35-1.45.18-1.81-1.3-1.18.4,0,.51.36-.16.3-.28.53,1.49-.92.18-4.36-1.08.23.51.31.5-2.52.08-1.19.34-.7.47-1.22-.37-1.49-1.07-.45,0,0,.4,1.5,1.77-.28.5-.41-.26-.44-.59-.4.76-.54.76-.51.39.71.19,1.79-.31.57.53-.4.88,0,0-.07,1.48,1.67.21-.58.25-1.09-.44-.14.15-.6.17-.9-.53-1.48-.44-3.32-.11-1.14-.29.55.9.25.68.46.22.58-.46,2.93.68.09.3-.57.18-.4,2.07,2.06.82.68-.28,2.71.85.21.31-.15.11-2.63.22-2.8,1.36.22.57.37.68-.67.18-.7-.41-.54-.18-.2.92.71.28-.19,1,.43,1.47-.75-.39-.87.46-3,1.06-.24.4.31.75-1.06,1.12.41,1.37,0,.39-.48-.19-.64-1.52-.58-.73-1.94-.39-.52.08.32.73.72,0,.53.71-.13.74.53,0,.42.41-.47.21-.54-.19-.68.62-4,.5.44.39,2.82,1.55.17.55-.57,0-1.22,1,0,1,.63.55.49.25-.44.32,0,.62,1.71,1.22,1.74-1.33.18-.09h0L704,768l1,.66-1.34.29-.4,0-.24.22.34.41,1-.08,6.58.89,2.42-.07,1.18-.28-.06,0,2.06.43.44.54.06,1.1.59,0,7.49-1.58,2.61.31,1.69-.15,8-3.08,1.83.13-.74,1.45.07.32.39,0,.51-.28.37-.67,2.25-1.29,2.27.6.11.49-1.54-.21-1.54.47.39,1.22-.14.92-.74,0-.55-.27-.47.47v.82L738,773.27l-3.86-.81-1.37-.64-.46.18-.27,1.75.42.39,1.06.19.57.37,1.67,0,.67.85-.33.21-.72-.73-1.27,0,.34,2.87v.35l.35,0,1-1.25,1.21-.27,3.14-2.24.36.17,4.92,1,.62-.15,2.85-1.12.41.25-1.64,2.79.58.12,1.91-1.72,3.53-2.27.93.27,2.42,4.53,2.44,1.23.16.48-1.37.38V780l-.79-1.11-1.5-.65-1.17-1.44-1.61-.7-.61.47.57.35,1.09,1.11,1.29,2.34.28,1.43-.5.34-.07.87.74.44,2.41-.51,6.52,1.74.25.3-.29.14-1.42.17-.51.13.54.49,1,0,2.24.32.35.19-.28.21-6.44-.33-10.6-1.75L744,787.46l-.07.18.3.2,9.4-2,6.32,2.75.33,1.55.08.89,1.82-.22,2.24,3-.09.54-.54.07-1.78-.9-2-.73-1.57-1-1.28-.23.79.82,4.36,3.18,0,.66-.28.8,2.18,0,2.74-1.81,1.7.61,1.33,2.74,8.62,7.33L790,822.11l5.26,14L800,863.23c-10.53,1.51-23.46,3.11-39.86,4.64-10,.92-20.39,2-28.87,7.36-11.13,7.06-17.16,20.46-28.53,27.11-21.68,12.66-49.16-5.79-61.84-27.44-8.92,19.4-36.42,16.78-57.78,17.29-41.68,1-84.61,25.62-122.95,9.19C450,897,440.89,889.93,430.08,887.61c-8.33-1.79-17-.58-25.36.82-33.62,5.64-66.88,14.51-101,15.57q-3.19.11-6.41.08l0-.11-.1-.13,0-3.29.77-.65.92-1.32-.52.1-1,1-.57.34-.17-.61.79-5.32.5-1.2.26-2.48,1.85-3.18-.11-.86,1.76-1.52,0-.37-.36-.07-1.37.84-.18.31-1.45,3.23-.35.13-.18-.31.86-4.75.89-2.47,2.1-2.37,2.16-1.63.51-.11,1.15-1.14.48-.27,1.6.5.75-.23-.72-.83-1-.17-.28-.42-1.52-.49-.52-.09-.13-.22,1.46-1.19h.14l.57-.86V871l-.24-.18.24-.1,2.71-1.72,3.06-.56.2.48v.28l.12.37.44-.27.23-.55.34.28.85,1.12-.38-1.39.35-.58,2,.54,1.45.62.82,1.1.23.1.28.38-.51.08,1.13,1.71v-2l-.49-.65,0-.37.29.07,1.66.09,2.68,1.37,1.38,1.7.21.47.08.78-1,.35-1.31-.24-1.5.1-.82.46-.34-.9-.23-.11-.1.24-.45.21.41.39.41,0-.47.88-.35-.24-.65-.3-.22.14.23.14,0,.58h-1.6l.68.54.14.2-.24.11-2.27.69-1.83.2-1.23.33-3.11,1.39-.11.23,4.59-1.44,1.72-.24,1.47-.52.75.21,1.7-.28.19-.24.1.24.59-.1,0,0h.09l.17,0-.13.17,0,0,.2.9,1.12.28.24-.07-.07-.2-.72-.51.28-.64.86-.56-.65-.3-.1-.24.43-.71,1.08-.46h.42l.79.43h-.86l-.38.15v.29l1.61-.19,1.08.28,2.18-.31-.07.51-.12.36.28.88.5.18.34.3v.55l.48.21.3-.12.34-.05-.16-.32-.65-.14,0-.24.27-.08.3,0V877l-.58-.35-.27,0-.33.36-.18-.19.47-.34-.16-.36-.08-.39.29,0,1.73.57,1.1-.44.27-.46,1.63-1.81.35.11.31,0v-.43l-.56-.35.56-.21-.28-.44,1.36-.22.85.19-.23.44.08.24.18-.06,1.55-.68.18.26V873l.54-.51,1.44-.91-.21-.27-.54,0-.93-.41.9-.44.22-.27-1.05,0-.65-.53-.85,0-.17.2-.05-.17.19-.08-.24-.56-.59-.3,0,2.36-.54.2-.36.28-.21-.28-1.22.49-.4.32,0-.47.17-.91-.53.67-.61-.17-.14-.22-1,1.42V873l.1.24.2-.11.27-.46.69-.24.1.46-2.89,1.24-1.29-.15.07.38.28.38,0,0v.08l.05.17-.17-.12.05-.07-.69-.72-.51-.13.3-.47,1.4.4.28-.2-.32-.84-.37-.08-1.58.67-.25.31-.43.2-2.43-3.22,0-.61-.77-.2h-.27l-3.05-.86-.22-.55-.6.28-1.35-.28-.29-.17.76-.21-.24-.19-.68,0-1-.16-.41-.38-.39.13-2.85,0-.5-.2v-.47l1.08-.42.1.08,1-.47.25-.36,1.46-.54,3.28.62,2.45-.37.14.21-.34.91h-.42v.29l.66.08,1.28-.64.88.16-1.05.59.47.22L324,867l.81-.55.74.24.59-.52,1,.52.19.26.08-.39-.38-.69,0-.28.38-.17.71-.08.19-.19L328,865l-1.8.46-.29-.09-.22-.45-.3-1.05h-.57l-.21-.47,3-2.24,1.73,0,2.3-.36,1.49-1.19,3.43-2h.14l1.39.14,1.26-.72.22-.29,1-.58,1.09.5.9.58.46.93h.29l.18-.24.1.24.57.22.14.35.16-.35.28-.2.26.21,0,.7.56.21.2-.24.08.24.28.28,1.44.29.24-.1-.13-.17-.65-.15-.92-.72,1.74.27.52-.08-.44-.46-.77-.55.52,0-.07-.36-.47-.21.37-.75-.38.18-.41.07-.17.2-.06-.17.2-.08-.2-.29h-1.25l.84-.58-.2-.15.17-.06.08.21L347,855l1.23-.26.15-.27,2.42.64.77.5.56.56,2.47.29.36-.12.59.13.57.29.21-.56,1.21.49,0,.24-.54-.17v.12l-.16.93,1.21-.26.08-.24.78-.55.09-.59-.21-.75.35-.07,1.33.56.22.26.44,1.72.15-1.63.5-.64.65-.17.79.34,0-.38.13-.36.54.71.39.41.15-.34.45-.22.27,0,1-.58,2.55-.66-1.13-.44h-1.29l-1.23.4-.42-.06-.21-.52-.08-.63-.49.2-.53-.38.9-.05,1.08.18-1.7-.71.45-.2.1-.23-1.88-.35-.44-.5-.2-.17.17-.06.08.23h.15l.68-.41-.53-.28L361,850l-.87,0-.33-.07-.1-.78-.92-.07-.58.19.08-.58-.15-.2-1.28,0,0-.24.38-.12-.38-.18-.77-.5-1.23.15-1.36-.54,0-.34-.22-.19h-.55v.57l-.32.12-.69-.12-.71-.7h-.28l-.39.4-.21-.44-.52-.46.42-.53.06-.2-.39,0-.42.83-.7.28-1.34-.09L347,846l-.5-.09-.49-.5-.15.22-.07.25-.75,0-.52.42-.67-.42-.84.33-.26.36-.83-.07.56-.48.22-.13-.17-.15-1.17-.27-.44.23-.39,0,.15-.3.19-.51-.51,0-.44-1-.89-.67v-1.27l.1-.37,1.43.82,0,0v.09l0,.17-.17-.13.05,0-.6.11.55.65.34.2.39.07L341,842l.79-.58.32-.16-.76-.21,0-.37.35-.1.62,0,.12.22.08.53.8.21,1.12-.15.21-.19.06-.5.68-.41.14-.19-.23-.12-.83-.17-.78.16-.69-.65-.07-.4-.39.25-.32.3-.29.14.08-.48.39-.41-.05-.35-.35-.06-.53.48h-.37l.12-.31-.06-.48-1.06-.09-.21-.18-.29-.17-2.28.49-.17.2,0-.18.18-.07-.64,0-.72.07-.13-.54-1.15.11-.46.51-.46-.48-.21-.44-.47.22-.69,0-.64-.81-2.64-.59-.2.24-.08-.24-2.9-1-.09-.1-1.3-.14-.39-.13-2.06-.07.17-.39-.38-.1-.45.32-.17.2-.05-.17.22-.08-.3-.42-1.14.15-.27.22-.17.3-.49-.82-.47.07-.16-.35-.12.36-.07.4-.22-.31-.38-.41-.62-.12-1.82.06-.31-.34-.24-.11-.5.14-1-1-1.61-.13-.36.19-.63,0-.19-.41-.08-.25-.2.21-.2.34-.41-.07-.9-.72-.48.31-.21.38-.09-.4-.46-.32-.67-.09v.57l-.3.14-.49-.34-.87.6-.69,0-.5.18-.38.56-1,.53.15.34,1.89,0,.51.63-.3.2-1.15-.29-1.12.3.85.28.87.14.54,0-.41.15-.07,0-.29.33-.35.58-.19,1.12-1.25.73-.29,0-1.25-.68-2,0-.09.08-.22.74-.74-.26-.22.13-.9.28-1.95,0-.36-.41-.24.39-.28,0-.54-.68-.23.28-1.5-.37-.34-.69-.47.52,0,.06-.14.18-.16-.2-.61,0-.15.18-.61-.28h-.94l.84.72v.26h-.27l-.71.46v0l0,.17-.14-.09-.9.51-.15.17-.4-.41-.47.49-1.8.72,0,.25.52.11.25.1-.26.18-.77,0-.56.25-.36-.27-1.16.27-.23-.1.14-.17.69-.56-1.32-.59h-.56l.16-.4-1.21-.41-.09.27h0v.07l0,.17-.17-.11.07-.07-.92-.34-.5.27-.72-.27-.51.11-.1-.1-.38.47-.4.27-.17.2-.89-.54,0-.41-2.52.69-1.08-.2-.09-.22-.11-.53-.17.57-.51.17-.3-.11.12.46.34.22-.37.11-.12.35.32.19,1.29.35,0,.19-.68.21-1.17.21-.75,1v.07l.05.17-.19-.13,0,0-1.74.2-.27.55.55.58.2-.22.24.76-.44-.25-1.15.28-.46.21.54.36h.56l.23.13-.36.15v.34l.34.4-.52.1-.66.48-.49.1-.36.27-.51-.74-.11-.36-.16.32-.72.55-.52,0-.67-.41-.4.11-.78.37-.62-.68-.27-.16-.2.37-.11-.38-.26.06-1.19.68-2,.28.06.37,0,.37-.37.08-.9,0-.86,1-.42,0h-.19l-.79-.08-.57.32-1.23.29-.17.19-.06-.18.2-.07-.24-.46-.55-.41-.6.84-.59-.18-.92-.44-.4-.44-1,.52-.71-.11-.69,0-.2.48.84.3-2.1.4-.28.31-.16.68-.36.16-1.2,0-.45,1.2-.29.21-.24.11.16.16,1.12.05.11.22-.08.25-1.2.67-1.13,1.12v.06l0,.17-.17-.13,0,0-.91.19-.65-.07-.56-.14-.62.47-.43-.19-.28-.35-.47.34-.2.45-.75-.51h-1.13l.08.33.05,0v.08l0,.17-.17-.12.07-.08-.94-.34.27-.44-.29-.25-.5,0-.77.17h-.73l.61-.85-.61.21-.9.14-.2.07-.22.43-1-.19-.24-.1L227,855.78l.19.39-.77-.24-2.18,1.15-.1.44-.34.75L221,859.84l.54.08.38.45.36.1.75-.27-.13-.26.89-.12.66.12.8-.21-.52,1v.41l.37-.09,1-.62.3-.3L226,860l-.29.12,0-.36,1.15.07.24.1.19-.25.1.25.56.28.53-.37.61-.2,1.43.12.77-.12.26,0-.11.3-.48.78-.74,0-.57.85.23.56.84,0,.34.28-.38,0-.16.3.25.22,1.11-.38.91.13.47-.65.61,0,1.27-1,.58.24,0,0v.09l0,.17-.17-.13.05,0-.36.1.12.39.19.27.85-1.12h1.42l.8.37,3.64.52.11.23.19.26.11-.37.34-.15.19.44-.13.4,1.19-.49.26.45.07.69-.5.5-.28-.35-.06-.39-.35-.11,0,.55-.41,0,.1.22.37.1v.19l-.53.31-.79-.54H242l-.4-.45-.14.79-.16.38.46.22,0,.44-.53.05-.17.73.4-.16.53,0-.56.84.58.57-.12.65-.17.2-.05-.18.2-.08-.44-.22-1.06.52-.85-.57-.82-.24,0-.68-.11-.22-.38-.44-.54,0-.13.37-.14-.33-.28-.27-.17.6-.4-.65.28-.19.27,0-.47-.32-.35-.12.28-.17.83-.28-1.2-.35-.66.35v.09l0,.17-.17-.13.09-.09-.94-1-.26-.06-.21.4-.1-.38-.41-.2-.54.06-.17.15.23.12.42,0,.16.32-.24.22-.54-.07-.3-.1,0,.37-.1.37-1.77.51,1.43.13.09.24-.1.23-.4-.17-.21.48-1.46.64.14.22,1.43.47-.68.38h-.42l1.14.44.66-.15,0-.36.16-.58.18-.2.43.58.3-.42.15.27.68-.23-.85.67h-.11l-.06.58,0,0v.08l0,.17-.17-.12,0,0-.46.21,0,.29.25.32,2.75.67h.09l.17,0-.13.17-.07-.07-.24,1.26-.1.22,1.42-.56.21-.6.55-.21.09.52,6.56,2,1.22-.06,1.14.33,1.76-.2,1.46.48,1.67.26,8.18.29.81.23.16.3-.49-.06-.58.43.29.28.29.48v.66l.57-.66.95-.63-.09-.39.16-.3v.67l0,.16.28.25.71,0,.61-1.24,0,0h.07l.17,0-.12.18,0,0,.2.61,1-1.14.13.23.16.6,1-1-.35-.14-.09-.25.74.27V875l.48-.47v-1l1-.55h.43l3.19-.29-1.49,1.14-.21.27,2-1,1.43-.44,3.34.85,5.05,2.55,4.26,3.46.69,1.71-.61.38-.81-.1-.28.2.14.34,2.89,1.53,1.26,3.61,1.95,10.11.25,3.59-.28.78.06.46-.06.68.27,1.1c-30.08-1.1-60.42-9.67-82.1-30.14-5.64-5.33-11.2-11.7-18.84-13s-15.2,3-22.29,6.4C141.92,879.5,113,880.55,84,881.6l.8-4.16,1.06-3,2.44-1.28.11-.3-.24-.17-.68.1-.51-.32.59-1.44,3.56-2.9L95.37,866l2.82-.73,1.21.37,1.69.84-.19-.23-1.24-1,2.68.24h.34l.87.45v.82l.41.4V866l.61-.22-.07.2-.3.12.83.83.12-.5.12-.2.83.95.17-.51,0,0-.11-.14.21,0,0,0,.51,1,.59,0,.24-.21v-.69l.13.24-.07.31.79.55.48.54v-.55l.24-.4.24-.24-.48-.35-.41.05.14-.25.66-.2,6.9-.24,1.4-.21,1.22-.42,1.47.16,1-.27,1,.06,5.51-1.68.07-.43.47.17.17.51,1.21.48-.09-.2-.21-1.06-.06.05-.1-.14.15,0h.07l2.31-.55.21-.28,0-.24-.38-.19,0,0-.14.1,0-.14v0l0-.5h-.09l-.71-.55.57.18.13-.22.25.35.36-.48.15.17.13.48v.3l.55.13,1-.36h-.35l-.58-.33,1.22-.38.11-.2L133,860l-.17-.39-.34.14-.09-.2.09-.2,1.19-.11-1.49-.41-.09-.32,0-.31-.25.07-.44.07-.22-.2.13-.25.36,0,.19-.08-.14-.15-.45,0-.36.17-.07.31-.18-.32-.21,0-.78.84.07.07-.16.1,0-.14v-.06l-.56-.3-1,.28.69.25.25.14-.31.1-.38.28.21,0,.24.15-.33.54-.14-.49-.24.22-.13.29-.1-.32-.45,0-.31.37-.1.18,0,.59-.7.21-.71.47-.89-.44-.38.18-.1-.49.48-.49-.47-.69h.44l.34.14-.14-.61-.44,0,0-.38.38-.18-.12-.32-.13-.67-.34.39H124l-.67.45-.44-.27v-.14l.31-.1.09-.19H123l0-.47-.29.1,0,.33-.24.3-.41-.43,0-.57.23-.39,1,.42-.11-.34.17-.35.28.11.09.31.15-.21.1-.2,3.07-.44.66-.31h1.21l.71.95.15-.22.12-.34-.32-.09.05,0-.14.1,0-.14v-.07h0l.49-.19,1.08.83.51,0,.4.55.76-.11.93.31.21-.19-.13-.24-.32,0,.28-.24h.71l.2-.47-.49-.72-.62,0-.4-.65-.1-.24.22,0,.65.08,1.2-.08.51.15.46.33.47-.24.08-.2.16.2.2-.09,1,0v.31l-.24-.11-.42.15.26.26.84.51.31.08v-.35l-.44-.87.68.17.54-.1.77.12-.12.21.63.23.31-.09.31-.38.46-.06-2.36-1.33-.28-.62-.09-.37-1.84-1-.64.2.16-.34-1-1-.2.09-.81.15-.2-.35-.15-.07-.76-.13-.52-.17.52.72H133l-.65-.14-.41,0-.26.21.23.37-.77.3.06,0-.16.1.05-.14v-.07l0,0,.08-.27h-1l-.64.43-.17-.39-.39-.28-.24.31-.35.14-.53-.39-.46.12-.56.06-.76-.16,0,0-.14.1,0-.14,0,0-1-.94-1-.57-.06-.21.08-.18,1,0,.13-.15-.2-.08-.24-.17-.39-1-1,0-.3-.12-.13-.59-.24-.25-1.76-.34.71-.26-.18-.39-.57,0-.61.1-.86-.46-.34.39-.77.37-.51.14-.5-.7-.45.34-.21.39.17.07,0,.14-.15-.17-1-.24-.46-.26-.67.06-.16,0-.35,0-.72-.79-.77,0-.3-.08v-.31l0-.29-1.71-.25-1-.56-.21-.06-.09.31-.18-.3-.23.13-.51.58-.65-.32-.34-.09-.57.34h-.43l-.61-.47-.12-.28-.12.31-.42.63-.3-.23-.41-.09-.55-.39-.44-.09.28-.34v-.3l-.29-.11.19-.11.46,0,.46-.29-.38-.17-1-.25-.36.22.2-.65.16.19.48-.48-.24-.47-1.46-.17,0,0-.15.1,0-.15v0l-.62-.88-1-.17-.56-.19,0-.15,1.07-.3.27-.16-.1-.29-.31-.09.28-.18.1-.4-.25.1-.43-.14-.14-.49-.1.44-.07.2-.89.16-2.14-.58,0,.34-.75.47-.14-.17-.33-.23-.34-.4-.07.09-.44-.1-.59.22-.43-.22-.76.28,0,.06-.14.11,0-.14v-.07l-.07-.23-1,.36.13.32-.45,0-1.12.48.56.48.13.14-.2.09-1-.23-.31.23-.47-.22h-.65l-.2-.16.2-.08.43-.09,0-.21-1.53-.61-.38-.41-.33.34-.14-.14-.75-.43-.11.09,0-.14,0-.06-.61-.37h-.22V836l.71-.6-.78,0-.53.24-.11-.15-.53,0-.12.17-.13-.15,0-.06L83,835l-.29.58-1.27.33-.18-.24-.47.56-.22,0-.2-.34-.31.34-.25,0-1.39,0-.75-.23-.2-.11-.62.22-.17-.62-.08-.08H74.93l-1.07.56-.25,0-1-.62-.15-.93-.3-.5-.24-.27-.06,0-.34-.14.44,0,.74-.13.71-.24-.94-.24-1,.24-.26-.17.43-.54h1.59l.12-.29-.85-.45-.31-.47-.43-.14h-.58l-.72-.49L70,831l-.25-.11v-.48l-.55.07-.4.28-.07.33-.19-.33-.39-.27-.75.61-.34.07-.17-.3-.17-.17-.08.22-.15.34H66l-.3-.14-1.36.08-.85.84-.41-.13-.2.1-.26.29-1.53,0-.52.1-.33.34-.18.27-.06-.34-.11-.31-.12.3-.39-.06-.43.7-.14-.26-.21-.2-1-.11-.24.35.17.07,0,.15-.14-.17-.38-.29-.32.1.15.33-1.73,0-.33.1-1.09.13-.09.09-2.42.88-.07.19-.17-.19-2.22.49-.55.68-.58,0-.38-.19-.19.37-.38.41-.38-.44-1-.1-.1.46-.61-.06-.54,0,.16.07,0,.14-.14-.17-1.92-.41-.25.14-.17.16-.9.07,0,.41.11.25h-.33l-.42-.39-.31,0,0,.31.31.35.07.4-.24-.13-.27-.24-.32-.23-.06.34-.58.56-.65-.14-.7.15-.2.09.12.17.58.34,0,.42L38,839l.94.13.67-.17.08-.44.09-.2.52,0,.3.09,0,.31-.64.17.27.14.67.48-.13,1.18.33-.07.28-.16.47-.55-.51-.1,0,0-.14.1,0-.14v0l1.21-.69.09.31v1.07l-.76.56-.36.83-.43,0,.16.41.12.26-.32,0-.37-.19-1,.23-.15.13.19.1.47.41-.68,0-.25-.29-.69-.29L38,843l-.46-.36-.62.05-.06-.22-.11-.18-.43.42-.42.06-.17.17-1.12.07L34,842.8l-.37-.69-.31,0,0,.16.35.45-.44.39-.18.37-.31-.33h-.24l-.6.58-.58.11-.26-.1v-.48H30.6l-.18.16,0,.28-1.15.46-1-.13-.64.42-.32.16.32.09,0,.21-1.06,0-.14.17.07.48-.48-.16-.78.06-.09.67-.27.05-.74,0-.9.31-.44.26.56.34h.13l.07-.19.14.05-.17.14-.36.41-1.59.3.08.19.39.17-1.44.6.91-.16.77,0-.46.32-.41-.17-.07.53-.18.44-.34,0-1-.33H18.66l-1,.37,2.14.55.85.5h.21l.39.19.12.28.33-.34.45-.6.12.3,0,.33.67-.3.55.14.43.55.13,1.37.37-1.44.17-.22,1.13-.47.3.06-.19.63.07.49.66.46.07.2,1,.21L27.5,852v-.11l-.44.14,0-.22,1-.39.18.47.47-.25.49-.11.3.1,2.07-.23.48-.48.66-.42,2-.53.13.23,1,.21.69.75.07-.18.16,0-.17.14.71.48H36.29l-.17.25.15.07,0,.14-.15-.17-.35-.06-.33-.15.32.63-.39.17-.07.3.44,0-.65.47-.37.37.44.09,1.43-.23.07-.19.16,0-.17.14h0l-.78.59-.55.12-.11.15.2.09,1.2-.24.24-.24.09-.2.15.2.47-.17,0-.6.22-.17.24.16.13.29.11-.29.49-.17.07-.2.17.2h.24l.38-.78.75-.5.92-.41.81.48.19.24,1.06.61,1.16-.13.12,0,2.89,1.69,1.25,1,1.93.3h1.44l2.57,1.87-.19.4H54l-.24.87-.2.39-.24.07-1.52-.37-.18.1.16.17.59.06.31.15v.24l-.33.58.07.32.16-.22.82-.42.51.42.61-.2.68.47.27.09.41-.17-.89-.51.74-.13,1.08.54.55-.07V860H57l-.28-.76.13-.18,2,.31,2.75-.52,1.24.45.21.31.82.39.09-.07.91.35,0,.4-.41.17-2.4,0-.32-.12-.36.33-.83.13-.58,0-.2.16.65.17-.26.14-1.13.24-.51-.24-.18.47-2.56.72h-.22l-.66.16,0,.53-.22.38-1.82,2.31-.35-.16-.22-.27L51,865.26l-.3.07-.28.71.24.16,1.18-.33.24.38-.41.12-.6.61.06,0-.14.1,0-.14,0-.07,0,0,.24-.31,0-.33-1.09.13-2.42-1.05.07-.38.59.19.23.39.17.1.07-.2V865l-.82-1.2L48,864l-.51.16-.44-.57.14.77,0,.4-.34-.27-1-.41-.17.24-.3-.24-.47-.17v-2l-.48.26-.22.46.16.07,0,.15-.15-.16-.7-.06-.54.46h-.9l.17.23.78.38-.79.34-.45,0-.19.23,1.22.76.45.43,0-.47.14-.21,1.3.56.15,0,.07-.2-.2-.37.72-.14,1.14.17-.23.37.47.18-.47.3v.35h.25l.3-.1,1.38,1.53.22.37.93.38,1.44-.48h.26l-.07.31-.13.31.4.28-.17.16-.27-.3-.23,0-.48.29v.36l.24,0,.23.06,0,.21-.54.12-.14.28.29,0,.25.1.41-.17v-.47l.28-.24.43-.16.23-.75-.12-.3,0-.42,1.83.27.89-.24,1.38.15v-.24l-.33-.13-.73,0,.68-.36h.35l.91.37.35.6-.08.21-.54.24.71.48.24.53-.6.44-.07.15.21.08.94-.25L58,869l0,.05-.1-.15.14,0h.07l0,0,.5.09.08-.2.16.2,1.43.24.64-.19,1.23.44,1.44.2L67.4,871l-.09-.2-2.61-1.18-1.05-.27-1.54-.17-1.9-.58-.2-.1.13-.15.56-.47H59.34l0-.48.19-.13-.18-.11-.55.26-.3.21-.4-.75.36,0,.34-.33-.37-.18-.09-.19-.2.09-.28.75-.69-.39-1.27-.08-1.09.21-.85-.31.07-.65.19-.4L55.36,864l2.24-1.15,1.39-.07.25-.07,0,.32-.41.54v1.68l1-1.44-.43-.07.24-.32.19-.09.69-.9,1.21-.54,1.71-.44.29.49-.32,1.15.72-.93.28-.25.2.47.37.23.1-.31v-.23l.17-.41,2.58.47L70,863.57l.2.09-.2.15v.73l.48.71h.12l1.23,1-.11.19-.44.07-1.28.41-.24.35-.82.15-.61.69.64.2,1.34-.43.41.23,1,1,.44.08,1.8,1.38,1.78,2,.75,2.08.72,4-.15.26-.3-.11L75.52,876l-.15-.27-1.15-.7-.31.06,0,.3,1.49,1.29-.1.71,1.56,2.68.19,1.74c-25,1-49.85,2.61-72.56,12.14q-2.1.88-4.28,1.84V1064h1920V895l-2.28-1C1866.71,872.52,1804.77,891.1,1754.66,867.19ZM1708.14,858l.09.16-.09.08-.08-.15Zm-.47,1.92.34,0-.12.18-.32-.07Zm-.45-.2.09.07-.16.08-.09-.08Zm-2.18-4.11.08.15-.08.09-.09-.16Zm-13.19-7.6.16.08-.09.09-.16-.09Zm-.68.19.08.16-.08.09-.07-.16Zm-1.19-.95.07.08-.07.17-.09-.09Zm-.71.71-.09-.15.09-.09.08.16Zm.35.37-.08.09-.16-.09.09-.08Zm-.32-2,.08.09-.15.07-.09-.07Zm-.51,0,.07.17-.07.07-.09-.15Zm-.06,2.17.21.13-.34.08-.17-.11Zm-7.39-3.4.36.12-.33.15-.31-.07Zm-23.25,30.4,1.15-1-1.15,1.18Zm-.11.22,0,0-.32.19,0-.16Zm-3.32,1,.12.31-.19.08-.07-.18ZM1598,870.22l-.09-.22.44-.07.21.14Zm1.19-.31-.07-.15.07-.08.08.15Zm.62,2.26.14,0,.07.16Zm.23-1,.15-.34.32.69-.3.11Zm.14,1.2h.07l.27.11Zm.68.23-.08-.09.08-.15.09.07ZM918.17,843l.43.12-.33.17-.4-.17Zm-2.84-1.16.16.08-.08.08-.16-.08Zm-2.92-.17.33.13.17-.4.65,0,.26.13-.2.48-.48.21-1-.29Zm-.39-.34.08.15-.08.09-.07-.17Zm-4.81,0h.31v.16l-.34,0Zm-.5.26.14,0-.21.14Zm-1.13.65.06.06.05-.06.71-.24-.75.31,0,0-.14.1,0-.13-.12.06Zm-.48.24.07.08-.07.16-.09-.08ZM903.38,840l.38.34-.18.09-.33-.14Zm-.44.92.07.08-.07.16-.08-.09Zm-1-.23.4.23-.17.34-.52-.47Zm.17,1.06-.15.09-.09-.09.16-.07Zm-1.31-1.54.08.07-.08.15-.09-.08Zm-3.14-.44.63.08V840l-.07.08-.56-.23Zm-.17,1.2.07.19-.14.2-.14-.32Zm.92,1.17.63-.49h.82l.64.17.65,0,2.08.34-5.58,5.1-.44-.1-.11-.29Zm-14.81.93.29.06,0,.15-.32-.18Zm-.13-.22V843l-1.16-1.18Zm-1.32-.76,0-.15,1.14,1.15-.12,0Zm3.47,5.22-.29.13-.57-.36-2.09-1.81-.32-.06-.3-.11.24-.26.67-.41.64-.15,1.64,1.43.38,1.13Zm.46-4.58-.09.09-.15-.15-1.39-2.15.1-.3h.21l1.57,1.08.24.7Zm.91,1.73-.22-.08.13-.32.16.22ZM803.9,796.69l-.28.41-.46.1-.49-.48.45-.33Zm4-17.91L806.62,780l-4.34,2-1.29.31-1.2-.28-.3-1,1-1,3.12-2.34,3.45-1.28,1,1.11Zm.12-6.85.11.33-.35.14-.09-.27ZM797.57,779l1.45-4.48,2.2-2.8,3.27.85.84.91,1.06.37.77,0,1.29,1.29-1.5.43L801.77,778l-3.44,3.25-1,.47-.68-.74Zm-8.84-.8,4.61-1.54.65-.95.11-.6.53-.18.29.28,1.46,1.86-2.83,2.5-4.3.17,0,.09h-2Zm-5.35,5.49,6.14-1.42.28.37-1.13,5.66-1.47.57-3.29-2.14-.87-1.66Zm-5.3-16.45.31.24-.1.3-.31-.21Zm-2,11.83.2-1.59,1-1.53,3.85.31.25.85-4.17,4.26-1.36-1.21ZM787.18,803l-2,1.59-2-.61-4.47-4.32-2.47-3.54,0-.77,1.36-3.23,1.26-.72,1.72.4,2.62,0,.61.56,3.39.49,1.49,1.72.65,1.43Zm2.1-12.35.54-.22,3.77.81.88.56.94.17-.4-.8L792.6,789l-2.21-.13-.83-.87.64-2.53.31-2.37,1-.68,6.11.61,2.88,1,2.19,5.91-6.29,6.4-2.4.51v-.14l-1,.11-.53-.37ZM305.13,871.93l0,.18-1.18,1.16-.14,0ZM303.51,873l1.36-1.15-1.37,1.41Zm-.14.29.07,0-.38.22-.06-.19Zm-2.43,4.48.47-1.35,2-1.7.75.18.78.5.31.3-.37.14-.38.06L302,878.06l-.67.42-.36-.15Zm-1.51-3.31.15.37-.25.1-.09-.23ZM277.78,873l-.09-.19.09-.09.08.19Zm3.64-1.36.2.08-.1.1-.19-.1Zm5.74,6.46-.51.12L280,872.14l2.48-.41.77,0,.76-.19,1,0,.74.57,1.56,5.57ZM89.87,860.57l1.45-.81,11.27-4,1.32-.8,1.23.55.23.74-.55,1.06L102.16,859l-3,.39-.79.35-1.25.75-1.3,1.18-.46.69-.61-.22-1.74.2-1.26.17-.14.1,0-.09h-.1l.12-.14,0,.06.05-.06-.53-.21H89.52l-.37-.23Zm1.18,3.84-.16.09-.08-.09.15-.07Zm-3.7.38.62-.48h.82l.64.17.65-.05,2.09.34-5.59,5.11-.44-.1-.11-.3Zm-11.43,2.33-.21-.09.12-.31.16.21Zm7,8.15-.21,1.33-1.41,5.09v.06l-.14.3-.11-.34-1.66-5.19-.2-1.36L79,873.07l-.56-2.26.2-4.07.24-1.11.63-.34.61.82L83,871.46l.3,2.56Zm.68-5.29-.32-.25L81.14,866v-.23h1.43l.13,1,1,2.83Zm0-5.54.34-.14.17.11-.39.31Zm2,.81.12.25-.85,2.41-.18.27-.16.17-.12-.18-.3-.95-.19-.41Zm203.74,10.93-.14.23-.2-.2-.21-.34-1-2.85.14-.31,2,1.85Zm.28-4.47.22-.13.39.16-.13.34Zm.5,6.14,1.2-3.37.15-1.21,1.7,0v.28l-2.5,4.47-.38.31Zm3.42,16.46h-.15v-1.13h.15ZM295.7,882l-.1,1.12-.33,3-2.11,6.58-.17-.36-1.69-6.11-.25-1.6-.53-1.49.36-3,3.49-6.36.72-1,.74.41.29,1.29.24,4.87Zm600.18-36.79-.18.27-.16.17-.13-.19-.3-1-.18-.41,1.67-1.56.13.26Zm-.54-4.39.81-.07.68.85-.1.2-.72.26-.64-1-.18-.12Zm-.34.77.17.11-.4.32-.11-.29Zm-1.25,2.44,1,2.83-.14.42-.33-.26-2.1-3.76v-.22l1.44,0Zm-2.34-3.11.17-.15.51-.3,0-.09-.2-.07.21-.11.06.26,1,.61.17-.09.34.35-.13.8-.46.17-.8-1.5.46,1.5h-.84l-.68-.82Zm.6,19.78h-.11v-1H892Zm1.71-6.8-1.41,5.14-.14.3-1.78-5.53-.2-1.36-.17-2.08-.55-2.27.2-4.07.24-1.11.62-.34.61.82,2.94,5.35.3,2.57-.44,1.24Zm752.84,20.3.33.14-.1.29-.41-.31Zm-2.49-.66.21.07-.13.31-.16-.2Zm-4.54.7.15.08-.08.08-.16-.08Zm4.82,5.44-.43.09-5.58-5.1,2.08-.34.64,0,.64-.17.83,0,.61.48,1.32,4.68Zm1.79-1.61-.12.19-.17-.17-.18-.27-.84-2.41.11-.26,1.68,1.56Zm.79,1.82-.14-.41,1-2.84.13-1,1.41,0v.23l-2.09,3.75Zm4.52,4-.28,2.5L1649.4,892l-.14-.29-1.42-5.15-.23-1.33-.44-1.25.3-2.57,2.93-5.34.61-.83.63.35.24,1.1.2,4.07-.56,2.27Zm267.17-73.52.37-1-.17-.74-.94,0,.09.73-.19.46-.35.05-1.16-1.2-1.44-.62-.17.74,1.51,1.18.29.7-.75.29-.24,2.29-.27.5L1914,814v.81l2.61,0,.57.46-.46.32-.37.56.5.52,1.26.26-3.16,1-1-.59,0,.06-1-.09-.21-.41-.27-.78-1-.47-.5-.82-1.75-.3.7,1.6.06,1-.69-.34-4.57-1.51,2.37,1,3.06,2,4.5.18,1.39-.17h4.09v-7.56l-1.23.41Zm-1.28,1.87-.35-.22.34-.58.31.12Zm.56,4.41-.12-.57.34.07Zm2.22-28.82-.66-.58,0-.39.06.05-.47-1.27-1.12-.16-2-1.26,0-.23-1.14-1.42-.42,1,.37.79-.27.16-.43-.63-.57-.08-1.73-.85-.26-.6,0-.48h-.37l-.94.74-.51-1.54.12-.61-.59-1.71-.28,1.88-.64,1.7-.47.07-.69.45-.68,1.46,3.19,2.19-.45.34.41,1.41-.36.83,1.49.9.74-.19.11-.76.58.44,1,1.61-.15.22,1.52-.37-.08.66-.68.52v.71l-.47-.6-.36-.82-.28.46,0,.45-1.22,0-2.21-.35-.47-.33-2.74.68-.91-.23-.46.07-.66,0-.1-.82-.18-.34-.28.28-.61,1.25-.26-.56-.48-.65-.43.33-.07.52h-1.83l-1.13-1-.13-.16-.34-.1-.08.37.82,1.63-.13.72-.72-.07-.89-.78-.27.28-.12,1.37-1,1.22.39,1.06,6.06-.74,3.8,1.72,2.5.79,1.29,1v.84l.53,1.06,1,.71.14.72.35.37,3.63-.17.53,1.11.78,2.24.48.05,1.67-.08.54.62.85.4V787.87Zm-10.28-4.29-.31.18,0-.41.44-.28Zm.06,12-.74,0-2.14-.76-.13-.46.51-.11-.62-.68.77-1.29,2.51,1.25.55,1.58Zm3.71,6.62-2-.42-.81-.83-.41-1.23.64-.64,3,1.38.75.81Z" transform="translate(-0.19 -723)"/></svg>