<svg id="background1" xmlns="http://www.w3.org/2000/svg" xmlns:xlink="http://www.w3.org/1999/xlink" viewBox="0 0 1919 434.48"><defs><style>.cls-1{fill:url(#linear-gradient);}.cls-2{fill:url(#linear-gradient-2);}.cls-3{fill:url(#linear-gradient-3);}.cls-4{fill:url(#linear-gradient-4);}.cls-5{fill:url(#linear-gradient-5);}.cls-6{fill:url(#linear-gradient-6);}.cls-7{fill:url(#linear-gradient-7);}.cls-8{fill:url(#linear-gradient-8);}.cls-9{fill:url(#linear-gradient-9);}.cls-10{fill:url(#linear-gradient-10);}.cls-11{fill:url(#linear-gradient-11);}.cls-12{fill:url(#linear-gradient-12);}.cls-13{fill:url(#linear-gradient-13);}.cls-14{fill:url(#linear-gradient-14);}.cls-15{fill:url(#linear-gradient-15);}.cls-16{fill:url(#linear-gradient-16);}.cls-17{fill:url(#linear-gradient-17);}.cls-18{fill:url(#linear-gradient-18);}.cls-19{fill:url(#linear-gradient-19);}.cls-20{fill:url(#linear-gradient-20);}.cls-21{fill:url(#linear-gradient-21);}.cls-22{fill:url(#linear-gradient-22);}.cls-23{fill:url(#linear-gradient-23);}.cls-24{fill:url(#linear-gradient-24);}.cls-25{fill:url(#linear-gradient-25);}.cls-26{fill:url(#linear-gradient-26);}.cls-27{fill:url(#linear-gradient-27);}.cls-28{fill:url(#linear-gradient-28);}.cls-29{fill:url(#linear-gradient-29);}.cls-30{fill:url(#linear-gradient-30);}.cls-31{fill:url(#linear-gradient-31);}.cls-32{fill:url(#linear-gradient-32);}.cls-33{fill:url(#linear-gradient-33);}.cls-34{fill:url(#linear-gradient-34);}.cls-35{fill:url(#linear-gradient-35);}.cls-36{fill:url(#linear-gradient-36);}.cls-37{fill:url(#linear-gradient-37);}.cls-38{fill:url(#linear-gradient-38);}.cls-39{fill:url(#linear-gradient-39);}.cls-40{fill:url(#linear-gradient-40);}.cls-41{fill:url(#linear-gradient-41);}.cls-42{fill:url(#linear-gradient-42);}.cls-43{fill:url(#linear-gradient-43);}.cls-44{fill:url(#linear-gradient-44);}.cls-45{fill:url(#linear-gradient-45);}.cls-46{fill:url(#linear-gradient-46);}.cls-47{fill:url(#linear-gradient-47);}.cls-48{fill:url(#linear-gradient-48);}.cls-49{fill:url(#linear-gradient-49);}.cls-50{fill:url(#linear-gradient-50);}.cls-51{fill:url(#linear-gradient-51);}.cls-52{fill:url(#linear-gradient-52);}.cls-53{fill:url(#linear-gradient-53);}</style><linearGradient id="linear-gradient" x1="960.19" y1="957.76" x2="960.19" y2="482.74" gradientUnits="userSpaceOnUse"><stop offset="0" stop-color="#f4bf8c"/><stop offset="0.44" stop-color="#f2bd8a"/><stop offset="0.66" stop-color="#eab582"/><stop offset="0.83" stop-color="#dda875"/><stop offset="0.98" stop-color="#cb9662"/><stop offset="1" stop-color="#c8935f"/></linearGradient><linearGradient id="linear-gradient-2" x1="1584.87" y1="434.48" x2="1584.87" y2="-40.54" xlink:href="#linear-gradient"/><linearGradient id="linear-gradient-3" x1="1574.22" y1="434.48" x2="1574.22" y2="-40.54" xlink:href="#linear-gradient"/><linearGradient id="linear-gradient-4" x1="1442.23" y1="434.48" x2="1442.23" y2="-40.54" xlink:href="#linear-gradient"/><linearGradient id="linear-gradient-5" x1="1439.62" y1="434.48" x2="1439.62" y2="-40.54" xlink:href="#linear-gradient"/><linearGradient id="linear-gradient-6" x1="1424.26" y1="434.48" x2="1424.26" y2="-40.54" xlink:href="#linear-gradient"/><linearGradient id="linear-gradient-7" x1="1426.95" y1="434.48" x2="1426.95" y2="-40.54" xlink:href="#linear-gradient"/><linearGradient id="linear-gradient-8" x1="1014.96" y1="434.48" x2="1014.96" y2="-40.54" xlink:href="#linear-gradient"/><linearGradient id="linear-gradient-9" x1="1014.24" y1="434.48" x2="1014.24" y2="-40.54" xlink:href="#linear-gradient"/><linearGradient id="linear-gradient-10" x1="1011.97" y1="434.48" x2="1011.97" y2="-40.54" xlink:href="#linear-gradient"/><linearGradient id="linear-gradient-11" x1="989.84" y1="434.48" x2="989.84" y2="-40.54" xlink:href="#linear-gradient"/><linearGradient id="linear-gradient-12" x1="991.87" y1="434.48" x2="991.87" y2="-40.54" xlink:href="#linear-gradient"/><linearGradient id="linear-gradient-13" x1="994.23" y1="434.48" x2="994.23" y2="-40.54" xlink:href="#linear-gradient"/><linearGradient id="linear-gradient-14" x1="997.53" y1="434.48" x2="997.53" y2="-40.54" xlink:href="#linear-gradient"/><linearGradient id="linear-gradient-15" x1="997.96" y1="434.48" x2="997.96" y2="-40.54" xlink:href="#linear-gradient"/><linearGradient id="linear-gradient-16" x1="998.53" y1="434.48" x2="998.53" y2="-40.54" xlink:href="#linear-gradient"/><linearGradient id="linear-gradient-17" x1="999.13" y1="434.48" x2="999.13" y2="-40.54" xlink:href="#linear-gradient"/><linearGradient id="linear-gradient-18" x1="1004.55" y1="434.48" x2="1004.55" y2="-40.54" xlink:href="#linear-gradient"/><linearGradient id="linear-gradient-19" x1="1004.16" y1="434.48" x2="1004.16" y2="-40.54" xlink:href="#linear-gradient"/><linearGradient id="linear-gradient-20" x1="1002.17" y1="434.48" x2="1002.17" y2="-40.54" xlink:href="#linear-gradient"/><linearGradient id="linear-gradient-21" x1="1001.32" y1="434.48" x2="1001.32" y2="-40.54" xlink:href="#linear-gradient"/><linearGradient id="linear-gradient-22" x1="1000.65" y1="434.48" x2="1000.65" y2="-40.54" xlink:href="#linear-gradient"/><linearGradient id="linear-gradient-23" x1="509.52" y1="434.48" x2="509.52" y2="-40.54" xlink:href="#linear-gradient"/><linearGradient id="linear-gradient-24" x1="508.84" y1="434.48" x2="508.84" y2="-40.54" xlink:href="#linear-gradient"/><linearGradient id="linear-gradient-25" x1="508.33" y1="434.48" x2="508.33" y2="-40.54" xlink:href="#linear-gradient"/><linearGradient id="linear-gradient-26" x1="508.02" y1="434.48" x2="508.02" y2="-40.54" xlink:href="#linear-gradient"/><linearGradient id="linear-gradient-27" x1="507.66" y1="434.48" x2="507.66" y2="-40.54" xlink:href="#linear-gradient"/><linearGradient id="linear-gradient-28" x1="443.37" y1="434.48" x2="443.37" y2="-40.54" xlink:href="#linear-gradient"/><linearGradient id="linear-gradient-29" x1="443.87" y1="434.48" x2="443.87" y2="-40.54" xlink:href="#linear-gradient"/><linearGradient id="linear-gradient-30" x1="444.72" y1="434.48" x2="444.72" y2="-40.54" xlink:href="#linear-gradient"/><linearGradient id="linear-gradient-31" x1="445.56" y1="434.48" x2="445.56" y2="-40.54" xlink:href="#linear-gradient"/><linearGradient id="linear-gradient-32" x1="445.05" y1="434.48" x2="445.05" y2="-40.54" xlink:href="#linear-gradient"/><linearGradient id="linear-gradient-33" x1="445.22" y1="434.48" x2="445.22" y2="-40.54" xlink:href="#linear-gradient"/><linearGradient id="linear-gradient-34" x1="445.22" y1="434.48" x2="445.22" y2="-40.54" xlink:href="#linear-gradient"/><linearGradient id="linear-gradient-35" x1="445.63" y1="434.48" x2="445.63" y2="-40.54" xlink:href="#linear-gradient"/><linearGradient id="linear-gradient-36" x1="431.89" y1="434.48" x2="431.89" y2="-40.54" xlink:href="#linear-gradient"/><linearGradient id="linear-gradient-37" x1="432.13" y1="434.48" x2="432.13" y2="-40.54" xlink:href="#linear-gradient"/><linearGradient id="linear-gradient-38" x1="432.56" y1="434.48" x2="432.56" y2="-40.54" xlink:href="#linear-gradient"/><linearGradient id="linear-gradient-39" x1="434.08" y1="434.48" x2="434.08" y2="-40.54" xlink:href="#linear-gradient"/><linearGradient id="linear-gradient-40" x1="450.79" y1="434.48" x2="450.79" y2="-40.54" xlink:href="#linear-gradient"/><linearGradient id="linear-gradient-41" x1="467.41" y1="434.48" x2="467.41" y2="-40.54" xlink:href="#linear-gradient"/><linearGradient id="linear-gradient-42" x1="469.67" y1="434.48" x2="469.67" y2="-40.54" xlink:href="#linear-gradient"/><linearGradient id="linear-gradient-43" x1="279.65" y1="434.48" x2="279.65" y2="-40.54" xlink:href="#linear-gradient"/><linearGradient id="linear-gradient-44" x1="278.19" y1="434.48" x2="278.19" y2="-40.54" xlink:href="#linear-gradient"/><linearGradient id="linear-gradient-45" x1="251.89" y1="434.48" x2="251.89" y2="-40.54" xlink:href="#linear-gradient"/><linearGradient id="linear-gradient-46" x1="210.44" y1="434.48" x2="210.44" y2="-40.54" xlink:href="#linear-gradient"/><linearGradient id="linear-gradient-47" x1="193.82" y1="434.48" x2="193.82" y2="-40.54" xlink:href="#linear-gradient"/><linearGradient id="linear-gradient-48" x1="480.33" y1="434.48" x2="480.33" y2="-40.54" xlink:href="#linear-gradient"/><linearGradient id="linear-gradient-49" x1="477.1" y1="434.48" x2="477.1" y2="-40.54" xlink:href="#linear-gradient"/><linearGradient id="linear-gradient-50" x1="475.33" y1="434.48" x2="475.33" y2="-40.54" xlink:href="#linear-gradient"/><linearGradient id="linear-gradient-51" x1="1006.31" y1="434.48" x2="1006.31" y2="-40.54" xlink:href="#linear-gradient"/><linearGradient id="linear-gradient-52" x1="1008.41" y1="434.48" x2="1008.41" y2="-40.54" xlink:href="#linear-gradient"/><linearGradient id="linear-gradient-53" x1="1579.21" y1="434.48" x2="1579.21" y2="-40.54" xlink:href="#linear-gradient"/></defs><title>bg-layer1</title><path class="cls-1" d="M1918.38,654.19A98.55,98.55,0,0,1,1891.6,651L1867,680.9a11.54,11.54,0,0,1-3.32,3.11c-2.24,1.16-4.9.61-7.35.12-12.55-2.52-25.89-2.78-38.89-3.78l-4.93-24.43-.14-.28-3.91-10.81-5.35-9.4,0-2.68,1.64-2.2,4.59-3.63,2.89-1,1.32-.05.11-.27-1.09-1.39-.06-.75,1.66-2.41,2.62-2.41,10-5.8,2.55.07,1.44.49-1.09-1-.11-.68,1.9-1.33-1.43.23-.38.25h-.27l0-.26.19-.23,3.2-2.67,1.48.11.78-.29.52-1.46.2-.22.18.36,0,.31.32.22.15-.24v-.61l.51-.57.42,0,2.62,4-.45-2,0-1,2-.13.9-.64,1-.18,1.08.18.51-.88,1-.48.74.49.24-.15.42-.54,1.32,0,.25-.13-.23-.15-.59,0-.26-.1.3-.15,3.73.54,1.32.9,1.17,2.5.6,2.06.19.38.12-.44v-.94l0,0-.28-1.83-1.05-1.39.35-.46h.53l-.37-.43-.52-.27.07-.48-.09-.46-.35,0,.26-.36,1.27-.75.53,0,2.27.93v-.13l-.58-1.33,1.69.08.61-.52-.39-.74.12-.35h3.86l1,.13,3.13-.14,2.13-1.53,1.64-.76-3.17,1.13-.48.26,0-.72.49-1.21-1.22.23-.35.61-.7.34-.19.58-.15.33-.72,0-.64.41-2.2-.74.87-.18.34-.4-.25-.41-.32-.25.39-.33,1.82,0v-.61l-.81-.1-.19-.38-.16-1.71-.52-.22.21-.52,1-.9-.12-.54-1,.47-.81.89-.25,0-.12-.34.05-.54-.65,0-.12.53.26.72-.24.59-2.76-1-.76,0,.29-.82.79-.27,2.17-1.08.38-.48,1.16.07.34,0,.54-1.67.37-.83,2.53.12.24-.27.1-.54.69-.54.36-.79V586l.9-.74,1.74-.6,2.65-1.28,4.22.55.26-.8-.73-.9-.08-1-.19-.22-.62.6-.5,0-.09-.54.57-1.21,0-.28-.24.07-.09.12-.78.73h-1.27l-.06-.39-.29-.24-.33.49-.19.41-.42-.94-.19-.21-.14.26-.07.61h-.45l-.33,0-.63.17-1.9-.52-.33.25-1.53.26-.86,0,0-.34-.35-.57.69-1.21.4-.33.09.57.51.15,1-.69-.24-.61.29-1.06-.32-.26,2.21-1.62-.47-1.11-.49-.33-.31,0-.45-1.27-.2-1.4-.4,1.27.08.46-.36,1.15-.65-.56h-.26l0,.37-.18.43-1.21.64-.4.06-.29.47-.19-.12.26-.59-.3-.74-.79,1.05,0,.17-1.41.95-.78.12-.32,1,0,0,0,.3-.46.42-.27,0-1.37-.09-.5-.11,0-.26.49.19,0-1.63-2.08.57-.24,0-.06-.79.38-.71,1.1-.07-1.89-.67L1854,575l-1.21-.91-.83-.17-3,.18-.92.27-.86-.62-1.31-1.23-.7.23-1.24-2.9-.42-.33.06.57-.15.38-.3-.23-.43-.11.12.94,1.11,1,.16.26-.37,0-2,.52-.1.11-.77-.08-.4-.64-.44-.05-.73,1.29.23.27-.5.72-.19.4.1,1.86-.38.35v-.54l-.48-1.13-.26-1.9-.45-.19-.43,1.4-.64.85-1.23-.27,0-.22,1.34-1,.16-.2.15-.77-.61.23-.64.12,1.21-.82.17.37.1-.11-.16-2-.84-.13-.09.52-.08.25-1-.43-1.39.39-.94-.18,0,.41-.2.31-.28-.31-.08-.43-.28,0-.31.91-.75-.15-.13-.77-.13-.43-.26.36-.69,1.3-.22.18-.07-.29.26-.89-.58-.64-.78.19-.09.65-.34-.49-.34-.66-.52-.06.13.49,0,.29-.79.42-.32.49-1-.39-.86.06-.63.93-2.12-1.39-.1-.36-.28.3-.36.64.37.9-.66.27-.23.67.19.65-.74-.07-.2-.38-.17.36,0,.78-.11.28-.2-.16-.71-1.64-.84,1.26-1.23.08-.2.3-.48-.52.31-.18.23-.37.56-.34.14-1.23-.17-.2-.18.15-.07.61-.3.47-.48-.43-.59-.76L1814,572h-.25l0,.27.29.68-.71-.33-.34-.28-.21.46,0,0,1.12,1.71.38.22,0,.35-1.09.68-.74-.4-.53.24,0,0,.67,1.14-.84.09-1,.69h0l-.59,1.85-.89-.3.07.46-.51.84-.71,0-1,1.12-.52-.73.56-.43.42.06.29-1.32,1.09-.58.39-1.93.22-.58-.66-.16-.41.09-.14-.25.32-1.31.63-.58.77.23-.26-.8-1.46-.54-.08.72-.42,1.26,0,.7-.42,1.77-.22.24-1.09-1-.56-.27-.45.58-1.21.63-.48-1.59.2-1-1.06-.15-.52.07-.23.37.66.61-2.06-.62-.32.32-1.47-.38h-.27l-.17-.34.27-1,.39-.46.49-.18.8-1.39,0-.24.22-1.21-.06-.28-.23.15-.61,1.24-1.52,1.61-2.37-1.12-.21-.33L1795,571l-1.09-.08-.27,0v.22l-.07,1.19.18.72.45.3-.93-.1-.44.22-.34.34-.53-.47-.57-.12-.35-.14,0-1.45,1.42-2.94-1.36,1.88-.66,1.18-1,.39-.22-.6-.26-.33h-.27l-.11.22.24.39v.43l-.37-.16-.44-.4.1,1-.64-.26-.6.33-.22.18-.33.54-.41-.85,1.11-.83,0,0,.09-1.1-.1-.28-.2.2-.79.21-1.78.91,1.27-.11.08.56-.36,0-1.13-.07-.45.27-1.38.56-.4-.5.44-.09.69-.28-.52-.4-.65-.15-2,.48-.32.71.19.33-.3.44-.2-.47-1.2-1.57-.88.54-.26.21-.14-.27-.59-.5-1.17.24-1.19.51-.49.6,3.3.74.24.49h.28l.39.12-.27.3-.17.41.52,0-.2.47-.22.28h-.33l-.79.66-.32,0-2.15-.69.44.55-.37.55-.57-.08-.35-.61-.92,0-.39-.63-.45.1-.6.46-.17,1.44-.32-.31.23-2.06,0-.58-.9,1.08-.66,0-1.15-1.73-.32-.24-.31,1.22h-.49l-.29.85-2.33.84-.89.61.14.62-.22.29-.69-.21-.27,0,1,1.62.43-.29.71,0v.6l-1.1.24-.12.75-.43-.21-.39.32-.21.32-.28-.34-.1-1.39-.4-.79-.3-.31,0,.94-1.28.1-.34-.56-.74-.27-1,.14-1.3-1-.82.3v.39l.25-.12.21-.21.37,1.12-.65.14-3.06-.81.16.38.21.38-1.77.07-.86.25-.49.36-.86-.28-1-.82-.33,0,0,.3,1.06,1.34-.19.38-.29-.19-.31-.45-.28.58-.38.57-.37.3.5.14,1.27-.24.4.41-.28.67,0,0,0,1.12,1.17.16-.4.2-.77-.34-.1.11.33.5,0,.28-.31-.2v-.58l-.41.13-.64-.4-1-.33-2.35-.09-.8-.21.39.68.18.51.33.17.4-.35,2.08.52,0,.22-.39.14-.28,1.57,1.44.62.48-.21,1.91.64.15.24-.1.09-1.85.16-2,1,.16.43.26.52-.47.14-.49-.31-.38-.14-.15.69.51.22-.13.73.29,1.11-.53-.29-.61.34-2.08.81-.17.3.22.57-.75.85.29,1,0,.29-.34-.14-.44-1.15-.41-.56-1.38-.29-.36.06.22.56.51,0,.37.54-.09.55.37,0,.31.31-.34.16-.37-.15-.48.47-2.85.38.3.3,2,1.17.11.42-.39,0-.87.72,0,.76.45.42.33.2-.3.23v.48l1.2.92,1.23-1,.14-.06,1.36,1.28.72.5-1,.22-.27,0-.18.18.25.31.71-.07,4.66.68,1.71,0,.83-.22,0,0,1.45.32.31.41,0,.84.43,0,5.28-1.19,1.85.24,1.19-.12,5.67-2.34,1.29.1-.52,1.1,0,.25.27,0,.36-.21.26-.51,1.59-1,1.6.45.08.37-1.08-.16-1.09.36.27.92-.1.7-.53,0-.39-.21-.33.36v.62L1766,606.9l-2.72-.61-1-.49-.31.14-.2,1.32.29.31.76.14.41.27,1.18,0,.47.65-.23.16-.52-.56-.89,0,.25,2.17,0,.27.26,0,.73-1,.84-.2,2.22-1.7.25.13,3.49.72.43-.12,2-.85.28.19-1.16,2.12.41.09,1.35-1.3,2.51-1.72.65.2,1.7,3.43,1.73.94.11.36-1,.29V612l-.57-.84-1-.5-.82-1.09-1.15-.53-.42.35.39.27.78.84.91,1.78.2,1.08-.35.26,0,.66.52.33,1.69-.39,4.61,1.33.18.22-.21.11-1,.13-.36.1.39.37h.71l1.58.25.25.14-.2.16-4.55-.25-7.5-1.33-4,2.19,0,.14.2.15,6.65-1.51,4.46,2.08.23,1.18.06.67,1.29-.17,1.58,2.26-.06.41-.38,0-1.26-.69-1.45-.54-1.11-.77-.9-.17.57.62,3.08,2.41,0,.51-.21.6,1.54,0,1.93-1.37,1.21.47,1,2.07,6.07,5.56,8,12.36,3.71,10.6,4.12,25.19c-15.46-1.61-30.15-5-42.09-15.41-3.7-3.22-7.17-7.13-11.76-8.49-4.8-1.41-9.87.27-14.85.24-23.48-.17-35.5-35.9-58.9-38-11.69,13.13-31.41,1.39-47-5.64-16-7.23-33.61-8.48-51.25-9.21l.13-1.32,1.1-2-.07-.54,1-1v-.23l-.22,0-.81.53-.11.2-.85,2.06-.21.08-.11-.19.51-3,.53-1.57,1.25-1.52,1.27-1,.31-.07.67-.73.29-.17,1,.32.45-.15-.43-.53-.59-.1-.17-.27-.9-.32-.31-.05-.08-.14.87-.76h.08l.34-.54v-.55l-.14-.12.14-.06,1.61-1.1,1.82-.35.12.31v.17l.07.24.26-.18.14-.35.2.18.51.71-.23-.87.21-.37,1.2.33.86.41.49.69.14.06.17.25-.31,0,.68,1.09v-1.27l-.29-.41,0-.25.18.06,1,0,1.58.87.82,1.09.13.3,0,.49-.6.24-.77-.16-.89.06-.49.29-.2-.57-.14-.06-.06.14-.26.14.24.25.25,0-.28.57-.21-.16-.39-.19-.13.09.14.09,0,.37h-1l.41.35.09.12-.15.08-1.34.44-1.09.13-.74.2-1.84.89-.06.15,2.73-.92,1-.15.87-.34.45.14,1-.18.11-.15.06.15.35-.06,0,0h.05l.1,0-.07.11,0,0,.12.57.66.18.15,0,0-.12-.42-.33.17-.4.5-.37-.38-.18-.06-.16.25-.45.64-.28h.25l.48.27H1600l-.23.09v.18l1-.11.63.18,1.29-.21,0,.33-.08.22.16.57.3.12.21.18v.36l.29.13.17-.08.21,0-.1-.21-.38-.09,0-.16.16,0h.17v-.27l-.34-.23h-.16l-.2.23-.12-.12.29-.22-.1-.23,0-.24h.18l1,.37.65-.29.16-.28,1-1.16.21.07h.18V591l-.33-.22.33-.14-.16-.28.8-.13.51.11-.14.28,0,.15.1,0,.92-.43.1.17v.35l.32-.32.87-.58-.13-.18-.33,0-.56-.25.55-.3.12-.17h-.63l-.38-.34-.5,0-.1.12,0-.11.11-.05-.15-.36-.34-.19v1.5l-.33.13-.21.19-.12-.19-.72.32-.24.2v-.3l.1-.58-.31.43-.36-.12-.09-.13-.58.9v.37l0,.15.12-.07.16-.3.42-.15,0,.29-1.71.8-.78-.1,0,.25.17.24,0,0v.16L1603,592l0,0-.42-.46-.29-.09.17-.29.84.25.17-.12-.2-.54-.21-.05-.95.42-.15.2-.25.12-1.28-1.75-.16-.29,0-.4-.46-.12h-.16l-1.8-.55-.13-.35-.36.18-.81-.18-.18-.11.47-.13-.14-.12h-.42l-.59-.09-.25-.25-.23.08-1.69,0-.29-.13v-.3l.64-.27.06.06.58-.29.15-.24.87-.34,2,.39,1.45-.23.09.14-.2.57h-.25v.18l.39,0,.76-.4.52.09-.63.39.29.13.19-.07.48-.35.43.15.36-.32.58.32.11.16.05-.24-.23-.44v-.18l.22-.12.42,0,.11-.13-.13-.08-1.07.28-.17,0-.14-.29L1601,585h-.34l-.13-.3,1.81-1.42h1l1.36-.22.88-.76,2-1.28h.08l.82.1.75-.46.13-.18.58-.37.65.31.53.38.27.59h.17l.12-.15,0,.15.34.13.08.22.09-.22.17-.12.16.13V582l.33.13.11-.15.06.15.17.18.85.19.14-.07-.08-.12-.39-.08-.55-.46h0l-.12-.1.11,0,0,.13,1,.18.31-.07-.26-.28-.46-.35.31,0,0-.23-.27-.13.22-.48-.23.12-.25,0-.1.13,0-.11.11,0-.12-.19h-.74l.5-.36-.12-.11.11,0,0,.14.49-.57.73-.16.09-.18,1.44.4.46.32.34.37,1.46.17.21-.07.35.08.33.19.13-.36.71.3,0,.16-.31-.1v.08l-.1.58.72-.16.05-.15.46-.35.05-.37-.13-.48.21,0,.8.36.12.17.26,1.09.1-1,.3-.42.39-.1.47.22,0-.24.08-.23.32.45.23.26.09-.22.27-.14h.15l.6-.37,1.51-.42-.68-.28h-.76l-.73.25-.24,0-.13-.33,0-.4-.29.13-.32-.25.54,0,.64.12-1-.45.27-.13.06-.15-1.12-.23-.26-.31-.12-.11.1,0,0,.14h.09l.4-.26-.31-.19-.65-.24-.52,0-.19-.05-.06-.5-.55,0-.34.12,0-.36-.1-.13-.75,0,0-.17.23-.06-.23-.12-.45-.32-.73.1-.81-.35,0-.21-.13-.12h-.34v.36l-.18.08-.41-.09-.42-.44H1616l-.23.25-.13-.28-.31-.29.25-.34,0-.12-.22,0-.26.52-.41.19-.79-.06-.12-.13-.3,0-.3-.32-.08.14,0,.16-.44,0-.32.27-.39-.27-.49.21-.17.23-.48-.05.33-.31.13-.07-.1-.1-.7-.17-.26.14-.23,0,.09-.2.11-.31-.3,0-.26-.63-.54-.42V571l.06-.24.86.53v0l0,.11-.1-.08,0,0-.36.08.33.42.2.11.23.06-.09-.89.47-.37.19-.11-.45-.13,0-.23.21-.07h.37l.06.15.06.34.47.13.66-.1.13-.12,0-.32.41-.26.08-.13-.14-.06-.49-.12-.46.11-.41-.42,0-.26-.23.17-.19.18-.17.1,0-.3.22-.27,0-.24-.22,0-.3.3h-.23l.08-.19,0-.31-.63-.06-.12-.12-.19-.1-1.35.31-.1.13,0-.11.11-.05-.38,0-.43,0-.07-.35-.69.08-.27.33-.27-.31-.13-.28-.27.14h-.41l-.39-.52-1.56-.37-.13.15,0-.15-1.72-.67-.06-.06-.77-.1-.23-.08-1.22,0,.1-.25-.22-.07-.27.21-.1.13,0-.1.12-.06-.17-.27-.68.09-.15.15-.1.19-.3-.52-.28,0-.08-.23-.08.24,0,.26-.14-.21-.23-.25-.37-.08-1.08,0-.18-.21-.14-.08-.29.1-.6-.64-1-.06-.21.11h-.38l-.11-.26,0-.16-.12.13-.12.22-.24,0-.53-.46-.28.2-.13.25,0-.25-.28-.21-.4-.06v.37l-.18.08-.3-.21-.51.37h-.41l-.3.11-.22.36-.6.34.09.22h1.12l.3.4-.18.13-.68-.18-.66.18.5.19.52.09.31,0-.24.11,0,0-.17.2-.21.38-.11.71-.73.47-.18,0-.75-.43H1585l-.06.06-.12.48-.44-.18-.14.09-.54.17h-1l-.17,0-.22-.26-.14.26-.16,0-.33-.43-.13.18-.89-.24-.21-.44-.27.33,0,0-.09.12-.09-.13h-.37l-.08.12-.37-.18h-.55l.5.46v.16h-.16l-.43.28v.05l0,.1-.08-.06-.53.32-.1.11-.23-.26-.27.31-1.09.47,0,.16.31.06.14.07-.14.11h-.46l-.33.17-.22-.18-.68.18-.14-.07.09-.11.4-.36-.79-.37h-.32l.09-.25-.71-.26,0,.17v0l0,.11-.1-.09,0,0-.54-.22-.3.18-.42-.18-.31.08,0-.06-.24.3-.23.17-.1.13-.54-.36v-.26l-1.51.45-.63-.12-.05-.15-.07-.34-.1.37-.3.11-.18-.08.07.3.2.14-.22.07-.07.22.19.12.76.23,0,.11-.39.14-.7.13-.44.67v0l0,.11-.1-.07,0,0-1,.13-.17.36.34.36.11-.15.14.5-.25-.16-.69.18-.27.13.32.22h.33l.13.09-.2.09v.22l.2.26-.31.07-.39.3-.29.06-.21.17-.3-.47-.09-.24-.09.22-.43.35h-.3l-.4-.26-.24.07-.46.25-.36-.44-.16-.1-.13.22-.06-.23-.15,0-.71.43-1.21.18,0,.23v.24l-.21.05-.54,0-.51.61-.25,0h-.12l-.47,0-.33.19-.74.19-.1.13,0-.11.12-.05-.15-.29-.32-.26-.35.52-.36-.1-.54-.28-.24-.29-.61.34-.43-.07-.4,0-.13.3.5.19-1.24.26-.17.19-.09.44-.21.1-.72,0-.28.77-.17.13-.14.06.09.11.67,0,.06.14,0,.16-.71.43-.67.71v0l0,.11-.1-.08,0,0-.54.12-.39,0-.33-.1-.37.3-.25-.1-.17-.24-.27.21-.12.29-.45-.32h-.68l.06.21,0,0v.06l0,.11-.11-.08,0,0-.54-.23.16-.28-.18-.16-.29,0-.47.11h-.44l.37-.55-.37.13-.53.09-.11.06-.14.27-.57-.12-.14-.07-.67.8.11.26-.45-.15-1.3.73-.06.28-.2.47-1.67,1,.33.05.22.29.22.06.44-.17-.08-.16.54-.09.38.08.48-.13-.31.65v.27l.22-.06.59-.39.18-.19-.29-.12-.17.08v-.23l.68,0,.14.07.11-.16.06.16.33.18.32-.25.36-.12.85.07.46-.07.15,0-.07.19-.28.49h-.44l-.34.55.14.36h.5l.2.18-.23,0-.09.18.15.14.66-.23.54.08.28-.42h.36l.76-.63.35.15h0v0l0,.11-.1-.08,0,0-.22.07.08.26.11.17.5-.72h.85l.47.23,2.16.34.07.15.11.16.07-.24.2-.08.12.26-.08.26.7-.32.16.3,0,.43-.29.32-.17-.22,0-.25-.21-.07,0,.35H1552l.06.14.22.08v.1l-.31.21-.48-.35h-.08l-.24-.29-.09.51-.09.25.27.12,0,.3-.31,0-.1.46.24-.11h.31l-.33.53.34.37-.07.37-.27-.14-.63.34-.5-.36-.49-.16,0-.44-.07-.14-.22-.28-.32,0-.07.24-.09-.22-.17-.17-.1.38-.23-.41.17-.12.15,0-.27-.21-.22-.08.18-.11.48-.18-.7-.21-.4.22v0l0,.11-.11-.07,0-.06L1547,585l-.15,0-.13.24,0-.23-.25-.13-.32,0-.1.11.14.06.25,0,.09.2-.15.15-.31-.06-.18,0,0,.24-.06.23-1.06.32.85.08.06.15-.06.15-.25-.1-.12.3-.87.41.08.15.86.29-.41.24h-.25l.68.27.4-.09v-.23l.09-.37.11-.12.25.36.18-.27.09.17.4-.14-.5.42h-.06l0,.38v0l0,.11-.1-.07,0,0-.27.14,0,.19.15.21,1.63.42h0l.1,0-.07.11,0,0-.15.81-.06.15.85-.37.12-.38.33-.13,0,.33,3.9,1.27.72,0,.68.2,1-.12.86.32,1,.16,4.87.18.47.15.1.19-.29,0-.34.27.17.18.17.3V593l.34-.41.56-.42,0-.23.09-.19v.53l.17.16.42,0,.36-.78,0,0,.15,0-.08.1,0,0,.12.39.6-.72.08.15.09.38.58-.63-.21-.09,0-.16.43.18v.89l.29-.3v-.63l.62-.34h.24l1.89-.18-.88.73-.13.17,1.19-.63.85-.28,2,.55,3,1.62,2.51,2.2.43,1.09-.37.25-.48-.08-.17.13.08.23,1.73,1,.75,2.31.56,3.15c-20.47-.8-40.92-1.59-59.13-10.93-5-2.57-10.27-5.84-15.75-4.85s-9.32,5.82-13.31,9.86c-15.31,15.53-36.75,22-58,22.87l.19-.84,0-.52,0-.34-.2-.59.18-2.73,1.37-7.66.89-2.75,2-1.16.1-.26-.2-.15-.57.08-.43-.29.49-1.29,3-2.63,3.57-1.93,2.36-.65,1,.34,1.41.75-.15-.2-1-.88,2.26.23h.3l.73.42v.74l.34.36V597l.52-.2-.06.18-.25.11.68.74.11-.45.09-.17.71.86.14-.47,0,0-.09-.14.12,0h0l0,0,.43.94.5,0,.2-.19,0-.12v-.5l.11.22-.06.29.67.49.4.49v-.49l.21-.37.2-.21-.41-.33-.34,0,.11-.23.57-.17,5.78-.23,1.19-.19,1-.37,1.24.15.8-.24.86,0,4.64-1.51.06-.39.39.16.15.45,1,.43-.07-.17-.17-1,0,0-.09-.13.12,0h.06l1.94-.51.18-.25,0-.21-.33-.16,0,0-.12.09,0-.13v-.06h0l0-.44h-.08l-.6-.5.48.17.11-.21.21.33.3-.44.13.15.11.44v.27l.47.12.81-.34h-.3l-.48-.29,1-.35.1-.18-1-.48-.15-.36-.28.12-.07-.17.06-.18,1-.1-1.26-.38-.07-.28,0-.28-.21.07-.38.06-.17-.18.11-.23.3,0,.16-.08-.12-.12-.38,0-.29.15-.07.29-.15-.3-.18,0-.66.75.06.07-.12.09,0-.12v-.07l-.47-.27-.84.27.58.22.2.12-.25.09-.33.25.19,0,.2.14-.28.49-.12-.45-.2.2-.1.25-.09-.28-.38,0-.27.33-.08.17,0,.52-.58.18-.6.43-.76-.39-.31.17.14,0,0,.14-.12-.15-.09-.49.41-.43-.39-.64h.37l.29.12-.12-.55-.38,0,0-.33.32-.17-.11-.29-.1-.6-.28.35h-.1l-.56.4-.37-.23v-.14l.26-.08.07-.17h-.29l0-.42-.25.09,0,.29-.2.27-.35-.38.05-.53.18-.34.84.37-.09-.3.13-.33.24.11.08.28.13-.2.08-.17,2.58-.4.56-.28h1l.6.85.14-.2.08-.3-.25-.08,0,0-.12.09,0-.13v-.06l0,0,.41-.18.9.74.43,0,.33.5.65-.1.78.29.18-.17-.11-.23-.27,0,.24-.21.59,0,.16-.43-.4-.64H1476l-.34-.59-.08-.23.19,0,.54.08,1-.08.43.15.37.28.4-.22.07-.18.13.18.17-.07.81-.06v.28l-.21-.09-.34.14.21.22.71.48.26.06v-.31l-.37-.79.57.17.46-.1.64.1-.09.19.53.2.25-.07.27-.35.38-.05-2-1.19-.24-.57-.07-.34-1.54-.87-.54.18.13-.3-.8-1-.17.07-.67.14-.16-.32-.14-.06-.63-.1-.43-.16.43.64h-.52l-.54-.13-.36,0-.21.2.19.33-.66.26.05.05-.12.1,0-.13v-.06l0,0,.06-.25h-.8l-.53.39-.14-.35-.33-.25-.2.27-.3.14-.44-.36-.39.11-.46,0-.64-.15,0,0-.12.1,0-.13v0l-.8-.85-.85-.51-.06-.19.08-.16.8-.05.11-.11-.17-.09-.2-.16-.33-.9-.85,0-.25-.11-.11-.52-.2-.24-1.48-.3.59-.22-.14-.37-.49,0-.5.08-.73-.39-.28.33-.65.33-.42.14-.42-.63-.4.31-.17.34.14.06,0,.14-.12-.15-.87-.22-.4-.24-.56.06h-.13l-.3,0-.6-.72-.64,0-.26-.07v-.28l0-.28-1.44-.21-.85-.52-.18,0-.08.29-.14-.28-.19.12-.44.51-.55-.27-.28-.09-.47.31h-.37l-.51-.42-.11-.25-.08.28-.36.56-.25-.2-.35-.08-.46-.36-.37-.08.24-.3v-.26l-.25-.12.16-.09h.4l.38-.27-.33-.16-.81-.22-.31.2.17-.59.14.18.39-.44-.19-.42-1.24-.15,0,0-.13.09,0-.12v-.06l-.53-.78-.82-.16-.48-.17,0-.14.91-.26.22-.14-.08-.27-.26-.09.24-.16.08-.36-.21.09-.36-.13-.12-.43-.08.4-.06.17-.76.15-1.78-.53,0,.32-.63.41-.12-.16-.28-.2-.27-.35-.07.07-.36-.09-.52.21-.35-.21-.65.26,0,.06-.12.08,0-.13v0h0l-.07-.2-.85.31.11.3h-.39l-.93.44.48.43.1.13-.16.07-.82-.2-.25.2-.4-.19h-.54L1438,572l.17-.07.37-.09,0-.18-1.27-.55-.33-.38-.29.31-.11-.13-.63-.38-.1.07,0-.13v0l-.5-.34h-.19v-.2l.59-.55h-.66l-.43.22-.11-.14h-.43l-.11.15-.1-.14,0,0-.33-.4-.24.52-1.06.28-.16-.21-.38.51-.2,0-.17-.3-.25.31h-1.39l-.63-.22-.16-.1-.52.2-.15-.56-.07-.07h-1.4l-.88.52-.21,0-.88-.56-.13-.85-.25-.44-.2-.25,0,0-.29-.12.38,0,.61-.11.6-.21-.79-.23-.81.22-.22-.15.37-.48,1.33,0,.11-.26-.72-.41-.27-.41-.35-.14-.5,0-.61-.45-.35.25-.21-.1v-.43l-.47.06-.33.25-.06.3-.15-.29-.34-.24-.63.55-.29,0-.14-.25-.14-.17-.06.2-.13.31h-.45l-.25-.14-1.14.1-.72.74-.35-.11-.17.09-.22.26-1.28,0-.44.09-.27.31-.15.24,0-.3-.09-.28-.11.27-.33-.06-.35.63-.12-.23-.19-.17-.8-.11-.21.31.15.07,0,.13-.12-.15-.32-.25-.27.07.12.3-1.46.06-.28.1-.91.1-.07.08-2,.78-.06.19-.14-.19-1.87.45-.45.62h-.49l-.33-.16-.15.33-.32.37-.33-.39-.81-.09-.09.41-.51,0-.45,0,.13,0,0,.14-.12-.15-1.61-.37-.2.13-.15.14-.76.06,0,.37.08.23h-.26l-.37-.36-.25,0,0,.27.27.31.06.37-.21-.11-.22-.23-.28-.19-.05.3-.48.49-.55-.11-.59.13-.16.08.1.15.48.31,0,.38.15.14.79.12.56-.16.06-.4.08-.17h.44l.25.07,0,.28-.53.16.22.12.56.44-.11,1.06.28-.06.24-.15.39-.49-.42-.09,0,0-.12.1,0-.13v0l1-.63.07.28v1l-.63.51-.31.75-.37,0,.15.39.1.22-.28,0-.31-.18-.83.21-.12.12.16.09.39.37-.58.05-.19-.28-.59-.24-.47.32-.37-.32-.53,0-.05-.2-.1-.16-.35.38-.35.06-.14.15-1,.07-.49-.22-.3-.62h-.28l.05.15.3.41-.38.34-.15.34-.27-.3h-.2l-.5.52-.49.1-.22-.1v-.43h-.39l-.16.14,0,.26-1,.41-.87-.11-.54.38-.27.14.27.09,0,.18-.9,0-.11.15.06.44-.41-.14-.66.05-.07.6-.23,0-.62,0-.76.29-.37.21.48.32h.1l.06-.18.12,0-.14.13-.31.37-1.33.27.07.17.32.15-1.2.54.76-.13.64,0-.38.29-.34-.15-.06.48-.15.39-.29,0-.87-.3h-.91l-.81.33,1.81.5.7.45h.19l.32.17.1.26.28-.32.38-.53.09.27,0,.29.56-.26.46.13.35.48.11,1.24.31-1.3.15-.21.94-.42.26.06-.16.57.07.44.55.42.06.18.85.19-.11-.7v-.09l-.38.13,0-.19.85-.36.15.42.4-.22.42-.09.25.08,1.74-.21.4-.43.54-.38,1.72-.48.1.2.87.19.59.68.06-.16.12,0-.14.12.59.44h-.88l-.14.22.14.06,0,.13-.12-.15-.29,0-.27-.14.26.57-.33.16,0,.27.37,0-.55.42-.31.34.37.07,1.23-.21-.65.55-.46.11-.09.13.17.07,1-.21.2-.22.06-.18.14.18.39-.16,0-.52.18-.17.2.15.11.27.1-.27.4-.16.07-.18.13.18h.2l.33-.71.63-.44.78-.37.68.44.15.21.89.55,1-.11h.1l2.42,1.52,1.06.9,1.62.27h1.22l2.14,1.7-.15.36h-.4l-.21.79-.16.35-.2.06-1.27-.34-.16.1.13.15.5.06.27.13,0,.21-.27.53.06.29.13-.19.69-.4.42.4.52-.19.57.42.23.09.33-.16-.74-.45.62-.12.91.48.47-.06v-.22h-.3l-.24-.69.1-.16,1.73.28,2.31-.47,1,.41.18.28.69.35.08-.06.76.32v.35l-.35.15-2,0-.28-.1-.29.29-.71.12h-.48l-.17.14.54.16-.21.13-1,.21-.42-.21-.16.42-2.16.64h-.19l-.54.15,0,.47-1.72,2.44-.3-.15-.18-.24-1.11-.51-.26.07-.23.63.2.15,1-.3.21.36-.36.1-.49.54,0,.06-.12.08,0-.13v-.05l0,0,.2-.29,0-.29-.91.12-2.05-1,.07-.34.49.18.2.35.14.08.07-.18v-.43l-.71-1.08-.1.16-.43.13-.37-.5.12.69v.35l-.28-.23-.86-.38-.15.21-.25-.21-.38-.15,0-1.79-.41.23-.17.42.13.06,0,.13-.12-.15-.6,0-.46.41-.74,0,.15.2.64.34-.66.31-.38,0-.15.2,1,.69.38.39v-.42l.13-.19,1.09.51.13.05.05-.19-.16-.33.6-.14,1,.16-.2.33.4.17-.4.26V597h.22l.25-.09,1.15,1.38.19.34.78.33,1.22-.43.21,0-.06.29-.11.28.33.26-.13.14-.23-.27h-.19l-.41.27v.32h.21l.19.06,0,.18-.46.11-.11.24.24,0,.21.09.34-.16V600l.24-.22.35-.14.2-.67-.09-.27-.05-.39,1.54.24.76-.21,1.14.14v-.22l-.27-.12h-.61l.56-.32h.3l.77.34.3.54-.07.19-.46.22.61.43.2.49-.51.38,0,.15.17.06.79-.22.14-.68,0,0-.09-.13.12,0h.06l0,0,.42.08.07-.19.13.19,1.2.21.53-.16,1,.4,1.21.18,3.25,1.09-.08-.18-2.19-1-.88-.25-1.29-.15-1.6-.52-.17-.09.1-.15.48-.41h-1.13l0-.44.16-.11-.15-.1-.46.22-.25.18-.33-.66.29,0,.29-.29-.32-.16-.07-.19-.16.09-.24.68-.58-.35-1.07-.07-.92.18-.71-.27.06-.59.15-.35,1-1.29,1.9-1,1.17-.06.21-.06,0,.28-.35.5v1.5l.8-1.29-.36-.06.2-.29.16-.08.58-.82,1-.48,1.43-.41.25.44-.27,1.06.61-.85.24-.22.16.42.31.21.09-.28v-.22l.14-.36,2.16.43,1.91,1.3.17.07-.17.14v.65l.4.64h.1l1,.91-.09.17-.38.06-1.07.38-.2.31-.69.13-.51.64.53.17,1.13-.38.34.21.82.86.36.08,1.52,1.24,1.48,1.8.63,1.87.61,3.6-.13.24-.25-.1-1-2.45-.13-.24-1-.63-.26.05v.28l1.24,1.15-.08.66,1.31,2.4.18,1.89.35.91.56,4-.12.47-.4-.26-.71-.74-.37-.08.65,1,.54.5v2.49l-.07.1,0,.08c-1.51,0-3,0-4.52-.06-24.07-.81-47.57-7.53-71.32-11.81-5.92-1.06-12-2-17.9-.62-7.65,1.76-14.08,7.15-21.26,10.44-27.08,12.46-57.4-6.22-86.84-7-15.09-.39-34.52,1.6-40.82-13.11-9,16.42-28.36,30.41-43.67,20.81-8-5-12.29-15.21-20.16-20.56-6-4.07-13.34-4.88-20.39-5.58-10.63-1.07-19.18-2.18-26.26-3.23a13.82,13.82,0,0,1-10.63-1.74c-19.45-3.4-25.23-5.64-42-2.93a96.85,96.85,0,0,0-11.86,2.66l0-.34.29-.77.15-1.58,1.1-2-.07-.54,1-1v-.22l-.22,0-.81.53-.11.2-.85,2.06-.21.08-.11-.19.51-3,.53-1.57,1.25-1.52,1.28-1,.31-.07.67-.73.29-.17,1,.32.45-.15-.43-.52L1017,575l-.17-.27-.9-.31-.31-.06-.08-.14.87-.76h.08l.34-.54v-.55l-.14-.11.14-.07,1.6-1.1,1.82-.35.12.31v.17l.07.24.26-.17.14-.36.21.19.51.71-.23-.88.21-.37,1.2.33.86.41.48.69.14.06.17.25-.31.05.68,1.09v-1.27l-.29-.41,0-.24.18,0,1,.05,1.58.87.83,1.09.13.3.05.5-.6.23-.78-.16-.89.07-.49.29-.2-.57-.14-.07-.06.14-.26.14.24.25.25,0-.28.57-.21-.16-.39-.2-.13.09.14.09,0,.37h-1l.4.35.09.12-.14.08-1.34.44-1.09.13-.75.2-1.84.9-.06.15,2.74-.93,1-.15.87-.33.45.14,1-.19.11-.15.06.15.35-.06,0,0h0l.1,0-.07.1,0,0,.12.57.66.18.15,0,0-.12-.42-.33.17-.4.5-.36-.38-.19-.06-.16.25-.45.64-.28h.25l.49.27h-.53l-.23.09v.19l1-.12.63.18,1.29-.2,0,.32-.08.23.16.57.3.11.2.19v.35l.29.13.17-.07.21,0-.1-.21-.38-.09,0-.16.16,0h.17v-.27l-.34-.22-.16,0-.19.23L1030,576l.28-.21-.09-.24-.05-.24h.18l1,.37.65-.29.16-.28,1-1.16.21.07h.18v-.26l-.33-.23.33-.14-.16-.28.81-.13.51.11-.14.28,0,.15.1,0,.92-.43.1.16v.35l.32-.32.86-.58-.13-.17-.32,0-.56-.26.55-.29.12-.17-.63,0-.38-.34-.5,0-.1.12,0-.11.11-.05-.15-.35-.34-.2v1.51l-.33.13-.21.18-.12-.18-.73.31-.24.2v-.3l.1-.58-.31.43-.36-.12-.09-.13-.58.91v.36l0,.15.12-.07.16-.29.42-.15,0,.29-1.71.79-.77-.09,0,.24.17.24,0,0v0l0,.11-.1-.07,0,0-.42-.46-.29-.09.17-.29.83.25.17-.12-.2-.54-.21-.05-.94.42-.15.2-.25.12-1.28-1.75-.16-.29,0-.4-.47-.12h-.16l-1.8-.55-.13-.35-.36.18-.8-.18-.18-.11.46-.13-.14-.12-.41,0-.59-.1-.25-.25-.23.09-1.7,0-.29-.13v-.3l.65-.27.06,0,.58-.29.15-.24.87-.34,1.94.4,1.45-.24.09.14-.2.57h-.25v.18l.39.06.76-.41.53.1-.64.38.29.13.19-.06.49-.36.43.15.36-.32.58.32.11.16,0-.23-.23-.44v-.19l.22-.11.42,0,.11-.13-.13-.07-1.07.28-.17-.06-.14-.29-.17-.66h-.34l-.13-.3,1.81-1.42h1l1.36-.23.88-.75,2-1.28h.08l.82.09.75-.46.13-.18.57-.37.65.31.53.38.27.59h.17l.12-.15.05.15.34.13.08.23.09-.23.17-.12.16.13v.45l.33.13.12-.15.06.15.17.19.85.18.14-.07-.08-.11-.39-.09-.55-.45h0l1,.17.31-.06-.26-.28L1041,564l.31,0,0-.23-.27-.13.22-.48-.23.12-.25,0-.1.13,0-.11.11-.05-.12-.18h-.75l.51-.37-.12-.11.11,0,.05.14.49-.57.73-.16.09-.17,1.43.39.46.33.34.36,1.46.18.21-.08.35.09.33.18.13-.36.72.31,0,.16-.31-.11v.08l-.1.59.72-.17,0-.15.46-.35,0-.37-.13-.48.21,0,.8.35.12.17.26,1.09.09-1,.3-.42.39-.11.47.23,0-.25.08-.23.32.45.23.26.09-.21.27-.14h.15l.6-.38,1.52-.42-.68-.28h-.77l-.73.25-.24,0-.13-.34,0-.39-.29.12-.32-.24.54,0,.64.11-1-.45.27-.13.06-.15-1.12-.22-.26-.32-.12-.1.1,0,0,.14h.09l.4-.25-.31-.2-.64-.23-.52,0-.19,0-.06-.51-.55,0-.34.12,0-.37-.1-.13-.75,0,0-.16.23-.07-.23-.11-.46-.33-.73.1-.81-.34,0-.22-.13-.12h-.34v.37l-.18.07-.41-.08-.42-.45-.17,0-.22.24-.13-.28-.31-.29.25-.34,0-.12-.22,0-.26.53-.41.18-.79-.05-.12-.13-.3,0-.3-.32-.08.14,0,.16-.45,0-.32.27-.39-.27-.49.21-.17.23-.48,0,.33-.31.13-.08-.1-.1-.7-.17-.26.14-.23,0,.09-.19.11-.32-.3,0-.26-.63-.53-.42v-.82l.06-.24.85.53v0l0,.11-.1-.07,0,0-.36.08.33.42.2.12.23,0-.09-.89.47-.37.19-.11-.45-.12,0-.24.21-.07.37,0,.06.15.06.33.47.13.66-.1.13-.12,0-.32.41-.26.08-.13-.14-.06-.49-.12-.46.11-.41-.42,0-.26-.23.17-.19.19-.17.09,0-.3.22-.27,0-.23-.22,0-.3.31h-.23l.08-.2,0-.31-.63-.05-.12-.12-.18-.11-1.35.31-.1.13,0-.11.11,0-.38,0-.43,0-.07-.34-.7.07-.27.34-.27-.32-.13-.28-.27.14h-.41l-.39-.51-1.56-.38-.12.15-.05-.15-1.71-.67-.06-.06-.77-.1-.24-.07-1.22,0,.1-.24-.22-.08-.27.22-.1.13,0-.11.12-.06-.17-.26-.68.08-.15.15-.1.2-.3-.53-.28,0-.08-.22-.08.23,0,.26-.13-.2-.23-.26-.37-.08-1.08,0-.18-.22-.14-.07-.29.09-.61-.63-1-.07-.21.11h-.38l-.11-.26,0-.16-.12.13-.12.23-.24-.06-.53-.46-.28.2-.13.25,0-.25-.28-.21L1017,547v.37l-.18.09-.3-.22-.51.38h-.41l-.3.1-.22.36-.61.34.09.22h1.13l.3.41-.18.13-.68-.19-.67.19.51.18.52.1.31,0-.24.11,0,0-.17.2-.21.38-.11.71-.74.47-.18,0-.75-.43h-1.17l-.06.07-.12.47-.44-.17-.14.08-.53.18-1,0-.17,0-.22-.26-.14.26-.16,0-.33-.43-.13.19-.9-.25-.21-.44-.27.33,0,.05-.09.11-.09-.13-.37,0-.08.11-.37-.18h-.55l.5.46v.17h-.16l-.43.28v0l0,.11-.08-.07-.53.32-.1.11-.23-.26-.27.32-1.08.46,0,.16.31.06.14.07-.14.12h-.46l-.33.16-.22-.17-.68.17-.14-.07.09-.1.4-.37-.8-.36-.32,0,.09-.24-.71-.27-.05.17v.05l0,.11-.1-.08,0,0-.54-.21-.3.17-.42-.17-.31.07,0-.06-.24.3-.23.17-.1.13-.53-.35v-.26l-1.51.44-.63-.12,0-.15-.07-.33-.1.36-.31.11-.18-.08.07.31.2.14-.22.06-.07.23.19.11.77.23,0,.12-.39.14-.71.13-.44.66v0l0,.1-.1-.07,0,0-1,.13-.17.35.34.37.11-.15.14.49-.25-.16-.69.18-.27.13.32.23h.33l.13.08-.2.09v.23l.2.25-.31.07-.39.3-.29.06-.21.18-.3-.48-.08-.23-.09.21-.43.36h-.3l-.4-.26-.24.06-.46.25-.36-.44-.16-.1-.13.23-.06-.24-.16,0-.71.43-1.21.19,0,.22v.24l-.21,0-.54,0-.51.6-.25,0h-.11l-.47,0-.33.2-.74.18-.1.13,0-.11.12,0-.15-.29-.32-.26-.35.53-.36-.11-.55-.28-.24-.29-.61.34-.43-.07-.4,0-.13.3.5.19-1.24.26-.17.2-.09.44-.21.09-.71,0-.28.76-.17.13-.14.06.09.11.67,0,.06.14,0,.16-.71.43-.67.71v0l0,.1-.1-.07,0,0-.54.11-.39,0-.34-.1-.37.31-.25-.11-.17-.24-.27.22-.12.29-.45-.33h-.68l.06.21,0,0v.05l0,.11-.11-.08,0,0-.54-.23.16-.27-.18-.17-.29,0-.46.11h-.44l.37-.55-.37.13-.53.1-.11,0-.14.27-.57-.12-.14-.06-.68.79.11.26-.45-.15-1.3.73-.06.28-.2.47-1.66,1,.32,0,.22.29.22.06.44-.17-.08-.16.54-.09.38.08.48-.13-.31.66v.26l.22-.06.59-.39.18-.19-.29-.12-.17.09v-.24l.68,0,.14.07.11-.15.07.15.33.18.32-.25.36-.11.85.06.46-.06.15,0-.07.18-.28.5h-.44l-.34.54.14.36h.5l.2.18-.23,0-.09.19.15.14.65-.24.54.09.28-.42h.36l.76-.64.35.15h0v.06l0,.1-.1-.07,0,0-.22.06.08.26.11.17.5-.72h.85l.48.24,2.16.33.07.15.11.16.06-.24.2-.08.12.27-.08.26.7-.33.16.3,0,.43-.29.33-.17-.23,0-.25-.21-.07,0,.35h-.25l.06.14.22.08V568l-.31.2-.47-.34h-.08l-.24-.29-.09.5-.09.25.27.13,0,.29-.31,0-.1.46.24-.1h.31l-.33.52.34.37-.07.37-.27-.14-.63.34-.5-.36-.49-.16,0-.44-.07-.14-.22-.28-.33,0-.07.24-.09-.21-.17-.18-.1.38-.23-.41.17-.12.15,0-.27-.21-.22-.08.18-.1.48-.19-.7-.21-.4.22v0l0,.11-.11-.08,0,0-.55-.64-.15,0-.13.25,0-.24-.25-.13-.32,0-.1.11.14.07.25,0,.09.19-.15.15-.31,0-.18-.06,0,.24-.06.24-1,.31.84.08.06.16-.06.15-.24-.11-.12.3-.87.41.08.15.86.29-.41.25h-.25l.68.27.39-.1v-.23l.09-.36L973,570l.25.36.18-.26.09.17.4-.14-.5.42h-.06l0,.37v0l0,.1-.1-.07,0,0-.27.14,0,.18.15.21,1.63.42h0l.1,0-.07.11,0,0-.15.8-.06.15.85-.36.12-.39.33-.13,0,.33,3.9,1.27.72,0,.68.2,1-.11.87.31,1,.16,4.87.18.47.15.1.2-.29,0-.35.27.18.18.17.31v.42l.34-.41.56-.42,0-.24.09-.18v.52l.17.17.42,0,.36-.79,0,0,.15,0-.08.11,0,0,.12.39.59-.72.08.15.09.38.58-.63-.21-.09,0-.15.43.17v.89l.29-.3V574l.62-.35H994l1.9-.18-.07-.16-.25-.13.21-.06.11.08-.07.11.21.11-.14,0-.89.73-.13.17,1.2-.63.85-.28,2,.55,3,1.62,2.51,2.21.42,1.08-.36.25L1004,579l-.17.13.08.23,1.72,1,.75,2.3,1.07,6c-14.54,5.14-19.39,11.58-37.7,10.62a78.3,78.3,0,0,1-9.52-1.13,78.3,78.3,0,0,1-9.52,1.13c-23.69,1.25-24.85-9.91-53.62-14.59-24.31-3.93-25.5,2.55-78.88,7.9-7,.7-14.4,1.51-20.39,5.58-7.87,5.35-12.12,15.52-20.16,20.56-15.31,9.6-34.72-4.39-43.67-20.81-6.3,14.71-25.73,12.72-40.82,13.11-29.44.75-59.76,19.43-86.84,7-7.18-3.29-13.61-8.68-21.26-10.44-5.88-1.36-12-.44-17.9.62-23.75,4.28-47.25,11-71.32,11.81a118.06,118.06,0,0,1-20.63-1.09l.25,0h.1l.2-.26-.12-.77.2-.88,0-.43,0-.28-.17-.51.16-2.28L477,607l.76-2.3,1.74-1,.08-.22-.17-.13-.49.07-.36-.25.42-1.07,2.54-2.22,3-1.62,2-.54.86.28,1.2.63-.13-.18-.89-.72,1.12.11.21.06.08,0,.5,0h.25l.63.36v.62l.29.3v-.89l.44-.17-.05.15-.22.08.59.64.09-.39.08-.14.6.72.12-.39,0,0-.08-.11.1,0h.05l0,0,.36.78.43,0,.17-.16v-.52l.1.18-.05.25.57.42.33.4v-.41l.18-.32.18-.17-.36-.27-.29,0,.1-.19.49-.14,4.91-.19.09,0,.06,0,.85-.13.55-.21-.26,0-.18-.18.11-.1.56-.92v-.27l.29-.22,1,.65.25.05.59.23,1.14-.34.07-.07,1.05-.29,1.17-.09.16.11-.11.13L503.45,598l.29,0,3.93-1.27.06-.33.33.13.12.39.85.35,0-.14-.14-.77v0l0,.05-.08-.11.1,0h.05l.05-.21,0,0-.07.19,1.66-.43.16-.2,0-.18-.28-.14,0,0-.1.08,0-.1v-.06h0l0-.36h-.06l-.51-.43.41.15.09-.19.18.28.25-.36.12.13.09.35v.24l.39.1.69-.28h-.25l-.42-.25.87-.3.08-.14-.88-.41-.12-.3-.24.09-.06-.14.05-.15.86-.08-1.06-.32-.06-.24v-.24l-.18.07-.31,0-.16-.14.1-.2h.25l.14-.08-.1-.1-.32,0-.25.12-.06.25-.12-.26-.16,0-.57.64,0,0-.1.07,0-.1v-.06l-.39-.22-.72.22.5.19.17.1-.22.08-.28.2.16,0,.17.11-.23.42-.11-.38-.16.17-.09.21-.08-.24-.32,0-.22.28-.08.14,0,.44-.49.15-.52.36-.63-.34-.27.15.13,0,0,.12-.1-.13-.08-.41.35-.37-.33-.54h.31l.24.11-.1-.47-.31,0,0-.28.28-.14-.09-.25-.09-.51-.24.3H505l-.47.35-.32-.2v-.12l.22-.07.06-.14h-.25l0-.35-.21.07,0,.25-.17.22-.29-.32,0-.44.16-.29.71.31-.08-.24.12-.28.2.08.07.25.11-.17.06-.14.79-.12.19.1h.33l.07-.18.81-.13.47-.23h.86l.5.71.12-.17.07-.25-.22-.08,0,0-.1.08,0-.11v-.05h0l.35-.15.78.63.36,0,.28.41.54-.09.67.25.15-.14-.09-.19-.23,0,.2-.18h.51l.13-.36-.34-.54-.44,0-.29-.49-.07-.18.16,0,.46.06.86-.06.36.11.32.24.34-.17.06-.15.11.15.14-.07.68-.05v.24l-.18-.08-.29.11.18.19.6.4.23.06v-.26l-.31-.67.48.14.4-.08.54.08-.08.16.45.18.22-.06.22-.29.33,0-1.69-1-.2-.47-.06-.29-1.32-.72-.45.15L514,587l-.68-.8-.14.06-.58.12-.14-.27-.11-.05-.53-.09-.37-.13.37.54h-.45l-.46-.11-.29,0-.19.15.17.29L510,587l0,0-.1.09,0-.11v-.05l0,0,.05-.21h-.68l-.46.33-.12-.29-.28-.22-.17.23-.25.12-.37-.31-.33.1-.4,0-.54-.12,0,0-.1.07,0-.1v0l-.68-.72-.71-.42-.05-.16.07-.14.67,0,.09-.11-.14-.07-.17-.13-.28-.77h-.72l-.21-.09-.1-.44-.16-.2-1.27-.26.52-.19-.13-.3-.42,0-.43.07-.62-.33-.24.28-.55.28-.35.12-.36-.54-.33.27-.14.29.11,0,0,.11-.1-.12-.74-.18-.34-.21-.48.06H498l-.25,0-.51-.6-.55,0-.21,0v-.24l0-.22-1.23-.2-.72-.43-.15,0-.06.24-.13-.23-.16.1-.37.43-.47-.24-.24-.07-.39.27-.32,0-.43-.34-.09-.21-.07.23-.31.46-.21-.16-.3-.06-.39-.31-.31-.07.2-.25v-.22l-.21-.1.14-.07h.34l.32-.23-.28-.13-.7-.18-.26.15.15-.48.11.15.34-.38-.16-.34-1.06-.13,0,0-.1.08,0-.1v0l-.44-.66-.7-.13-.4-.14,0-.12.77-.23.19-.11-.07-.23-.23-.08.21-.13.07-.3-.18.08-.3-.12-.11-.35-.06.33-.06.15-.64.12-1.52-.44v.26l-.53.34-.11-.12-.23-.17-.24-.3-.06.06-.3-.07-.44.17-.3-.17-.55.21,0,0-.1.08,0-.12v0h0l-.06-.17-.71.27.09.24h-.33l-.79.37.4.37.09.1-.14.07-.69-.17-.22.16-.34-.15-.46,0-.15-.12.15-.06.31-.07,0-.15-1.08-.46-.28-.32-.24.26-.09-.11-.53-.32-.09.07,0-.11v0l-.44-.3H477v-.16l.51-.45-.57,0-.37.18-.08-.12h-.37l-.1.14-.08-.12,0,0-.28-.33-.21.44-.9.24-.13-.19-.33.44-.17,0-.14-.27-.22.27-1.16,0-.54-.18-.14-.07-.44.16-.12-.46-.06-.07h-1.2l-.75.43-.18,0-.74-.46-.12-.72-.21-.37-.17-.21,0,0-.24-.1.31,0,.52-.09.51-.18-.67-.2-.68.19-.18-.12.3-.41h1.14l.09-.22-.62-.35L468,572l-.3-.11h-.42l-.51-.37-.3.2-.18-.08v-.36l-.4.06-.28.2-.06.25-.12-.24-.29-.2-.53.46-.25,0-.12-.21-.13-.13,0,.15-.12.27h-.38l-.21-.12-1,.08-.61.62-.29-.09-.14.08-.19.21-1.09,0-.37.07-.23.27-.13.2,0-.26-.08-.23-.09.22-.28,0-.3.54-.1-.21-.16-.14-.69-.08-.18.25.13.06,0,.1-.1-.11-.27-.22-.23.07.1.25-1.23,0-.23.07-.78.1-.06.06-1.73.66-.05.15-.12-.15-1.59.38-.38.51h-.42v.59l.13.06,0,.11-.1-.13-.14-.1.14-.12-.28-.15-.12.29-.28.31-.28-.33-.69-.08-.08.36.38-.22.14.07-.37.29-.15-.14-.43,0-.39,0,.12,0,0,.11-.1-.12-1.37-.32-.17.11-.13.11-.64.06,0,.31.08.2h-.23l-.32-.31-.22,0,0,.24.23.27.05.31-.18-.1-.18-.19-.24-.17,0,.26-.42.43-.46-.11-.5.11-.15.07.09.13.41.27,0,.31.12.13.68.1.47-.14.06-.34.07-.15h.37l.22.08,0,.22-.46.14.19.11.48.38-.09.89.23,0,.21-.13.33-.42-.36-.08,0,0-.1.08,0-.11v0h0l.86-.53.06.24v.83l-.53.43-.26.64-.31,0,.12.32.09.2h-.23l-.27-.14-.72.18-.1.09.14.09.33.31-.49,0-.17-.23-.5-.22-.4.28-.32-.28-.45,0,0-.16-.09-.14-.3.32-.3.06-.12.13-.8,0-.42-.19-.26-.53h-.23l0,.13.26.34-.31.31-.14.28-.23-.25h-.16l-.43.45-.43.09-.18-.09v-.37h-.34l-.13.13v.22l-.81.35-.74-.09-.46.32-.23.12.23.07,0,.16h-.76l-.1.13,0,.38-.35-.12-.55,0-.06.51-.2,0-.53,0-.64.24-.32.19.41.26h.09l.05-.14.1,0-.12.11-.26.32-1.15.23.06.15.28.13-1,.46.64-.12.55,0-.33.25-.29-.13-.05.41-.13.33-.24,0-.74-.25h-.78l-.68.28,1.53.43.6.37.16,0,.27.15.09.21.23-.26.33-.47.08.24,0,.24.49-.22.39.11.3.41.1,1.06.26-1.11.12-.17.81-.36.21.05-.13.48.05.38.47.36,0,.14.73.18-.1-.6v-.08l-.32.11,0-.17.72-.31.13.37.34-.19.36-.08.21.07,1.49-.18.34-.36.47-.33,1.45-.41h.07l.05-.31.1,0-.11.11.08.17.74.17.49.57.05-.14.1,0-.11.11.5.36h-.75l-.11.18.11.06,0,.11-.1-.13-.24,0-.24-.12.22.49-.27.13-.05.22.32,0-.47.35-.25.28.3.07.53.24,0,0-.38.09-.08.12.14.06.68-.15.17.09v-.13l.16-.17,0-.15.12.15.33-.13v-.45l.16-.13.17.12.08.22.09-.22.34-.13.05-.15.1.1.27-.59.54-.38.67-.33.59.39.13.17.76.49.85-.1h.08l2.09,1.3.9.78,1.4.23h1l1.85,1.46-.13.31H455l-.18.68-.14.29-.17.06-1.1-.29-.14.08.12.13.43.06.23.1,0,.2-.23.45,0,.25.11-.18.59-.33.37.33.44-.16.5.37.19.07.29-.14-.64-.38.53-.11.78.42.4,0v-.19h-.58l-.1-.29,0-.09-.06-.07,0,.07-.06-.2.09-.14,1.44.24,1.92-.4.86.36.15.22.57.29.06,0,.63.27v.29l-.29.13-1.67,0-.23-.09-.24.25-.59.1h-.41l-.13.11.45.13-.18.11-.79.18-.36-.18-.13.36-1.79.53h-.16l-.44.13,0,.4L454,599l-.25-.12-.15-.2-.92-.42-.22,0-.19.53.17.12.82-.25.17.31-.3.07-.4.46,0,.05-.1.08,0-.11v-.05l0,0,.17-.24,0-.24-.76.1-1.71-.8.06-.29.41.15.16.29.11.08.06-.17v-.35l-.58-.9-.08.13-.36.1-.31-.42.1.58v.3l-.23-.2-.71-.32-.13.18-.21-.18-.32-.13v-1.5l-.34.2-.15.35.12,0,0,.11-.1-.13-.5,0-.38.35-.62,0,.12.17.54.28-.55.27h-.32l-.12.17.85.58.31.33v-.36l.1-.15.91.43.1,0,.05-.15-.14-.28.51-.12.79.14-.16.28.33.13-.33.23v.18h.33l.21-.08,1,1.17.16.27.67.3,1-.37h.17l-.05.24-.09.23.28.22-.12.12-.18-.23h-.16l-.19.23v.27l.18,0,.15,0,0,.15-.38.08-.09.22.2,0,.17.08.29-.13v-.36l.19-.18.3-.12.16-.55-.07-.22,0-.33,1.28.2.62-.17,1,.1v-.17l-.23-.1h-.51l.47-.26h.25l.63.28.25.45-.06.15-.38.18.5.37.17.39v0l.13.06,0,.11-.1-.12-.43.33,0,.12.14,0,.67-.18.12-.57,0,0-.07-.11.1,0h.05v0l.36.06.05-.15.12.15,1,.18.45-.14.88.34,1,.16,2.75.92-.06-.15-1.86-.89-.75-.21-1.09-.12-1.35-.46-.14-.06.08-.13.41-.35h-1l0-.37.14-.1-.13-.08-.39.18-.21.16-.29-.57.26,0,.24-.24-.27-.13-.06-.15-.15.06-.2.57-.49-.29-.89-.06-.79.16-.6-.23,0-.5.13-.3.82-1.1,1.6-.88,1-.06.18,0,0,.24-.29.42v1.28l.68-1.1-.31-.06.17-.24.14-.07.49-.7.86-.4,1.21-.35.22.38-.23.89.51-.72.2-.18.13.35.27.17.07-.23v-.19l.12-.3,1.84.36,1.62,1.11.14,0-.14.13v.18l.34.55h.08l.85.72-.7-.73,0-.12.81.87-.09,0,0,0-.08.14-.31.07-.91.31-.17.26-.59.1-.43.54.45.15,1-.32.29.17,0,0,.13-.14.47-.32.44-.11,1.16,1.08.28.86v.36l-.21.09,1.23,1.48.54,1.57.52,3-.11.19-.21-.07-.88-2.07-.11-.19-.82-.54-.21,0,0,.24,1.06,1-.07.55,1.12,2,.16,1.58.3.76.47,3.39-.1.39-.34-.2-.61-.63-.31-.07.55.84.46.41v2.1l-.07.09.19.71c-16.11-2.81-31.46-9.4-43.21-21.32-4-4-7.91-8.87-13.31-9.86s-10.74,2.28-15.75,4.85c-35.39,18.13-79.14,4-115.31,20.33-15.59,7-35.31,18.77-47,5.64-.68.07-1.35.15-2,.27L234,611.71l-.15-.27-4-11-5.43-9.53,0-2.72,1.66-2.24,4.66-3.68,2.93-1,1.35,0,.11-.27-1.11-1.41-.07-.76,1.69-2.44,2.66-2.46L248.57,568l2.58.09,1.46.48-1.11-1-.12-.69,1.94-1.35-1.46.25-.38.24h-.27l0-.27.2-.23,3.26-2.7,1.49.11.79-.3.53-1.48.21-.22.18.36,0,.31.33.23.15-.24V561l.52-.57.42,0,2.66,4.09-.46-2,0-1,2-.14.92-.63,1-.19,1.1.18.52-.88,1.06-.5.74.51.25-.16.43-.55,1.33,0,.26-.13-.24-.15-.59,0-.27-.09.3-.15,3.8.54,1.33.91,1.19,2.54.61,2.09.19.38.12-.44,0-1,.05,0-.28-1.87-1.07-1.41.36-.46h.53l-.37-.44-.53-.28.07-.47-.09-.46-.35-.06.26-.35,1.29-.78.53.06,2.32.93v-.13l-.59-1.34,1.7.09.63-.53-.4-.75.12-.36h3.93l1,.13,3.17-.14,2.17-1.55,1.67-.77-3.23,1.14-.49.26,0-.74.5-1.21-1.24.23-.35.62-.72.35-.19.6-.15.31-.72.06,0,0-.7.45-2.24-.74.89-.19.36-.4-.27-.42-.32-.25.4-.34,1.85,0v-.61l-.82-.11-.19-.37-.17-1.75-.53-.21.21-.54,1.06-.89-.12-.56-1,.47-.83.91-.25,0-.13-.35.06-.55-.66,0-.12.56.26.73-.24.58-2.79-1-.77,0,.29-.82.8-.27,2.2-1.11.38-.47,1.18.06.34,0,.56-1.7.37-.84,2.56.13.25-.28.1-.55.7-.54.37-.8v-.64l.91-.74,1.77-.6,2.68-1.3,4.29.56.27-.81-.74-.93-.08-1-.19-.21-.63.59-.52,0-.09-.55.59-1.23-.06-.28-.24.07-.1.12-.8.74H296l-.05-.4-.3-.24-.34.49-.18.42-.43-1-.2-.21-.13.26-.07.62h-.46l-.33-.05-.64.17-1.94-.52-.33.25-1.56.27-.86,0,0-.34-.2-.35-.25.63-.33.45v-.54l-.48-.4-.06-.49,1.07.28-.1-.18.7-1.21.41-.33.08.57.52.15,1-.69-.25-.63.29-1.07-.32-.26,2.26-1.66-.48-1.1-.5-.35-.33-.05-.45-1.29-.2-1.42-.41,1.29.08.46-.36,1.17-.66-.55-.26,0,0,.37-.19.45-1.22.65-.4.06-.3.47-.19-.11.26-.61-.3-.75-.8,1.08,0,.17-1.44,1-.79.11-.33,1,0,0,0,.3-.47.44-.27-.06-1.39-.08-.5-.13,0-.26.49.2,0-1.67-2.1.58-.25,0-.06-.79.39-.72,1.11-.09-1.92-.67-2.21,1.34v0l-1.22-.93-.84-.17-3,.18-.94.28-.87-.63-1.32-1.26h0l-.71.25-1.27-3-.43-.34.06.59-.15.38-.3-.23-.44-.12.12,1,1.13,1,.16.25-.37,0-2,.51-.1.12-.77-.07-.41-.67-.44,0-.74,1.31.24.28-.51.72-.19.41.1,1.88-.39.35v-.55L260,530l-.28-1.92-.46-.19-.43,1.42-.65.86-1.25-.28,0-.22,1.36-1,.16-.21.16-.78-.62.24-.66.11,1.23-.82.17.37.1-.12-.16-2-.85-.13-.09.52-.08.27-1-.44-1.42.39-.94-.18,0,.4-.21.33-.28-.32-.08-.43h-.28l-.33.92-.76-.15-.13-.78-.13-.43-.26.36-.71,1.33-.22.17-.07-.29.27-.89-.6-.67-.78.2-.1.66-.35-.49-.34-.68-.52-.06.14.5.05.29-.81.43-.32.49-1-.38-.87,0-.63,1-2.16-1.42-.1-.38-.28.32-.36.64.37.91-.67.27-.23.68.2.68-.75-.08-.2-.39-.19.36,0,.8-.12.29-.2-.17-.72-1.65-.86,1.28-1.24.06-.21.3-.48-.51.31-.2.23-.35.57-.36.15-1.24-.17-.21-.19.14-.08.64-.3.46-.48-.43-.6-.76-.58-.45h-.26l-.05.28.3.68-.72-.33-.35-.29-.21.47,0,0,1.13,1.74.38.23,0,.35-1.09.69L234,530l-.54.26,0,0,.68,1.16-.84.1-1.06.7h0l-.6,1.87-.91-.3.08.47-.52.85-.72,0-1,1.13-.33-.46-.06,0-.33-.19.1-.32.24.06.42-.31.43.06.29-1.34,1.1-.59.4-1.95.22-.59-.66-.17-.42.08-.14-.24.32-1.34.64-.58.78.24-.26-.82-1.49-.55-.08.73-.43,1.28,0,.71-.41,1.8-.22.24-1.12-1-.56-.27-.47.6-1,.51v0l-.53.48v-.11l.25-.38-.46-1.52.21-1-1.08-.16-.53.07-.24.38.67.61-2.07-.61-.33.3-1.5-.38h-.28l-.17-.34.28-1.05.4-.48.49-.18.82-1.4,0-.24.23-1.23-.06-.29-.25.15-.61,1.26-1.55,1.63-2.4-1.14-.21-.33-.33-.35-1.11-.08-.29,0,0,.22-.07,1.2.18.74.47.3-1-.09-.45.22-.34.34-.54-.48-.58-.11-.35-.14-.06-1.48,1.45-3-1.38,1.9-.67,1.2-1,.4-.23-.6-.26-.35h-.28l-.1.23.23.4,0,.43-.37-.16-.45-.41.1,1-.65-.26-.61.33-.22.17-.34.56-.42-.87,1.13-.84,0,0,.09-1.1-.1-.29-.21.19-.8.22-1.8.92,1.29-.11.08.57-.37,0-1.14-.08-.46.29-1.4.56-.4-.51.44-.1.7-.26-.53-.41-.65-.16-2,.49-.34.71.21.34-.31.44-.21-.47L199,526.09l-.89.54-.27.21-.13-.26-.6-.51-1.18.24-1.22.52-.5.62,3.36.74.24.49h.28l.4.12-.27.3-.18.42.53,0-.2.45-.23.29h-.33l-.8.68-.32,0-2.19-.7.45.56-.38.56-.58-.09-.35-.61-.94,0-.39-.65-.46.09-.61.47L191.1,532l-.32-.33.23-2.08,0-.59-.83,1,0,.43-.14.85-.57-.36-.68-.08-.31-.39,1.23-.29v-.07l-.33,0-1.18-1.77-.31-.24-.32,1.24h-.5l-.29.86-2.36.85-.9.63.14.63-.22.29-.71-.21-.27,0,1.07,1.65.42-.29.72,0,0,.61-1.11.24-.12.76-.44-.21-.41.32-.21.33-.28-.34-.1-1.42-.4-.79-.31-.33,0,1L180,534l-.35-.57-.75-.27-1,.14-1.31-1-.83.3v.4l.26-.12.22-.22.37,1.14-.66.14-3.11-.81.16.37.22.39-1.8.06-.86.27-.5.36-.88-.28-1.06-.83-.33,0,0,.31,1.08,1.35-.2.39-.29-.19-.32-.46-.28.59-.39.58-.37.31.51.13,1.28-.23.41.41-.29.68,0,0-.06,1.14,1.2.16-.42.2-.78-.33-.1.11-.43.13-.65-.41-1-.34-2.38-.08-.82-.23.4.69.18.53.33.17.41-.36,2.1.52.06.24-.4.13-.29,1.6,1.47.63.49-.22,1.94.66.16.24-.12.09-1.87.16-2,1,.16.44.27.53-.48.14-.5-.31-.39-.15-.14.72.51.21-.14.73.3,1.13-.53-.29-.62.35-2.12.82-.17.3.22.59-.76.86.3,1,0,.29-.34-.14-.45-1.16-.42-.57-1.4-.29-.37.05.23.57H160l.37.56-.09.56.38,0,.31.33-.34.15-.38-.15-.49.48-2.89.39.31.3,2,1.18.12.43-.4,0-.88.74,0,.77.45.43.34.19-.31.24,0,.48,1.22.94,1.24-1,.14-.06h0l1.38,1.3.73.53-1,.21-.28,0-.17.17.25.31.72-.06,4.72.7,1.74-.07.84-.21,0,0,1.48.32.31.42,0,.85.44,0,5.36-1.2,1.87.23,1.21-.12,5.75-2.37,1.31.11-.53,1.1.05.26.27,0,.38-.22.26-.51,1.62-1,1.62.45.08.39-1.1-.16-1.11.35.29.94-.11.71H189l-.39-.22-.34.37v.62L186.9,562l-1.05-.24-.53.08.08-.19-1.26-.28-1-.49-.33.14-.2,1.33.29.31.78.14.41.29,1.19,0,.48.66-.23.16-.53-.57-.9,0,.25,2.2v.27l.26,0,.73-1,.86-.2,2.25-1.72.26.13,3.53.72.44-.12,2-.86.29.19-1.18,2.16.42.09,1.37-1.33,2.54-1.75.66.21,1.73,3.49,1.76,1,.12.37-1,.29v-.22l-.57-.85-1.08-.5-.83-1.11-1.16-.54-.43.37.4.26.79.85.92,1.8.2,1.11-.35.27-.05.66.52.34,1.73-.4,4.67,1.34.18.23-.21.12-1,.12-.37.1.39.39h.72l1.61.25.25.15-.2.17-1.71-.1.65.43-.79.5-.46-.46.36-.48L203,572l-7.61-1.35-4.12,2.22,0,.14.21.15,6.74-1.53,4.54,2.11.23,1.2.06.69,1.3-.18,1.6,2.28-.06.43-.39.05-1.27-.7-1.46-.56-1.14-.78-.91-.16.57.63,3.13,2.45,0,.5-.21.62,1.57,0,1.95-1.39,1.24.47,1,2.11L216,587l8.11,12.54,3.77,10.77,1.6,9.8c-18.53,8-30.32,35.8-51,36-5,0-10.05-1.65-14.85-.24-4.59,1.36-8.06,5.27-11.76,8.49-23.6,20.53-57.95,13.83-87.81,19.8-2.45.49-5.11,1-7.35-.12a11.54,11.54,0,0,1-3.32-3.11L28.78,651A98.55,98.55,0,0,1,2,654.19l-1.31,0V957.76h1919V654.15Zm-105.79-29.53-.2.32-.31.07-.35-.36.31-.25Zm0-11.25.24.17.69.81-.5,1.87-.37-.12-.75-1.35Zm-14.48,1.4,4.34-1.07.19.28-.79,4.29-1,.43-2.33-1.62-.6-1.26Zm2.67,14.61-1.44,1.2-1.43-.46-3.16-3.27L1793,624.2l0-.58,1-2.45.89-.55,1.21.3,1.85,0,.44.42,2.38.38,1.07,1.3.46,1.08Zm1.5-9.37.38-.16,2.66.61.61.42.67.13-.28-.6-1.71-1.64-1.55-.09-.58-.66.45-1.92.22-1.8.7-.52,4.31.47,2,.75,1.56,4.48-4.46,4.85-1.68.39,0-.11-.72.09-.37-.28ZM1572.2,588.26l-.43.17-.32-.52-.93-.9-.88-.57-.56-.27-2.11-.29-1.87-1.25-.39-.81.16-.56.87-.42.93.6,8,3,1,.61.51,1-.26.17h-1.21l-.37.16,0,0,0,0,.08.11h-.07l0,.07-.1-.08-.89-.13Zm6.09,5.8-.31.07-4-3.87,1.47-.26.46,0,.45-.13h.58l.45.36.93,3.55Zm-141,1.82.52-.43.69,0,.54.14.54,0,1.75.31-4.7,4.61-.36-.09-.09-.27Zm-12.56.63v.19l-1-1.06Zm-1.12-.68,0-.14,1,1-.1,0Zm2.93,4.72-.25.11-.47-.31-1.76-1.65-.28,0-.26-.11.22-.22.56-.38.53-.14,1.38,1.29.33,1ZM1015.1,573.61l.81-.73-.82.9Zm-.09,1.09.45.12.47.31.17.19-.21.09-.23,0-1.48,1.38-.4.27-.21-.1v-.35l.27-.86Zm-1.94-2.27,1.11-.82h.15l.07.23-1,1.63-.11.11-.06-.06-.35-.56Zm-18.94.8-.34-.16-.14-.37.18-.1.46,0,.12.3.23-.1.22.23Zm7.92-1.25.21.07-.37.36-.12-.26Zm-1.17-.19-.13-.08.27-.26.09.23Zm4.51,5.06-.31.08-4-3.88,1.48-.25.46,0,.45-.13h.58l.44.37.93,3.55Zm-496.57,18,.11.26-.12.35-.21-.08Zm-30.33,3,.43-.36.59,0,.45.13.45,0,1.47.26-3.94,3.87-.3-.07-.08-.23Zm-1.28.35.09.19-.6,1.83-.13.2-.12.13-.08-.14-.34-1Zm-9.28.35-.81-.89.81.73ZM284.81,549.86l.24.44-.25.16-.21-.52Zm-.32,3.51-.08.43-.16-.37Zm-2.52.86.23.2-.61,0-.16-.14Zm8.37-25.71,0,.31-.22-.14-.07-.38Zm-.39,7.73,1.77-.94.55,1-.44.51.36.09-.09.34-1.52.58-.52,0-.5-.32Zm-2.78,5.23,2.08-1,.45.48-.29.94-.57.62-1.4.32-.8-.71ZM280.09,555l.13.31-.51.07v-.21Zm-1.32.91,1.22.48-1.31.14-.63-.58Zm-4.33-26.66.18.35-.18.14-.24-.27Zm-5.81-1,.36.18-.41.36-.22-.1Zm-2,30.08.28.25-.26.38-.36-.5Zm-.25.85.25.39-.24,0-.36-.31Zm-1.28-1,.27.31L265,559l-.4-.29Zm-1,.83.5.34-.38.4-.14,0-1.2,0-.05-.23Zm-4,.43,2.35.68v.26l-1,.62L260,560.2Zm-2.34-31.18.1,0,0,.11-.31.43-.17-.18Zm-1-.87.89-.36.07.41-1.15.59-.07-.11Zm-1.51.26.11.39-.63,0-.15-.33Zm-1.07-.48-.18.2-.19-.36Zm-11.87,41,5.32-2.84.35.18-.13.23-5.71,3.11-.07-.29Zm-13.24-35.79.33.44-.32.27-.27-.48Zm-62.27,21.91-1,.69-.33,0-.52,0-.49-.49.3-.45,1.89-.48.25.29Zm3.95,4.56-.78.38-2.28-1-.27-.66.44-.6-.05-.33.57-.87,0,.18.84.45.47-.31h.14l.08.24-.17.24.48,1.34.19.28.41.13.29.41Zm17.42,3.95-.19-.1.36-.59.25.12Zm41.59,16.32-1.68.38,0-.1-.73.08-.37-.28-2.22-4.41.38-.16,2.67.61.61.42.67.13-.28-.6-1.72-1.63-1.55-.1-.58-.66.45-1.92.22-1.8.7-.51,4.31.46,2,.75,1.57,4.49Zm5.73-8.12-.37-.12-.75-1.35.69-1.38.24.17.69.82Zm1.83-2-.87,0-.73-1.22.12-.07,1.06-.09.76.18Zm.55-3.17-.89,1L234,568.39l-.92.23-.84-.21-.21-.74.72-.79,2.21-1.77,2.43-1,.68.84Zm-1.48-37.59.44,0-.23.18-.31-.15Zm-5.79,37.77,1-3.4,1.54-2.12,2.33.64.59.69.74.28.55,0,.9,1-1.06.32-3.66,1.8-2.43,2.46-.7.36-.47-.56Zm-3.39-33.85.64-.31.36.1.15.42-1.37,1.79-.08-.84Zm-2.86,32.82,3.25-1.17.46-.72.09-.45.36-.13.22.2,1,1.42-2,1.9-3,.13v.06h-1.38Zm-3.78,4.59,4.34-1.09.19.29-.79,4.29-1,.42L221,572l-.6-1.26ZM207.29,558.1l2.05-2.13.4-.07.1.41-.11.91L208.2,560l-1.14-.59,0-.49Zm1.13,2.71-.27,1-.2,0-.23-.86.37-.48Zm-5.62-33.58.32.48-.26.18-.23-.48Zm-4.55.34-.23-.11.35-.4.29.15Zm.84,29.44,4,1,.16.31-1.55.8-2.11-.54L198.5,558Zm-2.15,1,1.54,0-.44.6-1.89.63-.28-.61Zm-.46-1,.21.28-.49.63-.37.75-1.41-.91Zm-4,1.35.7-.3v0l1.17-.3.09.79-1.89.36-.35-.22Zm-1.57,3.32-.79.07.4-.72,0-.12,1.43-.9.35-.08.06.4-1,1.19Zm2,0-1.36.44-.07-.54,1.33-.27.24.12Zm-.09-2,.62-.4.5.12-.66.52Zm3.37,1.68-1.67.48-.89-.6.14-1,1-.18,1.36.59.34.29Zm2.1-.3-2.22-1.39.09-.26,2.28-.26,2.85.47,2-.42.9.21.67,1.74-.05.27Zm8,8.07-3-.62-.22-.14.12-.1,3.2.63.1.11Zm-2.44-4.12-2-3.38,0-.25h.27l2.65,1.31,3.28,5.46-.08.18-.24-.09Zm4.46,11.91-.22-.33.38-.09.53.24.19.33Zm1.09-1.79-.36.91-1.58-.41-.28-.36.44-1.84.82-.31,1.17,1.17Zm1.45-6.83-.46-.74.4-.26.45.23Zm.41-3.12.12-1-.56.54-.17.73-.7.45-.64-.47-.52-2.9.59-.32.25-.26-.27-1.43,1.67-2.15.56.21,1.47,4.87-.2,1.37-.54.73-.55.31Zm3,5.3-.27.48-.37-.13-1.32-1.21-.14-1.38.3-.27.31.07Zm-2.25.84.2-.08.24.32-.29.11Zm1.76,5.15-.81.14-.56-2.32.13-.92,1.24-1,.56.13.57,1.27Zm.59-15-.62-2.7-.44-.93.35-1.08.74.1,1.39,1L217.7,560l.28,1.54-.28.57-2.6.68Zm1.06,4.83.13-1.21.67-1.16L219,564l.19.65-3,3.22-.95-.91Zm7.84,18.11-1.44,1.2-1.44-.46-3.15-3.27L215.55,579l0-.58,1-2.45.89-.55,1.2.3,1.85,0,.44.42,2.39.38,1.06,1.3.46,1.08ZM474.1,598.53h1l.09.76.72,2.16-.1.31-.23-.2-1.48-2.85Zm.07,12.14-.1.23-1.25-4.19-.2-1.91-.05-.71-.39-1.72.14-3.09.17-.83.44-.26.43.62,2.07,4.06.21,1.94-.31,1-.16,1Zm534-38.43.12.06.68-.46,0-.19.15.08-.14.06,0,.06.36.23.12.11.18.42-.48.63h-.59l.32-1.14-.56,1.14-.34-.13-.09-.6Zm-2-.17.57,0,.11.13-.13.08-.45.72-.51-.19-.07-.15Zm.73,2.85-.21.72-.09.14-.11-.13-.13-.21-.6-1.83.09-.19,1.18,1.18Zm.25,1.78.71-2.15.09-.76h1V574l-1.49,2.85-.23.19Zm3.35,2.66-.12,1.58-.14,1-1.25,4.19-.1-.22-1-3.91-.15-1-.31-.94.21-2,2.08-4,.43-.63.44.26.17.84.14,3.09Zm425.33,16.92.1.24-.71,2.16-.15.26-.14.15-.1-.17-.4-1.23Zm-1.35-.85.15.1-.34.28-.09-.26Zm-2.35,1.3,1.2,0,.1.92.85,2.56-.12.37-.27-.23-1.76-3.39Zm-.16,15.94h-.1v-.86h.1Zm1.44-6.13-1.19,4.64-.12.27-1.49-5-.24-2.26-.07-.85-.47-2,.17-3.69.21-1,.53-.31.51.73,2.46,4.83.25,2.31-.37,1.13Zm146.39-14.42-.21.72-.09.14-.11-.13-.13-.2-.6-1.83.09-.19,1.18,1.18Zm.25,1.79.71-2.15.09-.77h1v.18l-1.48,2.85-.23.19Zm3.34,2.65-.12,1.58-.14,1-1.17,3.93-.08.26-.1-.22v0l-1-3.86-.15-1-.31-1,.21-1.94,2.07-4.06.43-.62.44.26.17.84.14,3.08Z" transform="translate(-0.69 -523.28)"/><polygon class="cls-2" points="1584.88 68.46 1584.97 68.7 1584.82 68.76 1584.77 68.62 1584.88 68.46"/><polygon class="cls-3" points="1574.3 66.71 1574.24 66.77 1574.13 66.71 1574.19 66.66 1574.3 66.71"/><polygon class="cls-4" points="1442.23 73 1442.3 73.08 1442.23 73.22 1442.17 73.15 1442.23 73"/><polygon class="cls-5" points="1439.66 72.18 1439.72 72.25 1439.59 72.32 1439.52 72.25 1439.66 72.18"/><polygon class="cls-6" points="1424.16 73.44 1424.42 73.48 1424.38 73.63 1424.11 73.46 1424.16 73.44"/><polygon class="cls-7" points="1427.01 74.69 1426.83 74.61 1426.94 74.33 1427.07 74.52 1427.01 74.69"/><polygon class="cls-8" points="1015.36 49.64 1015.34 49.76 1014.64 50.49 1014.56 50.51 1015.36 49.64"/><polygon class="cls-9" points="1014.32 50.5 1014.37 50.52 1014.13 50.66 1014.11 50.55 1014.32 50.5"/><polygon class="cls-10" points="1011.98 51.26 1012.07 51.49 1011.92 51.56 1011.87 51.42 1011.98 51.26"/><polygon class="cls-11" points="989.82 50.72 989.59 50.59 989.89 50.5 990.1 50.59 989.82 50.72"/><polygon class="cls-12" points="991.84 49.74 991.78 49.69 991.89 49.62 991.95 49.69 991.84 49.74"/><polygon class="cls-13" points="994.23 49.42 994.17 49.35 994.23 49.23 994.28 49.29 994.23 49.42"/><polygon class="cls-14" points="997.41 49.38 997.41 49.27 997.63 49.27 997.65 49.41 997.41 49.38"/><polygon class="cls-15" points="997.88 49.49 997.98 49.46 998.03 49.6 997.88 49.49"/><polygon class="cls-16" points="998.8 50.12 998.7 50.04 998.73 50.01 998.2 49.77 998.7 49.95 998.74 50 998.78 49.95 998.86 50.06 998.77 50.02 998.8 50.12"/><polygon class="cls-17" points="999.12 50.32 999.07 50.2 999.12 50.14 999.18 50.26 999.12 50.32"/><polygon class="cls-18" points="1004.5 48.91 1004.65 48.97 1004.55 49.2 1004.45 49.05 1004.5 48.91"/><polygon class="cls-19" points="1003.94 48.06 1004.38 48 1004.38 48.12 1003.99 48.29 1003.94 48.22 1003.94 48.06"/><polygon class="cls-20" points="1002.17 48.33 1002.23 48.44 1002.17 48.5 1002.11 48.38 1002.17 48.33"/><polygon class="cls-21" points="1001.41 49.5 1001.35 49.57 1001.24 49.5 1001.29 49.45 1001.41 49.5"/><polygon class="cls-22" points="1000.64 48.87 1000.7 48.99 1000.64 49.05 1000.59 48.93 1000.64 48.87"/><polygon class="cls-23" points="509.44 70.89 509.75 70.95 509.69 71.12 509.29 71 509.44 70.89"/><polygon class="cls-24" points="508.85 70.71 508.9 70.76 508.85 70.88 508.79 70.82 508.85 70.71"/><polygon class="cls-25" points="508.31 72.56 508.4 72.59 508.25 72.68 508.31 72.56"/><polygon class="cls-26" points="508.09 72.7 508.14 72.71 507.9 72.79 508.09 72.7"/><polygon class="cls-27" points="507.66 72.7 507.72 72.82 507.66 72.88 507.6 72.75 507.66 72.7"/><polygon class="cls-28" points="443.34 54.37 443.28 54.31 443.39 54.24 443.45 54.31 443.34 54.37"/><polygon class="cls-29" points="443.87 54.58 443.81 54.51 443.87 54.4 443.92 54.46 443.87 54.58"/><polygon class="cls-30" points="444.71 53.86 444.67 53.73 444.71 53.67 444.77 53.79 444.71 53.86"/><polygon class="cls-31" points="445.56 52.94 445.62 53.01 445.56 53.13 445.51 53.07 445.56 52.94"/><polygon class="cls-32" points="445.03 54.56 444.97 54.49 445.08 54.43 445.14 54.49 445.03 54.56"/><polygon class="cls-33" points="445.22 54.21 445.16 54.15 445.22 54.03 445.28 54.09 445.22 54.21"/><polygon class="cls-34" points="445.25 53.09 445.14 53.04 445.2 52.98 445.31 53.04 445.25 53.09"/><polygon class="cls-35" points="445.69 54.75 445.45 54.69 445.6 54.59 445.81 54.66 445.69 54.75"/><polygon class="cls-36" points="431.88 62.01 431.82 61.95 431.88 61.83 431.94 61.89 431.88 62.01"/><polygon class="cls-37" points="432.06 63.45 431.98 63.31 432.22 63.28 432.29 63.4 432.06 63.45"/><polygon class="cls-38" points="432.59 63.25 432.48 63.18 432.54 63.13 432.65 63.18 432.59 63.25"/><polygon class="cls-39" points="434.08 60.19 434.02 60.13 434.08 60.01 434.14 60.07 434.08 60.19"/><polygon class="cls-40" points="450.8 52.21 450.56 52.1 450.81 52.01 451.01 52.16 450.8 52.21"/><polygon class="cls-41" points="467.51 75.4 467.28 75.26 467.32 75.24 467.54 75.28 467.51 75.4"/><polygon class="cls-42" points="469.71 76.29 469.57 76.23 469.66 75.99 469.76 76.15 469.71 76.29"/><polygon class="cls-43" points="279.58 7.63 279.79 7.74 279.73 7.97 279.52 7.83 279.58 7.63"/><polygon class="cls-44" points="278.19 7.6 278.4 7.55 278.31 7.76 278.1 7.95 277.99 7.76 278.19 7.6"/><polygon class="cls-45" points="251.81 3.9 252.04 4.08 251.98 4.29 251.74 4.16 251.81 3.9"/><polygon class="cls-46" points="210.39 33.23 210.62 33.27 210.48 33.5 210.26 33.47 210.39 33.23"/><polygon class="cls-47" points="194.07 35.81 193.81 35.94 193.56 35.84 193.84 35.68 194.07 35.81"/><polygon class="cls-48" points="480.35 74.18 480.41 74.24 480.3 74.3 480.24 74.24 480.35 74.18"/><polygon class="cls-49" points="477.15 73.65 477.2 73.79 477.09 73.94 477 73.7 477.15 73.65"/><polygon class="cls-50" points="475.38 74.15 475.51 74.24 475.22 74.47 475.15 74.26 475.38 74.15"/><polygon class="cls-51" points="1006.13 49.5 1006.25 49.42 1006.49 49.52 1006.41 49.74 1006.13 49.5"/><rect class="cls-52" x="1008.37" y="63.18" width="0.08" height="0.73"/><polygon class="cls-53" points="1579.03 66.71 1579.15 66.62 1579.39 66.73 1579.31 66.95 1579.03 66.71"/></svg>