<svg id="background2" xmlns="http://www.w3.org/2000/svg" xmlns:xlink="http://www.w3.org/1999/xlink" viewBox="0 0 1920.14 441.71"><defs><style>.cls-1{fill:url(#linear-gradient);}</style><linearGradient id="linear-gradient" x1="960.19" y1="1026.73" x2="960.19" y2="585.02" gradientUnits="userSpaceOnUse"><stop offset="0.21" stop-color="#f4bf8c"/><stop offset="0.36" stop-color="#eeb782"/><stop offset="0.6" stop-color="#dea068"/><stop offset="0.91" stop-color="#c57b3d"/><stop offset="1" stop-color="#bd6f2f"/></linearGradient></defs><title>bg-layer2</title><path class="cls-1" d="M1920.12,661.86l-.15-.06-.17.08v-.21h.33v-2.2l-1.15.6-.06.26-.2.45-1.66.94.32,0,.22.28.22.05.44-.16-.08-.14.54-.09.38.07.48-.12-.31.61v.25l.22-.06.59-.36,0,0,.14-.13Zm-18.51,31.56c-23.65,1.16-24.81-9.22-53.53-13.56-24.27-3.67-25.46,2.37-78.76,7.33-7,.65-14.38,1.42-20.36,5.19-7.85,5-12.1,14.43-20.12,19.12-15.29,8.93-34.67-4.07-43.61-19.35-6.29,13.68-25.69,11.84-40.75,12.19-29.4.71-59.67,18.08-86.71,6.48-7.17-3.06-13.59-8.07-21.22-9.7-5.87-1.26-12-.42-17.88.57-23.71,4-47.17,10.24-71.2,11a128.22,128.22,0,0,1-20.6-1l.25,0h.1l.2-.24-.12-.71.2-.82,0-.41,0-.26-.17-.46.16-2.12,1.16-6,.75-2.15,1.74-.91.08-.19-.17-.12-.49.06-.36-.24.42-1,2.54-2.06,3-1.51,2-.5.86.26,1.2.59-.13-.16-.89-.68,1.12.11.21.06.08,0,.5,0h.25l.62.32v.58l.29.29v-.84l.44-.15,0,.13-.22.08.59.6.09-.37.08-.13.6.68.12-.37,0,0-.08-.09h.15l0,0,.36.72h.43l.17-.16V693l.1.17,0,.24.57.38.33.38v-.39l.18-.29.18-.15-.36-.25-.29,0,.1-.18.49-.13,4.9-.18.09,0,.06-.06.85-.12.55-.19-.26,0-.18-.16.11-.1.56-.86v-.25l.29-.2,1,.6.25.06.58.2,1.14-.31.07-.07,1-.26,1.17-.09.16.1-.11.12-3.33,1.1.29,0,3.93-1.19.06-.31.33.12.12.37.85.32-.05-.12-.14-.73v0l0,0-.08-.1.1,0h0l0-.2,0,0-.07.18,1.65-.4.16-.19,0-.17-.28-.13,0,0-.1.09,0-.11v-.05h0l0-.34h-.06l-.51-.39.41.13.09-.17.18.26.25-.34.12.13.09.32v.23l.39.08.69-.26h-.25l-.42-.23.87-.27.08-.13-.88-.38-.12-.29-.24.09-.06-.13,0-.14.86-.08-1.06-.3-.06-.21V687l-.18.06-.31.05-.16-.13.1-.19.25,0,.14-.07-.1-.08-.32,0-.25.11-.06.24-.12-.25-.16.05-.56.58.05.06-.1.06,0-.1v0l-.39-.22-.72.22.5.16.17.1-.22.07-.28.19h.16l.17.09-.23.4-.11-.36-.16.16-.09.2-.08-.23H1459l-.22.25-.08.13,0,.41-.49.15-.52.32L1457,689l-.27.14.13,0,0,.12-.1-.12-.08-.38.35-.35-.33-.5h.31l.24.1-.1-.44-.31,0,0-.26.28-.13L1457,687l-.09-.48-.24.27h-.08l-.47.34-.32-.19v-.12l.22-.06.06-.12h-.25l0-.34-.21.07,0,.23-.17.2-.29-.28,0-.42.16-.27.71.29-.08-.22.12-.26.2.07.07.24.11-.17.06-.13.79-.11.19.1.33,0,.07-.16.81-.12.47-.22.86,0,.5.65.12-.15.07-.24-.22-.07,0,0-.1.09,0-.11v0h0l.35-.14.77.58.36,0,.28.38.54-.08.67.22.15-.13-.09-.17-.23,0,.2-.17h.51l.13-.33-.34-.5h-.44l-.29-.47-.07-.16.16,0,.46.06.86-.06.36.12.32.21.34-.15.06-.14.11.14.14-.06.68-.06v.23l-.18-.08-.29.1.18.18.6.38.23.06v-.25l-.31-.63.48.13.39-.06.54.06-.08.15.45.17.22-.06.22-.26.33,0-1.69-.94-.2-.44-.06-.26-1.31-.68-.45.14.11-.24-.68-.75-.14.06-.58.11-.14-.25-.11,0-.53-.08-.37-.12.37.5H1463l-.46-.09-.29,0-.19.14.17.28-.56.2,0,0-.1.09,0-.11v-.05l0,0,0-.19H1461l-.45.29-.12-.27-.28-.2-.17.21-.25.11-.37-.28-.33.09-.4.05-.54-.12,0,0-.1.07,0-.09v0l-.68-.67-.71-.39-.05-.14.07-.13.67,0,.09-.09-.14-.07-.17-.12-.28-.72h-.72l-.21-.08-.1-.42-.16-.18-1.26-.24.51-.18-.13-.28-.41,0-.43.07-.62-.31-.24.25-.55.26-.35.12-.36-.5-.33.25-.14.26.11,0,0,.09-.1-.1-.74-.18-.34-.18-.48,0-.11,0-.25,0-.51-.56-.55,0-.21,0v-.23l0-.2-1.22-.18-.72-.41-.15,0-.06.22-.13-.21-.16.09-.37.4-.47-.22-.24-.07-.39.25h-.32l-.43-.32-.09-.19-.07.21-.31.43-.21-.14-.3-.06-.39-.3-.31-.06.2-.22v-.22l-.21-.08.14-.07.34,0,.32-.21-.28-.12-.69-.17-.26.15.15-.46.11.15.33-.36-.16-.32-1-.12,0,0-.1.09,0-.11v0l-.44-.61-.7-.12-.4-.13,0-.11.77-.22.19-.1-.07-.22-.23-.07.21-.12.07-.27-.18.06-.3-.11-.11-.33-.06.32-.06.13-.64.12-1.52-.42v.24l-.53.32-.11-.11-.23-.16-.24-.28-.06.06-.3-.07-.43.17-.3-.17-.55.2,0,0-.1.08,0-.1v0h0l-.06-.16-.71.25.09.23h-.33l-.79.35.4.33.09.11-.14.06-.69-.17-.22.16-.34-.15-.46,0-.15-.11.15,0,.31-.07,0-.14-1.08-.43-.28-.28-.24.23-.09-.09-.53-.31-.09.06,0-.1v0l-.43-.28h-.16v-.14l.5-.43h-.56l-.37.16-.08-.1h-.37l-.1.13-.08-.12,0,0-.28-.31-.21.41-.9.22-.13-.16-.33.4-.17,0-.14-.25-.22.25-1.16,0-.54-.16-.14-.07-.44.14-.12-.43-.06-.06h-1.19l-.75.4-.18,0-.74-.44-.12-.67-.21-.33-.17-.2,0,0-.24-.08h.31l.52-.09.51-.16-.67-.19-.68.18-.18-.12.3-.37h1.14l.09-.21-.62-.33-.22-.32-.3-.11h-.42l-.51-.34-.3.19-.18-.07v-.34l-.4.05-.28.19-.06.23-.12-.22-.29-.19-.53.43-.24,0-.12-.19-.13-.12,0,.13-.12.25h-.38l-.21-.11-1,.08-.61.57-.29-.07-.14.07-.19.19-1.09,0-.37.06-.23.25-.13.19,0-.23-.08-.23-.09.21-.28,0-.3.5-.1-.19-.16-.14-.68-.08-.18.24.13,0,0,.1-.1-.1-.27-.21-.23.06.1.24-1.23,0-.23.07-.78.09-.06.06-1.73.61-.05.14-.12-.14-1.58.36-.38.47-.42,0v.54l.13.05,0,.1-.1-.12-.14-.09.14-.1-.28-.15-.12.28-.28.28-.28-.31-.69-.07-.08.34.38-.21.14.06-.37.28-.15-.13-.43-.06-.39,0,.12,0,0,.11-.1-.11-1.37-.31-.17.11-.13.1-.64.05,0,.3.08.18h-.23l-.31-.29-.22,0,0,.21.23.25,0,.29-.18-.09-.18-.17-.24-.17,0,.25-.42.39-.46-.09-.5.09-.15.07.09.12.41.25,0,.29.12.13.68.08.47-.13.06-.31.07-.14h.37l.21.06,0,.21-.45.13.19.1.47.36-.09.82.23,0,.21-.12.33-.39-.36-.07,0,0-.1.09,0-.11v0h0l.86-.49.06.22v.77l-.53.41-.26.59h-.31l.12.3.09.19h-.23l-.27-.13-.71.16-.1.09.14.09.33.28-.49,0-.17-.22-.5-.2-.4.26-.32-.26-.45,0,0-.16-.09-.13-.3.3-.3.06-.12.12-.8,0-.42-.18-.26-.49h-.23l0,.12.26.32-.31.28-.14.27-.23-.24h-.16l-.43.42-.42.08-.18-.08v-.35H1390l-.13.12v.2l-.81.33-.74-.09-.46.3-.23.12.23.07,0,.14h-.76l-.1.12,0,.36-.35-.12-.16,0,.06.06-.06.11-.06-.06.06-.11-.39,0-.06.46-.2,0-.53,0-.64.21-.32.18.41.25h.09l0-.13.1,0-.12.11-.26.3-1.14.2.06.14.28.12-1,.43.64-.11.55,0-.33.22-.29-.12-.05.39-.13.3-.24,0-.74-.23h-.78l-.68.26,1.53.41.6.34h.16l.27.15.09.19.23-.24.33-.44.08.23,0,.22.48-.21.39.1.3.4.1,1,.26-1,.12-.16.81-.33.21,0-.13.44.05.35.47.34.05.13.73.17-.1-.55v-.09l-.32.1,0-.14.72-.3.13.34.34-.16.36-.09.21.08,1.48-.18.34-.34.47-.29,1.45-.38h.07l0-.3.1,0-.11.1.08.17.74.14.49.53.05-.13.1,0-.11.1.5.34h-.75l-.11.18.11,0,0,.1-.1-.12-.24,0-.24-.1.22.44-.27.13,0,.2.32,0-.47.32-.25.26.3.06.53.24,0,0-.38.08-.08.11.14.06.68-.14.17.08v-.12l.16-.15,0-.14.12.14.33-.13v-.42l.16-.12.17.11.08.21.09-.21.34-.12,0-.13.1.09.27-.54.54-.37.66-.3.59.37.13.15.76.46.85-.1h.08l2.09,1.22.9.71,1.39.23h1l1.85,1.35-.13.29h-.34l-.18.63-.14.27-.17,0-1.1-.26-.14.07.12.12.43.06.23.09,0,.18-.23.42,0,.24.11-.17.59-.31.37.31.44-.14.5.33.19.07.29-.13-.64-.36.53-.1.78.39.4-.05v-.16h-.58l-.1-.28,0-.08-.06-.07,0,.07-.06-.19.09-.13,1.43.22,1.92-.37.86.34.15.2.57.27.06,0,.63.25v.26l-.29.12-1.67,0-.23-.08-.24.24-.59.08h-.41l-.13.11.45.12-.18.1-.79.17-.35-.17-.13.34-1.79.5h-.16l-.44.13,0,.37-1.43,1.89-.25-.12-.15-.18-.92-.39-.22,0-.19.5.17.1.82-.22.17.27-.3.07-.4.43,0,0-.1.08,0-.09v0h0l.17-.23,0-.22-.76.09-1.7-.73.06-.28.41.14.16.28.11.06.06-.15v-.33l-.58-.83-.08.12-.36.09-.31-.39.1.55v.27l-.23-.19-.71-.3-.13.17-.21-.17-.32-.12v-1.39l-.34.18-.15.33.12,0,0,.12-.1-.12-.5,0-.38.32-.62,0,.12.15.54.26-.55.25h-.32l-.12.16.85.55.31.31v-.35l.1-.14.91.4.1,0,0-.13-.14-.27.51-.1.79.13-.16.25.33.12-.33.21v.17h.33l.21-.07,1,1.07.16.26.66.27,1-.34h.17l-.05.21-.09.22.28.2-.12.12-.18-.22-.16,0-.19.2v.25h.18l.15,0,0,.15-.38.07-.09.2.2,0,.17.08.29-.12v-.34l.19-.16.3-.12.16-.5-.07-.22,0-.29,1.28.17.62-.16,1,.11v-.17l-.23-.08h-.51l.47-.25h.25l.63.25.25.43-.06.14-.38.17.5.33.17.36.13,0,0,.11-.1-.12-.43.31,0,.11.14.06.67-.18.12-.52h0l-.07-.1.1,0h0l.35.06,0-.13.12.13,1,.18.45-.14.88.31,1,.15,2.74.87-.06-.15-1.85-.83-.75-.19-1.09-.12-1.35-.42-.14-.06.08-.11.41-.34h-1l0-.34.14-.08-.13-.09-.39.17-.21.15-.28-.53.25,0,.24-.22-.27-.12-.06-.15-.14.06-.2.54-.49-.28-.89-.05-.79.14-.6-.2,0-.48.13-.27.82-1,1.6-.82,1,0,.18,0,0,.21-.29.39v1.19l.68-1-.31-.05.17-.22.14-.06.49-.66.86-.38,1.21-.32.22.36-.23.82.51-.67.2-.16.13.32.27.16.07-.22v-.17l.12-.27,1.83.32,1.62,1,.14.05-.14.12v.17l.34.51h.08l.85.68-.7-.69,0-.11.81.81h-.09l0,0-.08.13-.31.06-.91.29-.17.25-.59.09-.43.5.45.15,1-.3.29.15,0,0,.13-.13.47-.29.44-.1,1.16,1,.28.79v.34l-.21.08,1.23,1.37.53,1.46.52,2.83-.11.17-.21-.07-.87-1.91-.11-.18-.82-.5-.21,0,0,.22,1.06.9-.07.51,1.11,1.9.16,1.46.3.72.47,3.14-.1.37-.34-.19-.61-.59-.3-.07.54.79.46.38v2l-.07.09.19.65c-16.08-2.61-31.41-8.74-43.14-19.82-4-3.75-7.9-8.25-13.29-9.17s-10.72,2.12-15.72,4.51c-35.34,16.86-79,3.77-115.13,18.91-15.57,6.53-35.26,17.45-46.93,5.25-.68.06-1.35.13-2,.25l-1.34-6.18-.15-.25-4-10.2-5.42-8.87,0-2.53,1.66-2.08,4.65-3.42,2.93-.92,1.34,0,.11-.25-1.1-1.32-.07-.71,1.68-2.27,2.66-2.27,10.16-5.49,2.58.08,1.46.45-1.11-.91-.12-.64,1.94-1.27-1.46.23-.38.24h-.27l0-.25.2-.22,3.25-2.51,1.49.11.79-.29.53-1.37.21-.21.18.34,0,.29.33.21.15-.22v-.58l.52-.54.42,0,2.65,3.8-.46-1.89,0-.93,2-.13.92-.58,1-.18,1.09.16.52-.82,1.06-.46.74.47.25-.15.43-.51,1.33,0,.26-.12-.24-.14-.59,0-.27-.1.3-.14,3.79.51,1.33.85,1.19,2.35.61,2,.19.34.12-.4,0-.9,0,0-.28-1.74-1.07-1.31.36-.43.53,0-.37-.42-.53-.25.07-.44-.09-.44-.35,0,.26-.32,1.29-.73.53.05,2.31.87v-.12l-.59-1.25,1.7.08.63-.48-.4-.71.12-.33h3.92l1,.12,3.17-.13,2.16-1.44,1.67-.72-3.22,1.06-.49.24,0-.68.5-1.13-1.24.22-.35.57-.72.33-.19.55-.15.3-.72.06,0-.05-.7.43-2.23-.69.89-.18.35-.38-.26-.38-.32-.24.4-.32,1.84,0v-.57l-.82-.09-.19-.36-.17-1.62-.53-.2.21-.5,1.06-.82-.12-.53-1,.44-.82.85-.25,0-.13-.33.06-.51h-.66l-.12.51.26.69-.24.53-2.79-.94-.77.05.29-.77.8-.25,2.2-1,.38-.44,1.18.06.34,0,.55-1.59.37-.78,2.56.13.25-.26.1-.52.7-.5.37-.75V639l.91-.69,1.76-.56,2.68-1.2,4.28.51.27-.75-.74-.86-.08-1-.19-.19-.63.54-.51,0-.09-.51.58-1.14-.06-.26-.24.07-.09.1-.8.69h-1.29l0-.36-.3-.24-.34.46-.18.39-.43-.88-.2-.2-.13.24-.07.58h-.46l-.33-.05-.64.16-1.93-.48-.33.23-1.56.25-.86,0,0-.32-.2-.32-.25.58-.33.42v-.5l-.48-.37-.06-.45,1.07.25-.1-.16.7-1.13.41-.31.08.54.52.13,1-.63-.25-.59.29-1-.32-.23,2.25-1.55-.48-1-.49-.33-.33,0-.45-1.21-.2-1.32-.41,1.2.08.43-.36,1.1-.66-.53h-.26l0,.35-.19.41-1.22.6-.4.06-.3.44-.19-.11.26-.56-.3-.7-.8,1,0,.17-1.43.88-.79.12-.33.89,0,0,0,.28-.47.42-.27-.06-1.39-.08-.5-.11,0-.24.49.18,0-1.55-2.1.53-.24,0-.06-.74.38-.67,1.11-.08-1.91-.62-2.2,1.23-1.22-.87-.84-.16-3,.17-.94.26-.87-.58-1.32-1.18h0l-.71.23-1.26-2.75-.43-.31.06.55-.15.35-.3-.21-.44-.12.12.89,1.13.91.16.25-.37,0-2,.48-.1.12-.77-.08-.41-.61-.44-.05-.74,1.22.24.27-.51.66-.19.38.1,1.75-.39.34V630L1212,629l-.27-1.8-.46-.18-.43,1.32-.65.8-1.25-.25,0-.2,1.36-1,.16-.19.16-.72-.62.21-.66.12,1.23-.78.17.35.1-.11-.16-1.9-.85-.13-.09.49-.08.25-1-.42-1.42.37-.94-.17,0,.37-.21.31-.28-.3-.08-.4h-.28l-.32.87-.76-.14-.13-.74-.13-.4-.26.34-.71,1.24-.22.15-.07-.26.27-.83-.6-.62-.78.19-.1.6-.35-.46-.34-.63-.52,0,.14.47,0,.26-.81.4-.32.47-1-.37-.87.06-.63.88-2.16-1.31-.1-.36-.28.3-.36.59.37.85-.67.25-.23.63.2.63L1193,628l-.2-.36-.18.34,0,.73-.11.28-.2-.16-.72-1.53-.86,1.19-1.24.06-.21.27-.48-.48.31-.17.23-.34.57-.33.15-1.16-.17-.19-.19.14-.08.58-.3.43-.48-.4-.6-.71-.58-.4h-.26l-.05.25.3.63-.72-.31-.35-.26-.21.44,1.1,1.58.38.21,0,.34-1.09.63-.75-.38-.54.24,0,0,.68,1.09-.84.08-1.06.65h0l-.6,1.74-.91-.27.08.44-.52.78-.72,0-1,1-.33-.43-.06.06-.33-.19.1-.3.24.06.42-.29.43.06.29-1.25,1.1-.54.4-1.81.22-.56-.66-.16-.42.09-.14-.24.32-1.24.64-.54.78.22-.26-.75-1.49-.51-.08.67-.43,1.2,0,.65-.41,1.68-.22.21-1.11-.93-.56-.26-.47.56-1,.48v0l-.53.46v-.11l.25-.36-.46-1.4.21-.93-1.08-.16-.53.08-.24.34.67.57-2.07-.57-.33.29-1.49-.36h-.28l-.17-.32.28-1,.4-.44.49-.16.81-1.3,0-.24.23-1.14-.06-.26-.24.14-.61,1.17-1.55,1.51-2.4-1.06-.21-.31-.33-.31-1.11-.08-.28,0,0,.2-.07,1.12.18.69.46.29-1-.1-.45.22-.34.31-.54-.44-.58-.12-.35-.12-.06-1.38,1.45-2.76-1.38,1.76-.67,1.12-1,.37-.23-.56-.26-.33h-.28l-.1.22.23.37,0,.39-.37-.13-.45-.39.1.92-.64-.23-.61.31-.22.15-.34.52-.42-.81,1.13-.78,0,0,.09-1-.1-.28-.21.18-.8.22-1.8.84,1.29-.09.08.52-.37,0-1.14-.09-.46.28-1.4.51-.4-.47.44-.09.7-.25-.53-.38-.65-.15-2,.47-.34.65.21.32-.31.41-.21-.44-1.22-1.48-.89.5-.27.21-.13-.24-.6-.49-1.18.23-1.21.48-.5.57,3.35.7.24.45h.28l.4.12-.27.27-.18.39.53,0-.2.43-.23.26H1150l-.8.63-.32,0-2.18-.66.45.53-.38.51-.58-.07-.35-.57-.94,0-.39-.59-.46.07-.61.44-.17,1.38-.32-.31.23-1.94,0-.55-.83.94,0,.41-.14.78-.57-.33-.67-.07-.31-.37,1.22-.26v-.06h-.32l-1.18-1.64-.31-.23-.32,1.15-.5,0-.29.79-2.36.79-.9.58.14.6-.22.26-.7-.2h-.27l1.06,1.52.42-.26.72,0,0,.57-1.11.22-.12.71-.44-.2-.4.31-.21.3-.28-.31-.1-1.32-.4-.74-.31-.31,0,.9-1.3.09-.35-.54-.75-.25-1,.13-1.3-.93-.83.29v.37l.26-.12.22-.19.37,1.06-.66.13-3.11-.76.16.34.22.36-1.8.06-.86.25-.49.33-.88-.26-1.06-.76-.33,0,0,.3,1.08,1.25-.2.37-.29-.18-.32-.44-.28.56-.39.53-.37.29.51.12,1.28-.2.41.38-.29.63,0,0-.06,1.06,1.2.15-.42.19-.78-.31-.1.1-.43.12-.65-.38-1-.31-2.38-.07-.81-.22.39.65.18.48.33.16.41-.32,2.1.47.06.22-.4.13-.29,1.49,1.47.58.49-.2,1.94.62.15.21-.11.08-1.87.15-2,1,.16.41.27.5-.48.12-.5-.29-.39-.14-.14.68.51.19-.14.69.3,1.05-.53-.28-.62.32-2.11.78-.17.27.22.55-.76.8.3,1,0,.28-.34-.13-.45-1.09-.42-.52-1.4-.28-.37.05.23.54h.52l.37.52-.09.53.38,0,.31.31-.34.13-.38-.13-.49.44-2.88.37.31.27,2,1.1.12.4-.4,0-.88.69,0,.7.45.41.34.17-.31.22,0,.45,1.22.87,1.24-1,.14-.06,1.38,1.2.73.49-1,.2-.28,0-.17.15.25.29.72-.06,4.71.65,1.74-.06.84-.2,0,0,1.47.3.31.38,0,.79.44,0,5.35-1.12,1.87.23,1.21-.12,5.74-2.2,1.31.09-.53,1,0,.24.27,0,.38-.2.26-.48,1.61-.92,1.62.42.08.36-1.1-.14-1.1.32.28.88-.11.65h-.53l-.39-.2-.34.34v.59L1139,658.7l-1-.21-.53.06.08-.17-1.26-.26-1-.45-.32.13-.2,1.24.29.28.77.13.41.28,1.19,0,.48.61-.23.15-.53-.53-.9,0,.25,2.05v.25l.26,0,.73-.89.86-.2,2.25-1.6.26.13,3.52.67.44-.11,2-.81.29.18-1.18,2,.42.08,1.37-1.24,2.53-1.61.66.19,1.73,3.25,1.75.88.12.33-1,.27v-.2l-.57-.78-1.08-.48-.83-1-1.16-.5-.43.33.4.25.79.8.92,1.66.2,1-.35.25,0,.63.52.31,1.73-.37,4.66,1.25.18.2-.21.11-1,.12-.37.09.39.36h.72l1.61.24.25.13-.2.17-1.71-.1.65.4-.79.46-.46-.43.36-.44-2.66-.13-7.59-1.26-4.12,2.07,0,.13.21.13,6.73-1.43,4.53,2,.23,1.1.06.65,1.3-.17,1.6,2.12-.06.4-.39,0-1.27-.64-1.46-.53-1.13-.71-.91-.16.57.59,3.12,2.27,0,.48-.21.57,1.57,0,2-1.28,1.23.44,1,2,6.17,5.24,8.1,11.66,3.76,10,1.6,9.1c-18.5,7.47-30.27,33.29-50.94,33.43-5,0-10-1.52-14.82-.21-4.59,1.25-8,4.89-11.75,7.88-23.56,19.09-57.86,12.87-87.67,18.42-2.45.45-5.1,1-7.34-.11a11.43,11.43,0,0,1-3.31-2.89l-24.59-27.86a104,104,0,0,1-20,2.91h0a104,104,0,0,1-20-2.91l-24.59,27.86a11.43,11.43,0,0,1-3.31,2.89c-2.24,1.07-4.89.56-7.34.11C893.3,769.94,880,769.7,867,768.77l-4.92-22.72-.14-.25L858,735.74,852.69,727l0-2.49,1.64-2,4.58-3.37,2.89-.91,1.32,0,.11-.25-1.09-1.29-.06-.7,1.65-2.24,2.62-2.23,10-5.41,2.54.07,1.44.46-1.09-.92-.11-.63,1.9-1.24-1.43.23-.38.22H879l0-.23.19-.23,3.2-2.48,1.47.1.78-.26.52-1.36.2-.2.18.33,0,.29.32.2.15-.22v-.57l.51-.53.42,0,2.61,3.74-.45-1.86,0-.91,2-.12.9-.6,1-.17,1.08.17.51-.82,1-.45.73.46.24-.14.42-.5,1.32,0,.25-.11-.23-.15-.59,0-.26-.09.3-.14,3.73.5,1.31.85L904,701l.6,1.91.19.35.12-.41V702l0,0-.28-1.7-1.05-1.3.35-.43h.53l-.37-.4-.52-.25.07-.44-.09-.43-.35,0,.26-.33,1.27-.7.53.06,2.27.85v-.11l-.58-1.24,1.68.07.61-.49-.39-.68.12-.33h3.86l1,.12,3.12-.13,2.13-1.42,1.64-.71-3.17,1.06-.48.24,0-.67.49-1.13-1.22.21-.35.57-.7.32-.19.54-.15.3-.71.06-.64.38-2.2-.69.87-.18.34-.37-.25-.38-.32-.23.39-.31,1.82,0v-.56l-.81-.1-.19-.34-.16-1.6-.52-.2.21-.49,1-.83-.12-.51-1,.44-.81.83-.25,0-.12-.32,0-.5-.65,0-.12.5.26.67-.24.55-2.75-.93-.76,0,.29-.77.78-.25,2.17-1,.38-.44,1.16.06.34,0,.54-1.54.37-.78,2.52.11.24-.25.1-.5.69-.5.36-.74v-.57l.9-.68,1.74-.56,2.64-1.19,4.22.51.26-.73-.73-.85-.08-1-.19-.19-.62.55-.5,0-.09-.5.57-1.13-.05-.26-.24.07-.09.11-.78.69H923l-.06-.37-.29-.23-.33.47-.19.38-.42-.87-.19-.2-.14.23-.07.58-.44,0-.33,0-.63.15-1.9-.48-.33.23-1.53.24-.86,0,0-.32-.35-.53.69-1.12.4-.31.09.53.51.15,1-.65-.24-.57.29-1-.32-.25,2.21-1.5-.47-1-.49-.31-.31-.05-.45-1.17-.2-1.3-.4,1.18.08.43-.36,1.07-.65-.53h-.26l0,.35-.18.39-1.2.61-.4.05-.29.44-.19-.12.26-.55-.3-.69-.79,1,0,.15-1.41.88-.78.11-.32.89,0,0,0,.27-.46.39-.27,0-1.37-.09-.49-.1,0-.24.48.18,0-1.53-2.07.54h-.24l-.06-.73.38-.66,1.1-.06-1.89-.62-2.17,1.2-1.21-.84-.82-.17-3,.18-.92.25-.86-.57-1.3-1.16-.7.23-1.24-2.7-.42-.31.06.52-.15.37-.3-.23-.43-.09.12.87,1.11.89.16.24-.37,0-2,.48-.1.1-.77-.07-.4-.59-.44,0-.72,1.2.23.25-.5.67-.19.37.1,1.74-.38.32v-.5l-.48-1.06-.26-1.76-.45-.18-.43,1.31-.64.78-1.23-.25,0-.21,1.34-.94.16-.19.15-.72-.61.22-.64.12,1.21-.77.17.34.1-.1-.16-1.89-.84-.12-.09.48-.08.25-.95-.41-1.39.36-.93-.17,0,.38-.2.29-.28-.29-.08-.4-.28,0-.31.85-.75-.13-.13-.73-.13-.39-.26.33-.69,1.22-.22.15-.07-.26.26-.82-.58-.61-.78.18-.09.61-.34-.46-.34-.62-.51,0,.13.44,0,.27-.79.39-.32.47-1-.37-.86.06-.63.87-2.12-1.31-.1-.32-.28.27-.35.6.36.83-.65.25-.23.62.19.62-.74-.07-.2-.36-.17.33,0,.73-.11.26-.2-.14-.71-1.53-.84,1.17-1.23.07-.2.29-.48-.49.31-.17.23-.34.56-.31.14-1.15-.17-.19-.18.15-.07.57-.3.43-.48-.41-.59-.7-.57-.39h-.25l0,.25.29.63-.71-.31-.34-.25-.21.43,1.09,1.56.37.2,0,.32-1.08.64-.74-.38-.53.23,0,0,.67,1.06-.84.08-1,.64h0l-.59,1.73-.89-.29.07.43-.51.79-.71,0-.95,1-.52-.68.56-.39.42.06.28-1.24,1.09-.54.39-1.78.22-.55-.66-.14-.41.07-.14-.23.32-1.21.63-.55.77.23-.26-.75-1.46-.5-.08.66-.42,1.17,0,.65L857,672.8l-.22.22-1.09-.91-.56-.25-.45.53-1.21.6L853,671.5l.2-.92-1.06-.14-.52.06-.23.36.66.56-2-.58-.32.29-1.47-.34h-.27l-.17-.32.27-1,.39-.43.49-.16.8-1.3,0-.22.22-1.13-.06-.26-.23.14L849,667.3l-1.52,1.5-2.37-1-.21-.31-.32-.32-1.09-.08-.27,0v.21l-.07,1.1.18.67.45.29-.93-.1-.44.2-.34.33-.53-.45-.57-.1-.35-.13,0-1.36L842,665l-1.36,1.74-.66,1.11-1,.36-.22-.55-.26-.31h-.27l-.11.19.24.38v.39l-.36-.14-.44-.38.1.91-.64-.23-.6.29-.22.17-.33.5-.41-.79,1.11-.77,0,0,.09-1-.1-.26-.2.18-.79.2-1.78.84,1.27-.1.08.52-.36,0-1.13-.08-.45.27-1.38.51-.39-.47.43-.08.69-.26-.52-.37-.64-.13-2,.44-.32.65.19.31-.3.41-.2-.44-1.2-1.46-.88.5-.26.21-.14-.25-.59-.48-1.16.23-1.19.47-.49.56,3.29.69.24.46h.28l.39.1-.27.29-.17.37.52,0-.2.43-.22.26-.33,0-.79.62-.31,0-2.15-.63.44.51-.37.5-.57-.07-.35-.56-.92,0-.39-.59-.45.09-.6.43-.17,1.35-.32-.3.23-1.91,0-.54-.89,1-.66,0L817,669.71l-.32-.22-.31,1.13h-.49l-.29.8-2.33.77-.88.57.14.59-.22.26-.69-.19-.27,0,1,1.52.42-.28.71,0v.56l-1.09.21-.12.7-.43-.2-.39.3-.21.3-.28-.31-.1-1.3-.4-.74-.3-.28,0,.88-1.28.08-.34-.51-.74-.25-1,.12-1.29-.92-.82.29V674l.25-.1.21-.21.37,1.05-.65.13-3.06-.76.16.36.21.36-1.77.05-.85.24-.49.34-.86-.27-1-.76-.33,0,0,.27,1.06,1.25-.19.35-.29-.18-.31-.42-.28.54-.38.53-.37.28.5.13,1.27-.22.4.39-.28.61,0,0,0,1,1.17.14-.4.18-.77-.31-.1.11.33.45,0,.26-.31-.18V679l-.41.11-.64-.36-1-.31-2.34-.09-.8-.2.39.63.18.48.32.16.4-.33,2.08.49,0,.2-.39.13-.28,1.47,1.44.57.48-.19,1.91.59.15.23-.1.07-1.85.15-2,1,.16.4.26.48-.47.13-.49-.29-.38-.13-.15.66.51.19-.13.69.29,1-.53-.27-.61.32-2.07.75-.17.29.22.52-.75.8.29,1,0,.27-.34-.13-.44-1.07-.41-.52-1.38-.26-.36,0,.22.53h.51l.37.5-.09.52.37,0,.31.3-.34.14-.37-.13L789,691l-2.84.34.3.29,2,1.08.11.39-.39,0-.87.68,0,.7.45.39.33.18-.3.23v.44l1.2.86,1.23-.95.14-.05,1.36,1.19.72.46-1,.2-.27,0-.18.15.25.29.71-.06,4.65.63,1.71,0,.83-.2,0,0,1.44.3.31.38,0,.77h.43l5.27-1.12,1.85.23,1.19-.11,5.66-2.18,1.29.1-.52,1,0,.24.27,0,.36-.2.26-.47,1.59-.91,1.59.43.08.34-1.08-.15-1.08.33.27.86-.1.65-.53,0-.39-.19-.33.33v.58l-1.36,1.14L813,699.9l-1-.45-.31.13-.2,1.23.29.28.76.14.4.26,1.18,0,.47.6-.23.15-.52-.52-.89,0,.25,2,0,.25.26,0,.73-.88.84-.19,2.22-1.58.25.12,3.48.68.43-.12,2-.79.28.18-1.16,2,.41.07,1.35-1.2,2.5-1.61.65.19,1.7,3.19,1.73.87.11.34-1,.28v-.2l-.57-.79-1.05-.45-.82-1-1.15-.48-.42.32.39.25.78.78.91,1.66.2,1-.35.25-.05.6.52.31,1.69-.35,4.6,1.22.18.22-.21.09-1,.12-.36.1.39.34h.71l1.58.23.25.13-.2.16-4.54-.24L824,708.44l-4,2-.05.13.2.13,6.64-1.41,4.46,1.95.23,1.08.06.63,1.28-.16,1.58,2.1-.06.38-.38,0-1.26-.63-1.44-.51-1.11-.72-.9-.15.57.57,3.07,2.25,0,.46-.21.56,1.54,0,1.93-1.28,1.21.43.94,1.93,6.07,5.17,8,11.5,3.71,9.86,4.11,23.41c-15.44-1.5-30.1-4.66-42-14.33-3.7-3-7.16-6.63-11.75-7.88-4.79-1.31-9.85.25-14.82.21-23.45-.15-35.45-33.38-58.81-35.33-11.67,12.2-31.36,1.28-46.93-5.25-16-6.73-33.55-7.88-51.17-8.57l.13-1.23,1.1-1.89-.07-.5,1-.91v-.21l-.22,0-.81.49-.11.19-.85,1.92-.21.07-.11-.18.51-2.82.53-1.45,1.25-1.42,1.27-1,.31-.06.67-.68.29-.17,1,.3.45-.13-.43-.5-.58-.1-.17-.25-.9-.28-.31-.06-.08-.13.87-.71h.08l.34-.5v-.51l-.14-.1.14-.06,1.6-1,1.82-.33.12.3v.15l.07.23.26-.17.14-.33.2.18.51.65-.23-.81.21-.34,1.2.31.86.38.48.63.14.06.17.24-.31,0,.68,1v-1.17l-.29-.38,0-.24.18.06,1,0,1.58.81.82,1,.13.27.05.46-.6.22-.77-.14-.89.05-.49.28-.2-.54-.14-.06-.06.13-.26.14.24.22.25,0-.28.53-.21-.15-.39-.18-.13.08.14.1,0,.33h-1l.4.33.09.11-.14.07-1.34.42-1.09.12-.74.19-1.84.82-.06.14,2.73-.85,1-.15.87-.31.45.13,1-.16.11-.15.06.15.35-.06,0,0h.05l.1,0-.07.11,0,0,.12.54.66.16.15,0,0-.12-.42-.31.17-.37.5-.33-.38-.17-.06-.16.25-.41.64-.26h.25l.48.25-.52,0-.23.1V687l1-.11.63.16,1.29-.19,0,.3-.08.22.16.52.3.11.2.18v.32l.29.13.17-.07.21,0-.1-.2-.38-.08,0-.15.16,0h.17v-.25l-.34-.2-.16,0-.19.22-.12-.12.28-.2-.09-.22-.05-.21h.18l1,.34.65-.27.16-.26,1-1.07.21.07h.18v-.25l-.33-.2.33-.14-.16-.26.8-.12.51.1-.14.26.05.14.1,0,.92-.39.1.14v.33l.32-.3.86-.53-.13-.17-.32,0-.56-.24.55-.26.12-.17h-.63l-.38-.32-.5,0-.1.1,0-.09.11-.06-.15-.32-.34-.18v1.39l-.33.12-.21.18-.12-.18-.72.3-.24.19v-.29l.1-.53-.31.39-.36-.11-.09-.12-.58.85v.33l0,.14.12-.07.16-.27.42-.13,0,.26-1.71.74-.77-.09,0,.23.17.23,0,0v.05l0,.11-.1-.07,0-.05-.42-.43-.29-.08.17-.26.83.22.17-.11-.2-.5-.21,0-.94.38-.15.19-.25.12-1.28-1.63-.16-.28,0-.37-.46-.1-.16,0-1.8-.51-.13-.33-.36.18-.8-.18-.18-.1.46-.12-.14-.1h-.41l-.59-.09-.25-.22-.23.07h-1.69l-.29-.12v-.29l.64-.25.06,0,.58-.26.15-.23.87-.32,1.94.37,1.45-.21.09.13-.2.52h-.25v.17l.39.06.76-.38.52.08-.63.37.29.12.19-.06.48-.34.43.15.36-.31.58.31.11.14.05-.21-.23-.42v-.17l.22-.1.42,0,.11-.12-.13-.07-1.07.26-.17,0-.14-.27-.17-.62h-.34l-.13-.28,1.81-1.32h1l1.36-.21.88-.69,2-1.19h.08l.82.08.75-.43.13-.17.57-.34.65.3.53.34.27.55h.17l.12-.13.05.13.34.12.08.21.09-.21.17-.11.16.12v.42l.33.13.11-.14.06.14.17.16.85.17.14-.06-.08-.11-.39-.08-.55-.42h0l-.12-.1.11,0,.05.13,1,.16.31-.06-.26-.26-.46-.32.31,0,0-.2-.27-.13.22-.44-.23.1-.25,0-.1.12,0-.1.11,0-.12-.18h-.74l.5-.34-.12-.1.11,0,.05.13.49-.53.73-.14.09-.17,1.43.37.46.31.34.33,1.46.17.21-.07.35.07.33.18.13-.34.71.29,0,.14-.31-.09V676l-.1.55.72-.16,0-.14.46-.32,0-.35-.13-.45.21,0,.8.34.12.15.26,1,.09-1,.3-.38.39-.11.47.21,0-.22.08-.22.32.42.23.24.09-.19.27-.13h.15l.6-.36,1.51-.38-.68-.26h-.76l-.73.22-.24,0-.13-.31-.05-.37-.29.12-.32-.23.54,0,.64.11-1-.43.27-.12.06-.13-1.12-.22-.26-.28-.12-.11.1,0,.05.13h.09l.4-.25-.31-.18-.64-.22-.52,0-.19,0-.06-.46-.55,0-.34.11,0-.34-.1-.11-.75,0,0-.14.23-.07-.23-.11-.45-.3-.73.1-.81-.32,0-.21-.13-.1-.34,0v.34l-.18.07-.41-.07-.42-.42h-.17l-.22.23-.13-.26-.31-.26.25-.33,0-.1-.22,0-.26.49-.41.17-.79,0-.12-.12-.3,0-.3-.3-.08.12,0,.15-.44,0-.32.25-.39-.25-.49.19-.17.21-.48,0,.33-.3.13-.07-.1-.09-.7-.16-.26.13h-.23l.09-.18.11-.3-.3,0-.26-.59-.53-.39v-.76l.06-.22.85.49v0l0,.09-.1-.07,0,0-.36.06.33.39.2.11.23.06-.09-.84.47-.34.19-.1-.45-.12,0-.22.21-.06H661l.06.14.06.31.47.12.66-.09.13-.11,0-.3.41-.24.08-.11-.14-.06-.49-.11-.46.09-.41-.39,0-.24-.23.16-.19.18-.17.08,0-.27.22-.25,0-.23h-.22l-.3.27h-.23l.08-.18,0-.28-.63-.06-.12-.11-.18-.09-1.35.28-.1.12,0-.1.11,0-.38,0-.43,0-.07-.32-.69.07-.27.31-.27-.29-.13-.26-.27.13h-.41l-.39-.48-1.56-.34-.12.13-.05-.13-1.71-.63-.06-.06-.77-.09-.23-.07-1.22,0,.1-.24-.22-.07-.27.2-.1.12,0-.1.12,0-.17-.25-.68.07-.15.14-.1.18-.3-.49-.28,0-.08-.21-.08.22,0,.24-.13-.18-.23-.25-.37-.07-1.08,0-.18-.2-.14-.07-.29.09-.6-.59-1-.06-.21.11-.38,0-.11-.23-.05-.16-.12.12-.12.22-.24,0-.53-.44-.28.19-.13.24,0-.24-.28-.19-.39-.06v.34l-.18.09-.3-.21-.51.35h-.41l-.3.1-.22.34-.6.31.09.2h1.12l.3.38-.18.12-.68-.17-.66.17.5.17.52.09.31,0-.24.11,0,0-.17.19-.21.36-.11.65-.73.44-.18,0-.75-.39H635l-.06.05-.12.45-.44-.17-.14.08-.53.17h-1.15l-.22-.24-.14.24H632l-.33-.41-.13.17-.89-.23-.21-.4-.27.31,0,0-.09.11-.09-.12h-.37l-.08.11-.37-.17-.55,0,.5.42v.16H629l-.43.26v0l0,.09-.08-.06-.53.3-.1.11-.23-.25-.27.3-1.08.42,0,.15.31.06.14.07-.14.11h-.46l-.33.14-.22-.15-.68.15-.14-.06.09-.09.4-.35-.79-.33h-.32l.09-.24-.71-.25-.05.16v0l0,.11-.1-.08,0,0-.54-.19-.3.15-.42-.15-.31.07,0-.07-.24.28-.23.16-.1.13-.53-.33v-.24l-1.51.4-.63-.11-.05-.14-.07-.31-.1.35-.3.09-.18-.07.07.29.2.13L618,666l-.07.2.19.11.76.21,0,.11-.39.13-.7.12-.44.62v0l0,.09-.1-.07,0,0-1,.11L616,668l.34.33.11-.14.14.46-.25-.15-.69.18-.27.12.32.2h.33l.13.08-.2.09v.2l.2.25-.31.06-.39.27-.29.06-.21.17-.3-.44-.08-.23-.09.2-.43.34h-.3l-.4-.25-.24.07-.46.22-.36-.41-.16-.09-.13.21-.06-.22-.15,0-.71.4-1.21.17,0,.21v.22l-.21.06-.54,0-.51.56-.25,0h-.11l-.47,0-.33.18-.74.17-.1.12,0-.1.12,0-.15-.28-.32-.24-.35.49-.36-.09-.54-.27-.24-.27-.61.32-.43-.07-.4,0-.13.28.5.19-1.24.24-.17.18-.09.4-.21.1h-.71l-.28.71-.17.12-.14.06.09.11.67,0,.06.13,0,.16-.71.39-.67.67v0l0,.11L600,675l0,0-.54.11-.39,0-.33-.09-.37.28-.25-.09-.17-.23-.27.2-.12.28-.45-.31h-.68l.06.19h0v0l0,.09-.11-.07,0,0-.54-.21.16-.26-.18-.15-.29,0-.46.11h-.44l.37-.51-.37.11-.53.09-.11.06-.14.25-.57-.12-.14-.06-.67.74.11.25-.45-.15-1.3.68-.06.26-.2.45-1.66.94.32,0,.22.28.22.05.44-.16-.08-.14.54-.09.38.07.48-.12-.31.61v.25l.22-.06.59-.36.18-.17-.29-.12-.17.08v-.21l.68,0,.14.06.11-.14.06.14.33.17.32-.23.36-.11.85.06.46-.06.15,0-.07.18-.28.45h-.44l-.34.51.14.34h.5l.2.17h-.23l-.09.18.15.13.65-.23.54.08.28-.39h.36l.76-.58.35.14h0v0l0,.1-.1-.07,0,0-.22.06.08.24.11.17.5-.68H599l.47.22,2.16.31.07.15.11.14.06-.21.2-.09.12.25-.08.24.7-.3.16.29,0,.39-.29.3-.17-.2,0-.24-.21-.06,0,.32H602l.06.13.22.07v.1l-.31.19-.47-.32h-.08l-.24-.26-.09.46-.09.23.27.13,0,.26-.31,0-.1.42.24-.1h.31l-.33.5.34.33-.07.36-.27-.13-.63.31-.5-.34-.49-.15,0-.41-.07-.13-.22-.26-.32,0-.07.21-.09-.2-.17-.16-.1.35-.23-.38.17-.11.15,0-.27-.21-.22-.07.18-.09.48-.18-.7-.19-.4.2v0l0,.09-.11-.07,0-.05-.55-.59-.15,0-.13.22-.05-.21-.25-.12-.32,0-.1.1.14.07h.25l.09.18-.15.14-.31-.05-.18,0,0,.21-.06.23-1,.28.84.09.06.13-.06.14-.24-.1-.12.28-.87.38.08.14.86.28-.41.22h-.25l.68.25.39-.09v-.2l.09-.35.11-.12.25.35.18-.25.09.15.4-.13-.5.39h-.06l0,.35h0v0l0,.09-.1-.07,0,0-.27.13,0,.16.15.21,1.63.39h.05l.1,0-.07.1,0,0-.15.75-.06.14.85-.34.12-.36.33-.12.05.31,3.89,1.18.72,0,.68.19,1-.12.86.29,1,.15,4.86.18.47.13.1.19-.29,0-.34.25.17.18.17.27v.4l.34-.39.56-.39,0-.21.09-.18v.5l.17.14.42,0,.36-.74h0l.15,0-.08.11,0,0,.12.36.59-.67.08.15.09.34.58-.58-.21-.09,0-.14.43.17v.82l.29-.27v-.59l.62-.32h.24l1.89-.17-.88.68-.13.16,1.19-.59.85-.26,2,.51,3,1.52,2.51,2,.42,1-.36.22-.48-.07-.17.12.08.21,1.72.9.75,2.14.56,2.93c-20.44-.74-40.85-1.48-59-10.16-5-2.39-10.25-5.42-15.72-4.51s-9.31,5.42-13.29,9.17c-15.29,14.44-36.69,20.49-57.9,21.26l.19-.77,0-.49,0-.32-.2-.55L484,708l1.37-7.14.89-2.54,2-1.09.1-.23-.2-.15-.57.07-.43-.27.49-1.2,3-2.44,3.56-1.8,2.36-.6,1,.31,1.41.71-.15-.19-1.05-.81,2.25.2h.3l.73.39v.69l.34.33v-1l.52-.19-.06.16-.25.1.68.69.11-.42.09-.15.71.79.14-.42,0,0-.09-.13.12,0,.05,0h0l.43.88.5,0,.2-.18,0-.1v-.48l.11.22-.06.26.67.45.4.46v-.46l.21-.33.2-.21-.41-.29-.34,0,.11-.21.57-.16,5.77-.21,1.18-.18,1-.33,1.24.13.8-.23.86,0,4.63-1.4.06-.36.39.14.15.43,1,.39-.07-.16-.17-.89-.05,0-.09-.12.12,0h.06l1.94-.48.18-.23,0-.2-.33-.14,0,0-.12.09,0-.12v-.06h0l0-.41h-.08l-.6-.47.48.16.11-.19.21.3.3-.4.13.13.11.41v.25l.46.11.81-.31h-.3l-.48-.27,1-.32.1-.17-1-.45-.15-.34-.28.12-.07-.16.06-.17,1-.08-1.25-.37-.07-.25,0-.26-.21.07-.38,0-.17-.17.11-.22.3,0,.16-.08-.12-.11-.38,0-.29.15-.07.26-.15-.27-.18,0-.66.7.06.06-.12.1,0-.13V685l-.47-.25-.84.25.58.2.2.12-.25.08-.33.23.19,0,.2.14-.28.45-.12-.42-.2.19-.1.23-.09-.25-.38,0-.27.31-.08.17,0,.47-.58.17-.6.41-.75-.37-.31.15.14,0,0,.13-.12-.14-.09-.45.41-.41-.39-.58h.37l.28.12-.12-.52-.37,0,0-.32.32-.15-.11-.27-.1-.56-.28.32h-.1l-.56.38-.37-.22v-.12l.26-.07.07-.17h-.29l0-.38-.25.07,0,.27-.2.25-.35-.34,0-.5.18-.31.84.34-.09-.28.13-.31.24.1.08.27.13-.18.08-.17,2.57-.37.56-.26h1l.6.79L523,683l.08-.28-.25-.07,0,0-.12.08,0-.12v-.06l0,0,.41-.18.9.69.43,0,.33.47.64-.1.78.28.18-.17-.11-.2-.27,0,.24-.2h.59l.16-.39-.4-.61h-.52l-.34-.56-.08-.2.19,0,.54.08,1-.08.43.14.37.27.4-.21.07-.16.13.16.17-.07.81,0v.27l-.21-.1-.34.13.21.22.71.44.26.06v-.3l-.37-.73.57.16.46-.1.63.1-.09.18.53.19.25-.08.27-.32.38,0-2-1.11-.24-.54-.07-.31-1.54-.81-.54.17.13-.27-.8-.9-.17.07-.67.14-.16-.3-.14-.06-.63-.1-.43-.15.43.61h-.52l-.54-.12-.35,0-.21.18.19.31-.66.25,0,0-.12.08,0-.12v-.06l0,0,.06-.24h-.8l-.53.37-.14-.32-.33-.24-.2.25-.3.12-.44-.32-.39.09-.46,0-.64-.13,0,0-.12.1,0-.12v0l-.8-.79-.84-.47-.06-.18.08-.14.79-.05.11-.11-.17-.08-.2-.14-.32-.85h-.85l-.25-.12-.11-.48-.2-.22-1.48-.28.59-.21-.14-.33-.49,0-.5.08-.73-.37-.28.31-.65.31-.42.13-.42-.59-.39.3-.17.32.14.05,0,.13-.12-.15-.87-.2-.4-.22-.56.05h-.13l-.3,0-.6-.68-.64,0-.26-.06v-.26l0-.26-1.44-.2-.84-.48-.18,0-.08.26-.14-.25-.19.11-.44.47-.55-.26-.28-.07-.47.28h-.37l-.51-.39-.11-.23-.08.27-.36.51-.25-.18-.35-.07-.46-.35-.37-.07.24-.27v-.24l-.25-.12.16-.08.4,0,.38-.25-.33-.15-.81-.2-.31.19.17-.55.14.17.39-.42-.19-.39-1.23-.13,0,0-.13.1,0-.12v0l-.53-.74-.82-.14-.48-.16,0-.13.91-.25.22-.13-.08-.25-.26-.08.24-.15.08-.33-.21.08-.36-.11-.12-.41-.08.37-.06.17-.76.13-1.78-.49,0,.3-.63.38-.12-.14-.28-.2-.27-.33-.07.07-.36-.08-.51.19-.35-.19-.65.24.05.06-.12.07,0-.12v0h0l-.07-.19-.85.29.11.28h-.39l-.93.41.48.4.1.12-.16.07-.82-.19-.25.19-.4-.17-.54,0-.18-.13.17-.07.37-.08,0-.17-1.27-.51-.33-.35-.28.29-.11-.12-.63-.36-.1.08,0-.12v-.05l-.5-.32h-.19v-.19l.59-.5h-.66l-.43.2-.11-.13-.43,0-.11.15-.1-.13,0-.05-.33-.37-.24.49-1.06.26-.16-.2-.38.49h-.2l-.17-.28-.25.29H480l-.63-.19-.16-.1-.52.18-.15-.51-.07-.07h-1.4l-.88.47-.21,0-.88-.51-.13-.8-.25-.41-.2-.22-.05,0-.29-.11.38,0,.61-.11.6-.2-.79-.2-.81.2-.21-.15.36-.44,1.33,0,.11-.24-.72-.38-.27-.39-.35-.13-.49,0-.61-.42-.35.24-.21-.09v-.41l-.47.06-.33.23-.06.28-.15-.27-.34-.21-.63.51-.29.05-.14-.24-.14-.16-.06.18-.13.29h-.45l-.25-.13-1.14.09-.71.69-.35-.09-.17.07-.22.24-1.28,0L465,663l-.27.28-.15.23-.05-.29-.09-.26-.11.25-.33-.05-.35.59-.12-.22-.19-.15-.8-.11-.21.3.15.06,0,.12-.12-.15-.32-.22-.27.07.12.27-1.45,0-.28.09-.91.1-.07.07-2,.73-.06.18-.14-.18-1.86.43-.45.57h-.49l-.33-.15-.15.31-.32.34-.33-.36-.81-.08-.09.38-.51,0-.45,0,.13.05,0,.13-.12-.14-1.61-.35-.2.12-.15.13-.75.06,0,.34.08.22h-.26l-.37-.34-.25,0,0,.25.27.28.06.35-.21-.11-.22-.2-.28-.19-.05.28-.48.47-.55-.12-.59.12-.16.08.1.14.48.29,0,.36.15.13.79.1.56-.15.06-.37.08-.15.44,0,.25.08,0,.26-.53.14.22.11.56.41-.11,1,.27-.05.24-.14.39-.45-.42-.09,0,0-.12.09,0-.12v0l1-.59.07.27v.89l-.63.48-.31.7h-.36l.14.36.1.21-.27,0-.31-.17-.83.19-.12.12.16.08.39.35-.58,0-.19-.26-.59-.22L446,672l-.37-.29-.53,0-.05-.18-.1-.14-.35.34-.35.06-.14.15-.95.06-.49-.21-.3-.58h-.27l0,.14.3.39-.37.32-.15.31-.27-.29h-.2l-.5.49-.49.09-.22-.09v-.39h-.39l-.16.12,0,.25-1,.38-.87-.11-.54.36-.27.12.27.08,0,.17-.9,0-.11.14.06.41L436,674l-.65.06-.07.54-.23,0-.62,0-.76.26-.37.2.48.29h.1l.06-.16.12,0-.14.12-.31.36-1.33.25.07.15.32.14-1.2.5.76-.12.64,0-.38.27-.34-.14-.06.44-.15.37-.29,0-.87-.29h-.91l-.8.31,1.8.47.7.41h.19l.32.17.1.24.28-.3.38-.5.09.25,0,.27.56-.24.46.12.35.46.11,1.14.31-1.2.15-.19.94-.4.25.05-.15.54.06.4.55.39.06.17.85.18-.11-.64v-.1l-.38.12,0-.17.85-.34.15.39.4-.2.42-.09.25.09,1.74-.2.4-.41.54-.34,1.71-.46.1.19.87.18.59.63.06-.15.12,0-.14.1.59.41h-.88l-.14.2.14.06,0,.12-.12-.13-.29-.06-.27-.13.26.53-.33.16-.05.25.37,0-.55.39-.31.33.37.06,1.23-.19-.65.51-.46.09-.09.12.17.07,1-.2.2-.2.06-.17.14.17.39-.14,0-.49.18-.16.2.15.11.25.1-.25.4-.16.07-.17.13.17h.2l.33-.65.63-.42.77-.35.68.41.15.2.89.51,1-.09h.1L454,681.4l1,.84,1.62.25h1.22l2.14,1.57-.15.33h-.4l-.21.74-.16.32-.2.06-1.27-.32-.16.11.13.13.5.06.27.12,0,.19-.27.5.06.26.13-.18L459,686l.42.37.52-.17.57.4.23.07.33-.14-.74-.42L461,686l.9.45.47-.06v-.2H462l-.24-.64.1-.15,1.73.27,2.31-.44,1,.38.18.26.69.32.07-.06.76.3v.33l-.35.14-2,0-.28-.1-.29.28-.71.1h-.48l-.17.13.54.16-.21.12-.95.19-.42-.19-.16.38-2.15.6-.19,0-.54.13,0,.44-1.72,2.26-.3-.14-.18-.22-1.11-.46-.26.06-.23.58.2.14,1-.28.21.33-.36.1-.49.5,0,.06-.12.07,0-.12v0l0,0,.2-.28.05-.27-.91.12-2-.88.07-.33.49.17.19.32.14.09.07-.18v-.4l-.7-1-.1.15-.43.13-.37-.48.12.64v.34l-.28-.23-.86-.34-.15.19-.25-.19-.38-.15,0-1.66-.41.21-.17.39.13.06,0,.12-.12-.14-.6,0-.46.39h-.74l.15.19.64.31-.66.29-.38,0-.15.18,1,.64.38.36v-.38l.13-.18,1.09.47.13,0,0-.17-.16-.31.6-.13,1,.16-.2.31.4.14-.4.25v.3h.22l.25-.09,1.15,1.28.19.32.77.31,1.22-.39.21,0-.06.28-.11.26.33.24-.13.13-.23-.25h-.19l-.41.25v.3l.21,0,.19.05,0,.17-.46.11-.11.22.24,0,.21.08.34-.14V694l.24-.22.35-.13.2-.62-.09-.25-.05-.36,1.54.22.76-.19,1.14.13v-.2l-.27-.12h-.61l.56-.3h.3l.76.32.3.5L462,693l-.46.21.61.41.2.44-.51.37-.05.13.17.06.79-.2.14-.63,0,0-.09-.12.12,0h0l.42.07.07-.17.13.17,1.2.2.53-.14,1,.37,1.21.16,3.24,1-.08-.17-2.19-1-.87-.22-1.29-.15-1.6-.48-.17-.09.1-.14.48-.38H464l0-.4.16-.11-.15-.1-.46.22-.25.16-.33-.61h.29l.29-.26-.32-.16-.07-.17-.16.09-.24.63-.58-.32-1.06-.07-.92.16-.71-.25.06-.55.15-.33,1-1.2,1.89-1,1.17-.05.21,0,0,.25-.35.46v1.41l.8-1.21-.36-.06.2-.27.16-.07.58-.76,1-.44,1.43-.38.25.4-.27,1,.6-.79.24-.2.16.39.31.19.09-.26v-.2l.14-.34,2.16.4L473,689.2l.17.07-.17.13v.6l.4.61h.1l1,.83-.09.17-.37.06L473,692l-.2.29-.69.13-.51.58.53.17,1.13-.36.34.19.81.8.36.08,1.52,1.16,1.48,1.66.63,1.74.61,3.35-.13.22-.25-.09-1-2.28-.13-.22-1-.59-.26,0v.26l1.24,1.08-.08.6,1.31,2.24.18,1.75.35.86.56,3.75-.12.43-.4-.24-.71-.69-.37-.07.65.93.54.45v2.32l-.07.09,0,.09c-1.51,0-3,0-4.52-.06-24-.75-47.49-7-71.2-11-5.92-1-12-1.83-17.88-.57-7.63,1.63-14.05,6.64-21.22,9.7-27,11.6-57.31-5.77-86.71-6.48C262.7,704,243.3,705.83,237,692.15c-8.94,15.28-28.32,28.28-43.61,19.35-8-4.69-12.27-14.13-20.12-19.12-6-3.77-13.32-4.54-20.36-5.19-11.57-1.07-20.69-2.2-28.11-3.26l3.37-19.14,3.71-9.86,8-11.5,6.08-5.17.94-1.93,1.2-.43,1.93,1.28,1.54,0-.2-.56,0-.46,3.07-2.25.56-.57-.9.15-1.11.72-1.43.51-1.26.63-.38,0-.06-.38,1.58-2.1,1.28.16.06-.63.23-1.08,4.46-1.95,6.63,1.41.21-.13-.05-.13-4.06-2-7.48,1.24-4.54.24-.2-.16.25-.13,1.58-.23h.71l.38-.34-.36-.1-1-.12-.2-.09.17-.22,4.6-1.22,1.7.35.52-.31,0-.6-.35-.25.2-1,.91-1.66.77-.78.4-.25-.43-.32-1.14.48-.82,1-1.06.45-.56.79v.2l-1-.28.11-.34,1.72-.87,1.71-3.19.65-.19,2.49,1.61,1.35,1.2.41-.07-1.16-2,.29-.18,2,.79.44.12,3.47-.68.25-.12,2.22,1.58.85.19.73.88.25,0v-.25l.24-2-.89,0-.51.52-.23-.15.47-.6,1.18,0,.4-.26.75-.14.29-.28-.19-1.23-.32-.13-1,.45-2.72.58-1.36-1.14v-.58l-.33-.33-.39.19-.52,0-.1-.65.27-.86L165,616.8l-1.09.15.08-.34,1.6-.43,1.59.91.26.47.36.2.27,0,.05-.24-.52-1,1.29-.1,5.66,2.18,1.19.11,1.84-.23,5.28,1.12h.42l0-.77.31-.38,1.45-.3,0,0,.83.2,1.71,0,4.64-.63.72.06.24-.29-.17-.15-.28,0-.95-.2.72-.46,1.35-1.19h0l.13.05,1.23.95,1.2-.86,0-.44-.31-.23.34-.18.45-.39v-.7l-.86-.68-.4,0,.12-.39,2-1.08.31-.29-2.84-.34-.48-.44-.38.13-.33-.14.3-.3.37,0-.09-.52.37-.5h.51l.23-.53-.37,0-1.37.26-.41.52-.45,1.07-.34.13,0-.27.29-1-.75-.8.22-.52-.17-.29-2.08-.75-.61-.32-.53.27.3-1-.13-.69.5-.19-.14-.66-.38.13-.5.29-.47-.13.26-.48.16-.4-2-1-1.85-.15-.11-.07.15-.23,1.91-.59.48.19,1.45-.57-.28-1.47-.4-.13.06-.2,2.07-.49.41.33.32-.16.18-.48.39-.63-.81.2-2.34.09-1,.31-.64.36-.42-.11-.1-.11-.77.31-.41-.18,1.18-.14,0-1,0,0-.28-.61.4-.39,1.26.22.5-.13-.36-.28-.38-.53-.28-.54-.31.42-.29.18-.2-.35,1.06-1.25,0-.27-.32,0-1.05.76-.86.27-.49-.34-.84-.24-1.78-.05.22-.36.16-.36-3.07.76-.65-.13.37-1.05.21.21.26.1v-.35l-.83-.29-1.28.92-1-.12-.74.25-.35.51-1.27-.08,0-.88-.3.28-.4.74-.09,1.3-.28.31-.21-.3-.39-.3-.43.2-.13-.7-1.08-.21v-.56l.71,0,.42.28,1-1.52-.26,0-.7.19-.22-.26.15-.59-.89-.57-2.33-.77-.28-.8h-.5l-.31-1.13-.31.22-1.16,1.61-.66,0-.88-1,0,.54.22,1.91-.31.3-.17-1.35-.6-.43-.46-.09-.38.59-.93,0-.35.56-.57.07-.37-.5.45-.51-2.15.63-.32,0-.78-.62-.33,0-.23-.26-.19-.43.52,0-.18-.37-.27-.29.39-.1h.29l.23-.46,3.3-.69-.49-.56-1.19-.47-1.16-.23-.59.48-.14.25-.27-.21-.87-.5-1.2,1.46-.21.44-.3-.41.2-.31-.33-.65-2-.44-.64.13-.53.37.7.26.43.08-.4.47-1.37-.51-.46-.27-1.12.08-.37,0,.08-.52,1.27.1-1.77-.84-.79-.2-.21-.18-.09.26.08,1,0,0,1.11.77-.4.79-.34-.5-.22-.17-.6-.29-.63.23.1-.91-.45.38-.36.14,0-.39.23-.38-.1-.19h-.28l-.25.31-.23.55-1-.36-.65-1.11L142.24,585l1.43,2.73,0,1.36-.36.13-.57.1-.53.45-.33-.33-.44-.2-.94.1.46-.29.17-.67-.07-1.1,0-.21-.28,0-1.09.08-.32.32-.21.31-2.36,1-1.53-1.5-.61-1.15-.23-.14-.06.26.22,1.13,0,.22.79,1.3.49.16.39.43.28,1-.17.32H136l-1.46.34-.33-.29-2,.58.66-.56-.24-.36-.51-.06-1.07.14.2.92-.47,1.49-1.21-.6-.46-.53-.56.25-1.09.91-.21-.22-.41-1.65,0-.65-.42-1.17-.08-.66-1.47.5-.26.75.78-.23.62.55.32,1.21-.13.23-.42-.07-.65.14.21.55.4,1.78,1.09.54.28,1.24.42-.06.56.39-.52.68-1-1-.71,0-.5-.79.07-.43-.9.29L124,593.2h0l-1-.64-.83-.08.67-1.06,0,0-.53-.23-.73.38-1.09-.64,0-.32.37-.2,1.08-1.56-.21-.43-.34.25-.7.31.29-.63-.05-.25h-.26l-.57.39-.59.7-.47.41-.3-.43-.07-.57-.19-.15-.17.19.15,1.15.56.31.23.34.3.17-.48.49-.19-.29-1.23-.07-.85-1.17-.71,1.53-.2.14-.1-.26v-.73l-.17-.33-.19.36-.74.07.19-.62-.23-.62-.66-.25.37-.83-.35-.6-.28-.27-.1.32-2.13,1.31-.62-.87-.86-.06-1,.37-.32-.47-.8-.39.05-.27.14-.44-.51,0-.34.62-.34.46-.1-.61-.77-.18-.59.61.27.82-.07.26-.22-.15-.7-1.22-.25-.33-.13.39-.14.73-.74.13-.31-.85-.29,0-.07.4-.28.29-.2-.29-.06-.38-.92.17-1.39-.36-1,.41-.08-.25-.1-.48-.83.12-.16,1.89.1.1.17-.34,1.21.77-.65-.12L98,589l.16.72.16.19,1.34.94v.21l-1.23.25-.63-.78-.43-1.31-.45.18-.27,1.76-.48,1.06v.5l-.39-.32.1-1.74-.19-.37-.5-.67.23-.25-.72-1.2-.44,0-.4.59-.76.07-.1-.1-2-.48-.36,0,.15-.24,1.12-.89.12-.87-.43.09-.31.23-.14-.37.06-.52-.42.31-1.25,2.7-.69-.23-1.31,1.16-.86.57-.92-.25-3-.18L82,590l-1.21.84-2.16-1.2-1.89.62,1.1.06.37.66-.06.73h-.23l-2.08-.54,0,1.53.48-.18,0,.24-.5.1-1.37.09-.26,0-.46-.39,0-.27,0,0-.32-.89-.78-.11-1.42-.88,0-.15-.78-1-.3.69.26.55-.19.12-.29-.44-.4-.05-1.2-.61-.19-.39,0-.35h-.26l-.64.53-.36-1.07.07-.43-.4-1.18-.19,1.3-.45,1.17-.32.05-.49.31-.47,1,2.22,1.5-.32.25.29,1-.25.57,1,.65.51-.15.08-.53.41.31.68,1.12-.34.53,0,.32-.85,0-1.53-.24-.33-.23-1.91.48-.62-.15-.33,0-.45,0-.07-.58-.13-.23-.2.2-.41.87-.19-.38-.33-.47-.29.23-.06.37H60l-.79-.69-.09-.11-.23-.07-.06.26.58,1.13-.1.5-.5,0-.62-.55-.18.19-.09,1-.73.85.27.73,4.22-.51,2.63,1.19,1.74.56.9.68v.57l.37.74.69.5.1.5.24.25,2.52-.11.36.78.54,1.54.35,0,1.15-.06.38.44,2.17,1,.79.25.29.77-.77,0-2.75.93-.23-.55.26-.67-.12-.5-.65,0,0,.5-.12.32-.25,0-.81-.83-1-.44-.12.51,1,.83.21.49-.53.2-.16,1.6-.19.34-.81.1v.56l1.82,0,.4.31-.32.23-.26.38.35.37.87.18-2.2.69-.64-.38-.71-.06-.16-.3-.18-.54-.71-.32-.34-.57-1.23-.21.5,1.13,0,.67-.48-.24L63.48,612l1.65.71,2.13,1.42,3.12.13,1-.12h3.86l.11.33-.39.68.62.49,1.68-.07-.59,1.24,0,.11,2.27-.85.53-.06,1.26.7L81,617l-.35,0-.09.43.07.44-.53.25-.36.4h.52l.36.43-1,1.3-.28,1.7,0,0,0,.86.12.41.19-.35.61-1.91,1.17-2.32,1.3-.85,3.74-.5.3.14-.27.09-.58,0-.24.15.26.11,1.31,0,.42.5.25.14.72-.46,1.05.45.52.82,1.07-.17,1,.17.91.6,2,.12,0,.91-.45,1.86,2.61-3.74.42,0,.51.53v.57l.14.22.33-.2,0-.29.18-.33.2.2.53,1.36.78.26,1.47-.1,3.19,2.48.2.23,0,.23H105l-.38-.22-1.44-.23,1.91,1.24-.11.63-1.1.92,1.44-.46,2.55-.07,10,5.41,2.63,2.23,1.65,2.24-.06.7L121,637.88l.11.25,1.32,0,2.89.91,4.57,3.37,1.65,2V647l-5.34,8.74-3.9,10.06-.15.25L118.5,683c-21.4-3.38-26.93-5.72-44.34-3.1a101.34,101.34,0,0,0-11.84,2.46l0-.32.29-.7.15-1.48,1.1-1.89-.07-.5,1-.91v-.21l-.22,0-.81.49-.11.19-.85,1.92-.21.07-.11-.18.51-2.82.53-1.45,1.25-1.42,1.27-1,.31-.06.67-.68.29-.17.95.3.45-.13-.43-.5-.58-.1-.17-.25-.9-.28-.31-.06-.08-.13.87-.71h.08l.34-.5v-.51l-.14-.1.14-.06,1.6-1,1.82-.33.12.3v.15l.07.23.26-.17.14-.33.2.18.51.65-.23-.81.21-.34,1.2.31.86.38.48.63.14.06.17.24-.31,0,.68,1v-1.17l-.29-.38,0-.24.18.06,1,0,1.58.81.82,1,.13.27,0,.46-.6.22-.77-.14-.89.05-.49.28-.2-.54-.14-.06-.06.13-.26.14.24.22.25,0-.28.53-.21-.15-.39-.18-.13.08.14.1,0,.33h-1l.4.33.09.11-.14.07-1.34.42-1.09.12-.74.19-1.84.82-.06.14,2.73-.85,1-.15.87-.31.45.13,1-.16.11-.15.06.15.35-.06,0,0h0l.1,0-.07.11,0,0,.12.54.66.16.15,0,0-.12-.42-.31.17-.37.5-.33-.38-.17-.06-.16.25-.41.64-.26h.25l.48.25-.52,0-.23.1V671l1-.11.63.16,1.29-.19,0,.3-.08.22.16.52.3.11.2.18v.32l.29.13.17-.07.21,0-.1-.2-.38-.08,0-.15.16,0h.17v-.25l-.34-.2-.16,0-.19.22-.12-.12.28-.2-.09-.22,0-.21h.18l1,.34.65-.27.16-.26,1-1.07.21.07h.18v-.25l-.33-.2.33-.14-.16-.26.8-.12.51.1-.14.26,0,.14.1,0,.92-.39.1.14v.33l.32-.3.86-.53-.13-.17-.32,0-.56-.24.55-.26.12-.17H86.7l-.38-.32-.5,0-.1.1,0-.09.11-.06-.15-.32-.34-.18v1.39l-.33.12-.21.18-.12-.18-.72.3-.24.19v-.29l.1-.53-.31.39-.36-.11-.09-.12-.58.85v.33l0,.14.12-.07.16-.27.42-.13,0,.26-1.71.74-.77-.09,0,.23.17.23,0,0v.05l0,.11-.1-.07,0-.05-.42-.43-.29-.08.17-.26.83.22.17-.11-.2-.5-.21,0-.94.38-.15.19-.25.12-1.28-1.63-.16-.28,0-.37-.46-.1-.16,0-1.8-.51-.13-.33-.36.18-.8-.18-.18-.1.46-.12-.14-.1h-.41l-.59-.09-.25-.22-.23.07H71.52l-.29-.12v-.29l.64-.25.06,0,.58-.26.15-.23.87-.32,1.94.37,1.45-.21.09.13-.2.52h-.25v.17l.39.06.76-.38.52.08-.63.37.29.12.19-.06.48-.34.43.15.36-.31.58.31.11.14,0-.21-.23-.42v-.17l.22-.1.42,0,.11-.12-.13-.07-1.07.26-.17,0-.14-.27-.17-.62h-.34l-.13-.28,1.81-1.32h1l1.36-.21.88-.69,2-1.19h.08l.82.08.75-.43.13-.17.57-.34.65.3.53.34.27.55h.17l.12-.13,0,.13.34.12.08.21.09-.21.17-.11.16.12v.42l.33.13.11-.14.06.14.17.16.85.17.14-.06-.08-.11-.39-.08-.55-.42h0l1,.16.31-.06-.26-.26-.46-.32.31,0-.05-.2-.27-.13.22-.44-.23.1-.25,0-.1.12,0-.1.11,0-.12-.18h-.74l.5-.34-.12-.1.11,0,0,.13.49-.53.73-.14.09-.17,1.43.37.46.31.34.33,1.46.17.21-.07.35.07.33.18.13-.34.71.29,0,.14-.31-.09V660l-.1.55.72-.16,0-.14.46-.32.05-.35-.13-.45.21,0,.8.34.12.15.26,1,.09-1,.3-.38.39-.11.47.21,0-.22.08-.22.32.42.23.24.09-.19.27-.13h.15l.6-.36,1.51-.38-.68-.26h-.76l-.73.22-.24,0-.13-.31,0-.37-.29.12-.32-.23.54,0,.64.11-1-.43.27-.12.06-.13-1.12-.22-.26-.28-.12-.11.1,0,0,.13h.09l.4-.25-.31-.18-.64-.22-.52,0-.19,0-.06-.46-.55,0-.34.11.05-.34-.1-.11-.75,0,0-.14.23-.07-.23-.11-.45-.3-.73.1-.81-.32,0-.21-.13-.1-.34,0v.34l-.18.07-.41-.07-.42-.42H93.9l-.22.23-.13-.26-.31-.26.25-.33,0-.1-.22,0-.26.49-.41.17-.79,0-.12-.12-.3,0-.3-.3-.08.12,0,.15-.44,0-.32.25-.39-.25-.49.19-.17.21-.48,0,.33-.3.13-.07-.1-.09-.7-.16-.26.13h-.23l.09-.18.11-.3-.3,0-.26-.59-.53-.39v-.76l.06-.22.85.49v0l0,.09-.1-.07,0,0-.36.06.33.39.2.11.23.06-.09-.84.47-.34.19-.1-.45-.12,0-.22.21-.06H89l.06.14.06.31.47.12.66-.09.13-.11,0-.3.41-.24.08-.11-.14-.06-.49-.11-.46.09-.41-.39,0-.24-.23.16-.19.18-.17.08,0-.27.22-.25,0-.23h-.22l-.3.27h-.23l.08-.18,0-.28-.63-.06-.12-.11-.18-.09-1.35.28-.1.12,0-.1.11,0-.38,0-.43,0-.07-.32-.69.07-.27.31-.27-.29-.13-.26-.27.13h-.41l-.39-.48-1.56-.34-.12.13,0-.13L79.22,647l-.06-.06-.77-.09-.23-.07-1.22,0,.1-.24-.22-.07-.27.2-.1.12,0-.1.12,0-.17-.25-.68.07-.15.14-.1.18-.3-.49-.28,0-.08-.21-.08.22,0,.24-.13-.18-.23-.25-.37-.07-1.08,0-.18-.2-.14-.07-.29.09-.6-.59-1-.06-.21.11-.38,0-.11-.23,0-.16-.12.12-.12.22-.24,0-.53-.44-.28.19-.13.24-.05-.24-.28-.19-.39-.06v.34l-.18.09-.3-.21-.51.35h-.41l-.3.1-.22.34-.6.31.09.2h1.12l.3.38-.18.12-.68-.17-.66.17.5.17.52.09.31,0-.24.11,0,0-.17.19-.21.36-.11.65-.73.44-.18,0-.75-.39H63l-.06.05-.12.45-.44-.17-.14.08-.53.17H60.55l-.22-.24-.14.24H60l-.33-.41-.13.17-.89-.23-.21-.4-.27.31,0,0-.09.11-.09-.12h-.37l-.08.11-.37-.17-.55,0,.5.42v.16H57l-.43.26v0l0,.09-.08-.06-.53.3-.1.11-.23-.25-.27.3-1.08.42,0,.15.31.06.14.07-.14.11h-.46l-.33.14-.22-.15-.68.15-.14-.06.09-.09.4-.35-.79-.33h-.32l.09-.24-.71-.25,0,.16v0l0,.11-.1-.08,0,0-.54-.19-.3.15-.42-.15-.31.07,0-.07-.24.28-.23.16-.1.13-.53-.33v-.24l-1.51.4-.63-.11,0-.14-.07-.31-.1.35-.3.09-.18-.07.07.29.2.13L46,650l-.07.2.19.11.76.21,0,.11-.39.13-.7.12-.44.62v0l0,.09-.1-.07,0,0-1,.11L44,652l.34.33.11-.14.14.46-.25-.15-.69.18-.27.12.32.2h.33l.13.08-.2.09v.2l.2.25-.31.06-.39.27-.29.06-.21.17-.3-.44-.08-.23-.09.2-.43.34h-.3l-.4-.25-.24.07-.46.22-.36-.41-.16-.09-.13.21-.06-.22-.15,0-.71.4-1.21.17,0,.21v.22l-.21.06-.54,0-.51.56-.25,0H36.3l-.47,0-.33.18-.74.17-.1.12,0-.1.12,0-.15-.28-.32-.24-.35.49-.36-.09-.54-.27-.24-.27-.61.32-.43-.07-.4,0-.13.28.5.19-1.24.24-.17.18-.09.4-.21.1H29.3l-.28.71-.17.12-.14.06.09.11.67,0,.06.13,0,.16-.71.39-.67.67v0l0,.11L28,659l0,0-.54.11-.39,0-.33-.09-.37.28-.25-.09-.17-.23-.27.2-.12.28-.45-.31h-.68l.06.19h0v0l0,.09-.11-.07,0,0-.54-.21.16-.26-.18-.15-.29,0-.46.11h-.44l.37-.51-.37.11-.53.09-.11.06-.14.25-.57-.12-.14-.06-.67.74.11.25-.45-.15-1.3.68-.06.26-.2.45-1.66.94.32,0,.22.28.22.05.44-.16-.08-.14.54-.09.38.07.48-.12-.31.61v.25l.22-.06.59-.36.18-.17L20,661.8l-.17.08v-.21l.68,0,.14.06.11-.14.06.14.33.17.32-.23.36-.11.85.06.46-.06.15,0-.07.18-.28.45h-.44l-.34.51.14.34h.5l.2.17h-.23l-.09.18.15.13.65-.23.54.08.28-.39h.36l.76-.58.35.14h0v0l0,.1-.1-.07,0,0-.22.06.08.24.11.17.5-.68H27l.47.22,2.16.31.07.15.11.14.06-.21.2-.09.12.25-.08.24.7-.3.16.29,0,.39-.29.3-.17-.2,0-.24-.21-.06,0,.32H30l.06.13.22.07v.1l-.31.19-.47-.32h-.08l-.24-.26-.09.46-.09.23.27.13,0,.26L29,665l-.1.42.24-.1h.31l-.33.5.34.33-.07.36-.27-.13-.63.31-.5-.34-.49-.15,0-.41-.07-.13-.22-.26-.32,0-.07.21-.09-.2-.17-.16-.1.35-.23-.38.17-.11.15,0-.27-.21-.22-.07.18-.09.48-.18-.7-.19-.4.2v0l0,.09-.11-.07.05-.05-.55-.59-.15,0-.13.22-.05-.21-.25-.12-.32,0-.1.1.14.07h.25l.09.18-.15.14L24,664.4l-.18,0,0,.21-.06.23-1.05.28.84.09.06.13-.06.14-.24-.1-.12.28-.87.38.08.14.86.28-.41.22h-.25l.68.25.39-.09v-.2l.09-.35.11-.12.25.35.18-.25.09.15.4-.13-.5.39h-.06l0,.35h0v0l0,.09-.1-.07,0,0-.27.13,0,.16.15.21,1.63.39h.05l.1,0-.07.1,0,0-.15.75-.06.14.85-.34.12-.36.33-.12.05.31,3.89,1.18.72,0,.68.19,1-.12.86.29,1,.15,4.86.18.47.13.1.19-.29,0-.34.25.17.18.17.27v.4l.34-.39.56-.39,0-.21.09-.18v.5l.17.14.42,0,.36-.74h0l.15,0-.08.11,0,0,.12.36.59-.67.08.15.09.34.58-.58-.21-.09-.05-.14.43.17v.82l.29-.27v-.59l.62-.32h.24l1.89-.17-.07-.15-.25-.12.21-.06.11.08-.07.1.21.11-.14,0-.88.68-.13.16,1.19-.59.85-.26,2,.51,3,1.52,2.51,2,.42,1-.36.22-.48-.07-.17.12.08.21,1.72.9.75,2.14,1.07,5.61c-14.52,4.77-19.36,10.76-37.64,9.87a81,81,0,0,1-9.51-1,81,81,0,0,1-9.51,1l-1.49.06v333.25h1920V693.39a80,80,0,0,1-9-1A81,81,0,0,1,1901.61,693.42Zm-439.85-4.78.31.05-.06.17-.4-.12Zm-.59-.16,0,0,0,.11-.06-.06Zm-.54,1.71.1,0-.15.07Zm-.17-1,.11.25-.12.32-.21-.07Zm0,1.08h0l-.24.07Zm-.43,0,.06.11-.06.06-.06-.12Zm-64.22-17-.06-.06.11-.06.06.06Zm.53.19-.06-.06.06-.12,0,.07Zm.84-.68-.05-.12.05,0,.06.11Zm.84-.85.06.06-.06.11,0,0Zm-.53,1.5-.06-.06.11-.06.06.06Zm.19-.32-.06-.06.06-.11.06.06Zm0-1-.11,0,.06-.06.11.06Zm.44,1.54-.24-.06.15-.08.21.06Zm-13.78,6.75-.06-.06.06-.11.06.06Zm.18,1.35-.09-.14.24,0,.07.12Zm.52-.19-.11-.06.06-.05.11.05Zm18.18-10.27-.23-.09.25-.1.2.15Zm16.42,21.41-.81-.84.81.68Zm.27.15-.23-.13,0,0,.22.05Zm2.2.84-.14-.06.09-.23.1.16Zm-185.3-46.24.24.41-.25.15-.21-.48Zm-.32,3.27-.08.41-.16-.36Zm-2.52.8.23.18-.61,0-.16-.13Zm8.36-23.91,0,.29-.22-.13-.07-.36Zm-.39,7.2,1.77-.89.54.91-.44.49.36.07-.09.32-1.51.55-.52,0-.5-.3Zm-2.78,4.85,2.08-1,.45.44-.29.87-.57.58-1.4.3-.8-.66Zm-6.89-9.83.21.12-.06.2-.21-.13Zm-.18,22.43.13.28-.51.06v-.19Zm-1.21-22.44.22-.06-.1.2-.21.18-.11-.18Zm-.1,23.28,1.21.44-1.3.13-.63-.53Zm-4.33-24.78.18.32-.18.12-.24-.25Zm-5.8-.93.36.17-.41.33-.22-.08Zm-2,28,.28.23-.26.36-.36-.47Zm-.25.79.25.36-.24,0-.35-.3Zm-1.27-.9.27.28-.46.39-.4-.27Zm-1,.77.5.31-.38.37-.14.05-1.2,0-.05-.22Zm-3.95.4,2.35.64v.23l-1,.59-1.51-.81Zm-2.33-29,.1,0,0,.11-.31.39-.17-.17Zm-1-.81.89-.33.07.38-1.15.55-.07-.1Zm-1.51.25.11.36-.63,0-.15-.31Zm-1.07-.45-.18.19-.19-.34Zm-1.74,0,.23.15-.06.2-.24-.12Zm-10.11,38.19,5.31-2.65.35.17-.13.22-5.7,2.89-.07-.28Zm-13.22-33.29.33.42-.32.25-.27-.44ZM1119,651.64l-1,.65-.33,0-.52,0-.49-.47.3-.42,1.89-.44.25.28Zm3.94,4.24-.77.36-2.28-1-.27-.61.44-.56,0-.32.57-.81,0,.18.84.41.47-.28h.14l.08.21-.17.23.47,1.25.19.25.41.13.29.38Zm17.4,3.67-.19-.09.36-.54.25.1Zm41.52,15.18-1.68.35,0-.09-.72.07-.37-.26-2.22-4.1.38-.15,2.66.57.61.39.67.12-.28-.56-1.71-1.52-1.55-.09-.58-.6.45-1.8.22-1.67.7-.47,4.3.42,2,.71,1.56,4.16Zm5.72-7.55-.37-.12-.75-1.25.69-1.29.24.16.69.76Zm1.83-1.88-.87,0-.73-1.13.12-.07,1.06-.08.76.18Zm.55-2.93-.89.87-3,1.43-.92.21-.84-.2-.21-.69.72-.73,2.2-1.64,2.43-.91.68.78Zm-1.48-35,.44.05-.23.17-.31-.13Zm-5.78,35.12,1-3.15,1.54-2,2.32.6.59.64.74.26.55,0,.9.9-1.06.3-3.65,1.68-2.43,2.28-.7.34-.47-.53Zm-3.38-31.47.63-.29.36.1.15.38-1.36,1.68-.08-.79Zm-2.86,30.52,3.25-1.08.45-.68.09-.42.36-.12.22.19,1,1.33-2,1.76-3,.12v.06h-1.38Zm-3.77,4.26,4.33-1,.19.27-.79,4-1,.4-2.33-1.5-.6-1.18Zm-9.55-12.21.23,0-.14.2-.22,0Zm-3.78,1.47,2-2,.4-.07.1.38-.11.86-1.52,2.61-1.14-.54,0-.47Zm1.13,2.53-.27,1-.2,0-.23-.81.37-.44Zm-5.62-31.23.32.45-.26.16-.23-.44Zm-4.54.32-.23-.1.35-.37.29.13Zm.84,27.37,4,.92.16.3-1.54.74-2.11-.5-1.13-.55Zm-2.15.9h1.54l-.44.56-1.89.59-.28-.57Zm-.46-1,.21.26-.49.59-.37.69-1.4-.85Zm-1.71,2-.26.12-.25-.09.28-.15Zm-2.28-.76.7-.27h0l1.17-.27.09.73-1.89.34-.35-.21Zm-1.57,3.1-.79.06.4-.68,0-.11,1.43-.83.35-.07.06.36-1,1.11Zm2-.05-1.36.42-.07-.5,1.33-.25.24.1Zm-.09-1.88.62-.37.5.12-.66.49Zm3.36,1.57-1.66.44-.89-.56.14-.89,1-.17,1.35.55.34.27Zm2.1-.27-2.22-1.3.09-.25,2.28-.24,2.85.44,2-.39.9.19.67,1.62,0,.25Zm8,7.5-3-.59-.22-.13.12-.08,3.2.58.1.11Zm-2.44-3.84-2-3.14,0-.24h.26l2.65,1.23,3.28,5.07-.08.18-.24-.1Zm4.46,11.07-.22-.29.38-.1.52.23.19.31Zm1.08-1.66-.36.85-1.57-.39-.28-.33.44-1.7.82-.3,1.16,1.09Zm1.45-6.35-.46-.69.4-.24.45.22Zm.41-2.9.12-.91-.56.5-.17.68-.7.42-.64-.44-.52-2.69.59-.31.25-.24-.27-1.32,1.67-2,.56.19,1.47,4.53-.2,1.28-.54.68-.55.28Zm3,4.94-.27.44-.37-.13-1.32-1.12-.14-1.29.3-.25.31.07Zm-2.25.77.2-.08.24.31-.29.09Zm1.76,4.79-.81.13-.56-2.16.13-.85,1.24-.93.56.13.57,1.18Zm.59-14-.62-2.51-.44-.87.35-1,.74.1,1.38.91,1.86,2.17.28,1.43-.28.53-2.6.64Zm1,4.49.13-1.12.67-1.08,2.71.22.19.6-3,3-1-.85Zm7.83,16.85-1.44,1.12-1.43-.43-3.15-3.05-1.74-2.5,0-.54,1-2.28.89-.5,1.2.27,1.85,0,.44.38,2.38.36,1.06,1.2.46,1ZM862.19,717l-.2.3-.31.07-.35-.35.31-.22Zm0-10.47.24.16.69.76-.5,1.74-.37-.12-.75-1.25Zm-14.46,1.31,4.33-1,.19.26-.79,4-1,.41L848.09,710l-.6-1.18Zm2.67,13.59L849,722.54l-1.43-.43-3.15-3.05-1.74-2.5,0-.54,1-2.28.89-.5,1.2.27,1.85,0,.44.38,2.38.36,1.06,1.2.46,1Zm1.49-8.72.38-.15,2.66.57.61.39.67.12-.28-.56-1.71-1.52-1.55-.09-.58-.6.45-1.8.22-1.67.7-.47,4.3.42,2,.71,1.56,4.16-4.45,4.52-1.68.35,0-.09-.72.07-.37-.26ZM635.52,686.38l.09.23-.15.06-.05-.13Zm-13.35-3.24-.43.16-.32-.49-.92-.82-.88-.54-.56-.25-2.11-.27-1.87-1.17-.39-.75.16-.52.87-.38.93.56,8,2.81,1,.57.51,1-.26.17h-1.21l-.37.14,0,0,0,0,.08.11h-.07l0,.06-.1-.08-.89-.11Zm2.79,1.61-.06.06-.11-.06.06,0Zm3.29,3.79-.31.07L624,685l1.47-.24.46,0,.45-.12H627l.44.34.93,3.3ZM493.1,690.61l.06.07-.06.12-.06-.06Zm-2.57-.77.06.06-.13.08-.07-.08Zm-3,.39.52-.41h.69l.54.13.54,0,1.75.28-4.69,4.29-.36-.09-.09-.25Zm-12.44.78.26,0,0,.13L475,691Zm-.1-.2V691l-1-1Zm-1.11-.63,0-.13,1,1-.1,0Zm2.92,4.39-.25.11-.47-.3-1.76-1.52-.27-.05-.26-.1.22-.21.55-.35.53-.13,1.38,1.21.33.95Zm1.14-2.39-.18-.07.11-.27.13.17ZM140.26,616.24l.07.22-.22.16-.07-.22Zm-2.1,6.35,2.71-.22.67,1.08.14,1.12.2.77-1,.85-2.94-3Zm.42,10.92,1.21-.27.89.5,1,2.28,0,.54-1.74,2.5-3.15,3.05-1.43.43-1.45-1.12-1.44-5,.46-1,1-1.2,2.39-.36.43-.38Zm-2.06-5.68.24,1-.61,1.18-2.32,1.51-1-.41-.8-4,.2-.26Zm-8.14-6,.21-.21.37.14.08.41.46.67,3.25,1.09,1,1.16h-1.39v-.07l-3-.12-2-1.76Zm-9.22-2.32.23.14-.06.19-.25-.11Zm.59,1.38.54,0,.75-.26.59-.64,2.31-.6,1.55,2,1,3.15.65,1.37-.48.53-.7-.34-2.43-2.28-3.65-1.68-1.06-.3Zm.38,4.32-.89-.87-.12-.88.69-.78,2.43.91,2.2,1.64.72.73-.21.69-.85.2-.91-.21Zm2.44,12.12-.32-.07-.2-.3.55-.2.32.22Zm7.56-.56-.37.26L129,637v.09l-1.69-.35-4.44-4.52,1.55-4.16,2-.71,4.31-.42.7.47.22,1.67.45,1.8-.58.6-1.56.09-1.7,1.52-.28.56.66-.12.62-.39,2.66-.57.38.15ZM66.77,670.93l.17.19-.21.07-.23,0L65,672.51l-.4.25-.21-.08v-.34l.27-.79,1.16-1,.45.1Zm.12-2,0,.11-.7.69h-.08Zm-1,.64.81-.68-.82.84Zm-.09.16.05,0-.23.13,0-.1Zm-1.93-1.25,1.11-.76h.15l.07.2-1,1.52-.11.1-.06-.06-.35-.51Zm-.4,2,.09.23-.15.06-.05-.13Zm-22.13-.5-.23-.12.3-.08.21.08Zm2-.9-.06-.05.11-.06.06.06Zm1.6.19-.34-.16-.14-.33.18-.1.46,0,.12.28.23-.09.22.21Zm.79-.49-.06-.06.06-.12.05,0Zm3.17,0v-.1h.22l0,.13Zm.47.1.1,0,.05.13Zm.92.58-.1-.07,0,0-.53-.23.5.18,0,0,0,0,.08.09-.09,0Zm.32.19,0-.11,0-.06.06.11Zm5.37-1.31.15,0-.1.23-.1-.15Zm-.56-.78.44-.06v.1l-.39.16,0-.06Zm-1.77.25.06.09-.06.06-.06-.11Zm-.81.33.21.07-.37.33-.12-.23Zm.05.75-.06.06-.11-.06.06,0Zm-.76-.58.06.1-.06.06-.05-.1Zm-.45-.35-.13-.07.27-.24.09.22Zm4.5,4.72-.31.07L52,669l1.47-.24.46,0,.45-.12H55l.44.34.93,3.3Zm2.77-4.3.12.06.68-.43,0-.18.15.08-.14.05,0,.06.36.21.12.11.18.39-.48.59h-.59l.32-1.06-.56,1.06-.33-.13-.09-.56Zm-2-.16.57,0,.11.12-.13.08-.45.67-.51-.18-.07-.14Zm.73,2.66-.21.66-.09.14-.11-.12-.13-.19-.6-1.71.09-.18,1.18,1.1Zm0-2,.12-.07.24.09L58,669Zm.29,3.64.71-2,.09-.71h1v.17L58.3,672.5l-.23.18Zm2,9.76h-.08v-.67H60Zm1.32-7.28-.12,1.46-.14,1-1.25,3.89-.1-.2-1-3.63-.15-.94-.31-.88.21-1.81L60.52,670l.43-.58.44.25.17.77.14,2.87ZM486,690.61l.1.21-.71,2-.15.24-.14.14-.1-.16-.4-1.13Zm-1.35-.8.15.09-.34.27-.09-.24Zm-2.35,1.2h1.2l.1.86.85,2.38-.12.34-.27-.21-1.76-3.16Zm-.16,14.83H482v-.79h.1Zm1.44-5.7-1.19,4.31-.12.25-1.49-4.64-.23-2.1-.07-.78-.47-1.91.17-3.43.21-.91.52-.29.51.68,2.46,4.49.25,2.15-.37,1Zm146.16-13.4-.21.66-.09.14-.11-.12-.13-.19-.6-1.71.09-.18,1.18,1.1Zm0-2,.12-.07.24.09L630,685Zm.29,3.64.71-2,.09-.71h1v.17l-1.48,2.64-.23.18Zm3.34,2.48-.12,1.46-.14,1L631.88,697l-.08.24-.1-.2v0l-1-3.58-.15-.94-.31-.88.21-1.81,2.07-3.78.43-.58.44.25.17.77.14,2.87Zm799.41.83.06,0-.11.06-.06-.06Zm-3.2-.5,0,.13-.11.15-.09-.23Zm.65.82.43-.34h.59l.45.12.45,0,1.47.24-3.94,3.61-.3-.07-.08-.22Zm-1.27.32.08.18-.59,1.71-.13.19-.12.12-.08-.14-.34-1Zm-1.14-.66.13.07-.29.23-.07-.21Zm-2,1h1l.09.71.72,2-.1.29-.23-.18-1.48-2.64Zm.07,11.3-.1.2-1.25-3.89-.2-1.78,0-.65-.39-1.61.14-2.87.17-.77.44-.25.43.58,2.07,3.78.21,1.81-.31.88-.16.94Z" transform="translate(-0.12 -585.02)"/></svg>